<svg xmlns="http://www.w3.org/2000/svg" viewBox="0 0 18.31 40.02"><defs><style>.cls-1{fill:none;stroke:#000;stroke-miterlimit:10;stroke-width:0.56px;}</style></defs><g id="Layer_2" data-name="Layer 2"><g id="Layer_1-2" data-name="Layer 1"><path class="cls-1" d="M2.31,9A82.1,82.1,0,0,0,1,21c0,5.46.77,10.87,1.18,16.31a17.59,17.59,0,0,0,.46,2.11.83.83,0,0,0,.23-.78c-.16-1.52-.34-3-.46-4.57-.17-2.31-.29-4.63-.44-6.94a51.47,51.47,0,0,1-.41-6.77c.34-4.93,1.17-9.81,1.84-14.7A9.75,9.75,0,0,1,4.28,3.3,1.15,1.15,0,0,1,6,2.64a26.28,26.28,0,0,0,6.88,1,19.81,19.81,0,0,0,4.42-.16c.54-.08,1.07-.26.59-1-1-.21-2.08.13-3.06-.35h-.71c-.09.25-.19.25-.28,0l-.38,0a6.53,6.53,0,0,1-3.1-.28l-1-.09A40.07,40.07,0,0,1,4.21,1.1,13,13,0,0,1,.07.27"/></g></g></svg>