<svg xmlns="http://www.w3.org/2000/svg" viewBox="0 0 21.89 50.56"><defs><style>.cls-1{fill:none;stroke:#000;stroke-miterlimit:10;stroke-width:0.56px;}</style></defs><g id="Layer_2" data-name="Layer 2"><g id="Layer_1-2" data-name="Layer 1"><path class="cls-1" d="M13.26,12.91c.5-2.38,1.18-4.71,1.76-7.08.13-.52.55-1.2-.06-1.56S14,4.7,13.62,5C10.47,7.43,7.39,10,3.67,11.48a7,7,0,0,1-2.47.6c-.89,0-1.15-.34-.71-1.15A8.93,8.93,0,0,1,2.42,8.57,43.93,43.93,0,0,1,7,5.38c4.08-2.7,8.9-3.17,13.42-5a20.62,20.62,0,0,1,.93,5.9c.08,5.62.21,11.23.27,16.85A19.19,19.19,0,0,1,20.7,29a54.27,54.27,0,0,0-1.13,6,88.35,88.35,0,0,1-2.28,9.78,16.8,16.8,0,0,1-1.23,2.61,6.16,6.16,0,0,1-3.75,2.74c-1.31.47-2.12,0-2.72-1.31a6,6,0,0,1-.51-2.14C9,45.57,9,44.49,8.88,43.41"/></g></g></svg>