<svg xmlns="http://www.w3.org/2000/svg" viewBox="0 0 148.53 220.87"><defs><style>.cls-1{fill:none;stroke:#000;stroke-miterlimit:10;stroke-width:0.56px;}</style></defs><g id="Layer_2" data-name="Layer 2"><g id="Layer_1-2" data-name="Layer 1"><path class="cls-1" d="M77.23,219.79q-3.58.15-7.12.64c-.37,0-.75.35-1.22,0a45,45,0,0,1,1.79-6.09,60.82,60.82,0,0,0,2-6.33,89.33,89.33,0,0,1,3.25-11.62c2.51-7.18,4.68-14.47,6.94-21.72,1.84-5.88,3.23-11.89,5.07-17.77.42-1.35.68-1.49,2.07-1.29,2.53.36,4.86,1.53,7.4,1.81a2.56,2.56,0,0,1,.79.33c3.77,1.93,7.89,3.17,11.42,5.6,0,0,.16-.07.33-.16a24.38,24.38,0,0,0-4-2.81,66.58,66.58,0,0,0-10.45-4.13c-1.62-.45-3.14-1.16-4.9-1.13-1.29,0-1.57-.52-1.23-1.77.67-2.44,1.75-4.73,2.35-7.19.37-1.52,1.15-2.93,1.53-4.45A68.11,68.11,0,0,1,96,133.4c.83-2.15,1.53-4.35,2.37-6.49,1-2.62,1.54-5.4,2.59-8a1.25,1.25,0,0,0-.29-1.45c-.32,2.36-1.36,4.19-1.8,6.22a57.69,57.69,0,0,1-2.33,6.9c-1,2.89-2.21,5.7-3.21,8.58-1.56,4.5-3,9-4.53,13.56-.51,1.54-.54,1.57-2.15,1.33a44.87,44.87,0,0,0-12.73,0c-2.89.39-5.55,1.5-8.31,2.29-1.89.54-3.67,1.49-5.53,2.16a62,62,0,0,0-7,3.11,62.35,62.35,0,0,0-7.74,4.6,69.43,69.43,0,0,0-11.15,9.46A85.19,85.19,0,0,0,23.62,189.4a68.65,68.65,0,0,1-7.32,9.36A5.92,5.92,0,0,1,12,200.91a2.31,2.31,0,0,1-2.33-2,56.5,56.5,0,0,0-1.81-8c-1-2.75-1.14-5.66-1.58-8.5a47.5,47.5,0,0,0-1.76-9c-.74-2.08-.66-2.1,1.42-2.54a4.59,4.59,0,0,0,.48-.17c1.55-.52,1.64-.79.81-2.31-.9,1.51-.91,1.48-3,2.06-.76.21-1.07-.06-1.18-.72-.2-1.1-.37-2.21-.54-3.32a6.64,6.64,0,0,1-.37-1.65,27.92,27.92,0,0,0-.72-6.57,89.64,89.64,0,0,1-1.09-10,38.71,38.71,0,0,1,.48-8.88,82.51,82.51,0,0,0,1-11.52,10.12,10.12,0,0,1,.09-2.9,10.72,10.72,0,0,1,4.21.57,5.07,5.07,0,0,0,1.83.32,20.43,20.43,0,0,1,8.61,1.68c4.75,2.14,9.46,4.4,13.54,7.76,2.62,2.17,5.4,4.15,7.41,7a5.93,5.93,0,0,0,3.15,2.21,4.94,4.94,0,0,1,1.64.89c3.55,2.85,7.35,3.16,11.47,1.3a24.75,24.75,0,0,0,7.68-4.85,13.35,13.35,0,0,1,2.48-2.08,22.87,22.87,0,0,0,3.57-2.81c3.06-2.83,5.07-6.34,7-9.93.6-1.12.7-2.4,1.34-3.47a4.69,4.69,0,0,0,.54-3.43,3.87,3.87,0,0,1,.06-1.66c.41-2,1.1-4,.65-6.11a4.24,4.24,0,0,1,0-1.18c.06-.86.24-1,1.05-.71,1.24.44,2.47.9,3.95,1.44a16,16,0,0,0-4-2,2,2,0,0,1-1.49-1.76,41.4,41.4,0,0,0-3.24-9.47c-.41-.91-1.31-1.44-1.76-2.36a18.94,18.94,0,0,0-1.67-2.87c-.54-.72-1.27-1.19-1.8-1.9a17,17,0,0,0-4.31-4.07c-.84-.54-1.74-1-2.59-1.54-1.53-1-3.18-1.86-4.81-2.72a45.23,45.23,0,0,0-7-2.77A3.2,3.2,0,0,1,46.94,78a7.54,7.54,0,0,0-.12-.83c-.47-1.4,0-2.82-.12-4.23a37.68,37.68,0,0,1,.42-9,15.72,15.72,0,0,1,.83-3.8q1.83-4.43,3.61-8.86a19.18,19.18,0,0,1,4.79-6.62c2.51-2.43,4.89-5,7.52-7.33s4.5-5.5,7.61-7.44c2.1-1.32,3.93-3.15,6.32-4,1.35-.46,2.22-1.76,3.72-1.85,1.74-1.48,3.74-2.6,5.6-3.92,2.74-1.93,5.62-3.6,8.51-5.29A50.21,50.21,0,0,1,101.75,12c1.24-.52,2.27-1.48,3.59-1.72,2.92-.54,5.45-2.36,8.48-2.52,2.57-1.46,5.63-1.33,8.27-2.59a8.51,8.51,0,0,1,2.77-.71c3.17-.34,6.28-1,9.41-1.55,2.11-.35,4.19-.88,6.28-1.34a38.92,38.92,0,0,1,7.62-.6c-.1-.37-.57-.32-.73-.64a33.77,33.77,0,0,0-8,.6c-3.51.68-7,1.23-10.56,1.86-1.34.25-2.7.16-4,.46-3.26.72-6.43,1.74-9.62,2.68-2.29.68-4.57,1.4-6.82,2.19-1.48.53-2.94,1.15-4.38,1.75-1.75.72-3.43,1.64-5.18,2.39a29.56,29.56,0,0,0-4.58,2.17c-3.07,2-6.37,3.65-9.31,5.86a38.72,38.72,0,0,1-7,4.18,28.26,28.26,0,0,0-4.84,2.72,33.42,33.42,0,0,1-4.36,3.29,1.78,1.78,0,0,0-.6.59,35.07,35.07,0,0,1-4.82,5.43C61.56,38.14,60,40,58.19,41.59a17.72,17.72,0,0,0-4.1,4.19c-.63,1-1.74,1.62-2.25,2.66-1,2-2,3.93-2.83,6s-1.91,3.81-2,6c-1,1.15-.71,2.66-1.08,4-.67,2.4-.45,4.85-.46,7.29s-.26,4.94.79,7.28c0,.09.17.21.14.26s-.26.13-.41,0c-4.76-1-9.59-1.41-14.41-2.06-.09-.69.17-1.37-.07-2-.35-1-4.22-3.38-5.27-3.23a11.35,11.35,0,0,1-5.94-.88,13.25,13.25,0,0,0-3.93-.85,12.81,12.81,0,0,1-2.28-.31,5.63,5.63,0,0,1,.16-1.81c.58-1.51,1-3,1.5-4.61a42.25,42.25,0,0,1,2.95-7.3,6.41,6.41,0,0,0,.87-3.88c-.14-.94-.53-1-1.31-.77a3.71,3.71,0,0,1,0,3.88,74.76,74.76,0,0,0-4.58,12.07"/></g></g></svg>