<svg xmlns="http://www.w3.org/2000/svg" viewBox="0 0 102.91 73.55"><defs><style>.cls-1{fill:none;stroke:#000;stroke-miterlimit:10;stroke-width:0.56px;}</style></defs><g id="Layer_2" data-name="Layer 2"><g id="Layer_1-2" data-name="Layer 1"><path class="cls-1" d="M47.55,67.39a25.84,25.84,0,0,0-4.51,3c-.85.67-1.68.45-1.8-.61-.31-2.74-2.41-4.14-4.21-5.7a4.56,4.56,0,0,0-4.25-.62,40.64,40.64,0,0,0-5.59,2,18.12,18.12,0,0,0-6.9,5.63c-.48.62-1,1.23-1.56,2A16.12,16.12,0,0,1,16,68.39c-1.54-3.47-3-7-4.45-10.47-.48-1.16-1.29-2.12-1.86-3.24a62.7,62.7,0,0,1-2.63-6.82c-1.76-4.78-3.55-9.55-4.86-14.47A66.65,66.65,0,0,1,.35,22.16,16.8,16.8,0,0,1,5.19,8.82C5.8,8.17,6.57,7.6,6.45,6.53c0-.44.36-.7.64-1A69.89,69.89,0,0,1,12.61.77a2.94,2.94,0,0,1,.58-.36c.25-.13.54-.23.76.05s.06.44-.06.62c-.27.43-.58.83-.86,1.26-1.87,2.91-3.9,5.72-5.14,9a12.09,12.09,0,0,0-.7,2.8,4.11,4.11,0,0,0,1.19,3.43,3.37,3.37,0,0,0,4.63.37,28.35,28.35,0,0,0,4.91-4.38,4.77,4.77,0,0,1,4.58-1.82c2.46.39,4.88,1.18,7.38,1.17a25.85,25.85,0,0,1,7.51,1.3A9,9,0,0,1,42,17.31a2.69,2.69,0,0,1,.21,3.17c-.38.47-.89.85-.33,1.38s1.18,1,2,.61c.62-.31,1.27-.48,1.89-.75a10.3,10.3,0,0,1,4.69-.59c2.06.09,2.93,1.28,2.48,3.29-.3,1.37-.75,2.69-.3,4.17a2.45,2.45,0,0,0,1.79,1.77,10.66,10.66,0,0,0,5.55.1c2.94-.59,5.86-1.32,8.81-1.86A27.4,27.4,0,0,1,79,28.24a3.51,3.51,0,0,1,3,2.86A17,17,0,0,1,82.51,35a12.49,12.49,0,0,0,1.07,4.61c1.21,2.82,3,3.55,5.87,3.18a21.35,21.35,0,0,0,7.45-2.28c.89-.48,1.87-.82,2.81-1.22a5.68,5.68,0,0,0,1.39-.63,9.81,9.81,0,0,1,1.68-1.15"/></g></g></svg>