<svg xmlns="http://www.w3.org/2000/svg" viewBox="0 0 97.74 63.03"><defs><style>.cls-1{fill:none;stroke:#000;stroke-miterlimit:10;stroke-width:0.56px;}</style></defs><g id="Layer_2" data-name="Layer 2"><g id="Layer_1-2" data-name="Layer 1"><path class="cls-1" d="M97.52,24.32c-1.83,2.47-2.87,5.41-4.75,7.85a3.75,3.75,0,0,1-1.35,1.22,54.74,54.74,0,0,0-6.12,3.67,7.06,7.06,0,0,0-2.1,2c-1.37,2-3.27,3.63-4.77,5.55a43.32,43.32,0,0,1-3.24,3.93,2.1,2.1,0,0,0-.52,1,12.57,12.57,0,0,1-2.78,5.2,1.78,1.78,0,0,0-.21.27c-1.38,2.74-3.92,3.95-6.56,5.07A35.66,35.66,0,0,1,60.22,62a18.84,18.84,0,0,1-6.38.66,37.47,37.47,0,0,0-4.74,0,5.26,5.26,0,0,1-4-1.75c-1.21-1.19-2.51-2.28-3.76-3.42-2.13-2-4.17-4-6.29-6s-3.81-4.19-6.21-5.74a1.11,1.11,0,0,1-.54-.81c-.49-3.61-1.5-7.14-1-10.9a8.85,8.85,0,0,0-.88-5.79c-.65-1.12-.37-2.57-.89-3.79-.13-.31-.11-.69-.26-1-1.65-3-2.48-6.46-4.53-9.3a3.22,3.22,0,0,1-.53-.86c-.83-2.56-2.76-4.37-4.29-6.46a15.74,15.74,0,0,0-4.46-4.62C7.86.18,4.06-.53.12,1.43"/></g></g></svg>