<svg xmlns="http://www.w3.org/2000/svg" viewBox="0 0 164.5 128.33"><defs><style>.cls-1{fill:none;stroke:#000;stroke-miterlimit:10;stroke-width:0.56px;}</style></defs><g id="Layer_2" data-name="Layer 2"><g id="Layer_1-2" data-name="Layer 1"><path class="cls-1" d="M110.25,23.7c1.57-1.69,3-3.48,4.59-5.21a5.44,5.44,0,0,1,1-.94,36,36,0,0,0,4.91-3.78,7.82,7.82,0,0,1,1.41-.93,37.52,37.52,0,0,0,4-2.3,35,35,0,0,1,7-3.87,36.62,36.62,0,0,1,3.51-1.58,39.35,39.35,0,0,0,4.41-1.37c.59-.27.85-.94,1.49-1,2.16-.22,4.09-1.35,6.19-1.69,5.11-.83,10.24-1.2,15.37.13-.55,1.91-1.41,3.73-1.8,5.73a8.82,8.82,0,0,1-.89,3,14.38,14.38,0,0,0-1.64,4.26c-.9,3.2-1.95,6.35-2.79,9.56-1.11,4.22-2.53,8.33-3.84,12.47-1.24,3.88-2.55,7.74-3.68,11.66-.83,2.89-1.34,5.87-2.39,8.71a13.83,13.83,0,0,0-.71,1.85A71.6,71.6,0,0,1,144,66c-.55,1.63-.89,1.83-2.52,1.85-.5,0-1-.16-1.51.12-2.35,1.45-5.06,1.82-7.63,2.61-.47.15-1,.27-1.41.43-1.76.57-3.23,1.71-4.93,2.4-.81.32-1.44,1-2.39.26-.38-.31-.86.14-1.2.37a3.47,3.47,0,0,1-3.22.48,5.48,5.48,0,0,0-1.35-.14c-2.54-.1-5.1,0-7.63-.12-2.08-.1-4.17-.49-6.26-.54-5.36-.14-10.55-1.54-15.89-1.9-3.85-.26-7.65-1-11.51-1.2-1.12,0-2-.24-2.35-1.48-.2-.66-.49-1.44-1.52-1.31-.11,0-.3-.22-.2-.44a.17.17,0,0,1-.23,0,59.58,59.58,0,0,0-4.78-4.06,9.2,9.2,0,0,0-4.57-2,18.06,18.06,0,0,1,5.65,3.59c1.77,1.45,3.75,2.78,4.36,5.23a1.92,1.92,0,0,1-1.37.19c-2.71-.3-5.42-.58-8.12-.9-1.19-.14-1.19-.18-1.12,1.09A32.08,32.08,0,0,1,62,76.08c-.82-.7-.08-2-1.2-2.36-.42.22-.29.59-.36.91-.26,1.23.44,2.32.5,3.5.11,2.05-.09,4.09,0,6.13A10.3,10.3,0,0,1,60.5,88a17.48,17.48,0,0,1-5.8,8.23,5.08,5.08,0,0,1-4.22.9c-3.11-.48-6.55-4-7.24-6.82a7.64,7.64,0,0,0-.6-1.72,13,13,0,0,1-1-8.63,18.11,18.11,0,0,1,2.48-7,29.84,29.84,0,0,1,3.07-4.48,3,3,0,0,1,.79-.6,1.18,1.18,0,0,1,.23-.57,13.23,13.23,0,0,1,4.57-4.23.32.32,0,0,1,.39-.26l.06,0a.71.71,0,0,0-.1-.7,3.43,3.43,0,0,1-.78.62,10,10,0,0,0-5,4.24,1.65,1.65,0,0,1-1.46,1c-2,0-4,0-6.06,0s-3.74-.31-5.61-.41a17.3,17.3,0,0,1-5.8-.78c-.42-.17-.73.06-1,.57a26.48,26.48,0,0,0-1.4,4,44.62,44.62,0,0,1-4,8.16,75.08,75.08,0,0,1-6.28,8.44c-1.23,1.43-2.7,2.53-4,3.86Q6.45,97.4,1.06,103c-1,1-1.1,1.27,0,2.09,1.69,1.28,3.05,2.88,4.6,4.29,2.19,2,4.76,3.44,7.09,5.23a6.85,6.85,0,0,0,2.8,1.43.84.84,0,0,1,.91.45,41.19,41.19,0,0,1,4.67,2.64,14.94,14.94,0,0,0,3.3,1.69,43.08,43.08,0,0,1,4.66,1.54c3.72,1.33,7.3,3,11.17,4a77.3,77.3,0,0,0,7.64,1.72"/></g></g></svg>