<svg xmlns="http://www.w3.org/2000/svg" viewBox="0 0 31.11 24.03"><defs><style>.cls-1{fill:none;stroke:#000;stroke-miterlimit:10;stroke-width:0.56px;}</style></defs><g id="Layer_2" data-name="Layer 2"><g id="Layer_1-2" data-name="Layer 1"><path class="cls-1" d="M30.52,6.64a1.44,1.44,0,0,1,.28,1.15,45.57,45.57,0,0,1-7.47.32,5.87,5.87,0,0,1-1.66-.31,25,25,0,0,0-6.28-1.33,2.61,2.61,0,0,0-1,.08.79.79,0,0,0-.65.71c0,.47.36.48.67.61.61.26,1.24,0,1.85.07,1.29.18,2.59.34,3.88.55a50.22,50.22,0,0,0,8.67.27,5.86,5.86,0,0,1,.63.06c.27.51-.18.61-.4.82-4.75,4.5-10.54,7.43-16.21,10.53A34.9,34.9,0,0,1,1.72,23.73a8,8,0,0,1-.85,0c-.6,0-.64-.34-.55-.78a2.87,2.87,0,0,1,.23-.64c1.65-3.51,2.5-7.28,3.62-11C5.24,7.86,6.53,4.42,7.82,1A.9.9,0,0,1,9,.31c.55.11,1.12.15,1.67.3a41.23,41.23,0,0,0,8.2,1.08,4,4,0,0,1,1.51.24A19.54,19.54,0,0,0,26.29,3.3"/></g></g></svg>