<svg xmlns="http://www.w3.org/2000/svg" viewBox="0 0 22.91 16.94"><defs><style>.cls-1{fill:none;stroke:#000;stroke-miterlimit:10;stroke-width:0.56px;}</style></defs><g id="Layer_2" data-name="Layer 2"><g id="Layer_1-2" data-name="Layer 1"><path class="cls-1" d="M20.22,14.34c-.18.66-.69,1.18-.76,1.89a.48.48,0,0,1-.62.42c-1.28-.21-2.56-.45-3.84-.66-.43-.07-.64-.34-.47-.71.6-1.34.75-2.86,1.54-4.13,1.45-2.31,3-4.57,4.35-6.92.69-1.18,1.76-2.18,2.1-3.76a3.81,3.81,0,0,0-1.85,1.88c-1.39,2.53-3.19,4.8-4.56,7.37-.93,1.76-2.09,3.38-2.32,5.42,0,.43-.31.57-.7.56a11.72,11.72,0,0,1-1.19,0,34.28,34.28,0,0,0-7.64-.25L0,15.67"/></g></g></svg>