<svg xmlns="http://www.w3.org/2000/svg" viewBox="0 0 60.29 15.02"><defs><style>.cls-1{fill:none;stroke:#000;stroke-miterlimit:10;stroke-width:0.56px;}</style></defs><g id="Layer_2" data-name="Layer 2"><g id="Layer_1-2" data-name="Layer 1"><path class="cls-1" d="M46.81,12.39l-11.48.93H35a43.21,43.21,0,0,0-8.1.74c-3,.48-6,.19-9,.4a8.17,8.17,0,0,0-.85,0,19.21,19.21,0,0,1-6.93-.07A32.71,32.71,0,0,0,6,14a9.22,9.22,0,0,1-4.67-1.87,3.37,3.37,0,0,1-.81-.87A1,1,0,0,1,.68,9.78,19.63,19.63,0,0,1,4.66,7a12.87,12.87,0,0,0,4.05-2.6,2.42,2.42,0,0,1,1.16-.69c2-.51,3.82-1.31,5.82-1.64a.47.47,0,0,0,.17,0c.55-.37.91.59,1.33.25a4.23,4.23,0,0,1,1.75-.59c.6-.15,1.21-.31,1.82-.44A31.08,31.08,0,0,1,30.35.37C34.64.77,38.88,1.51,43.16,2a29.89,29.89,0,0,0,6.62.21,23.71,23.71,0,0,1,5.77.13c1.24.17,2.5.14,3.74.19.7,0,.87.28.58,1-.92,2.25-2,4.46-2.7,6.79a1,1,0,0,1-.81.7,41.7,41.7,0,0,1-9.55,1.38"/></g></g></svg>