<svg xmlns="http://www.w3.org/2000/svg" viewBox="0 0 55.68 83.39"><defs><style>.cls-1{fill:none;stroke:#000;stroke-miterlimit:10;stroke-width:0.56px;}</style></defs><g id="Layer_2" data-name="Layer 2"><g id="Layer_1-2" data-name="Layer 1"><path class="cls-1" d="M0,1.09a2.12,2.12,0,0,1,2.11,2C2.62,6,3.21,8.86,3.66,11.77c1,6.42,2.13,12.81,3.66,19.12.08.33,0,.74.24,1C8.88,33.58,9,35.71,9.39,37.66a63.71,63.71,0,0,0,2.17,7.85c.42,1.23.75,2.49,1.19,3.72a30.21,30.21,0,0,1,.82,4,80.11,80.11,0,0,0,1.79,8.21c.64,2,.95,4.08,1.52,6.09.91,3.27,1.91,6.52,2.88,9.78.25-.11.19-.39.31-.57a30.8,30.8,0,0,0-1.14-3.88c-.9-3.67-1.8-7.34-2.65-11-.94-4.08-1.76-8.19-2.74-12.26-.74-3-1.89-6-2.55-9.08-.42-2-1.27-3.91-1.42-5.9-.33-4.48-2.16-8.61-2.7-13-.23-1.91-.77-3.78-1.13-5.67C5.08,12.3,4.46,8.74,3.82,5.18a18.05,18.05,0,0,1-.55-2.31c0-1.11-.07-1.09,1.08-1.12,3.23-.09,6.46-.36,9.68-.68A106.78,106.78,0,0,1,25.75.28c2.29,0,4.5.61,6.76.81,1.63.15,1.65.24,1.47,1.91-.32,2.94-.64,5.87-.7,8.83-.08,4.26-.11,8.52-.27,12.78-.16,4.6-.59,9.19-.64,13.79-.07,6.7-.47,13.39-.32,20.1.13,5.56-.33,11.13-.52,16.69-.08,2.29-.5,4.58-.15,7,.87-2.6.62-5.23.95-7.79.43-3.26.5-6.56.69-9.85.31-5.47.11-11,.25-16.42.09-3.52,0-7,.16-10.57C33.9,28.37,34,19.19,34,10c0-2.38.22-4.75.4-7.13C34.5,1.61,34.8,1.38,36,1.5c.73.07,1.46.21,2.19.33,5.9.94,11.58,2.8,17.4,4.11"/></g></g></svg>