<svg xmlns="http://www.w3.org/2000/svg" viewBox="0 0 16.21 43.55"><defs><style>.cls-1{fill:none;stroke:#000;stroke-miterlimit:10;stroke-width:0.56px;}</style></defs><g id="Layer_2" data-name="Layer 2"><g id="Layer_1-2" data-name="Layer 1"><path class="cls-1" d="M16.14.27A41.18,41.18,0,0,0,5.57,5,16.41,16.41,0,0,0,.72,9.69c-.31.43-.67.94-.24,1.55A1.64,1.64,0,0,0,2.23,12a17.87,17.87,0,0,0,7-2.78,5.87,5.87,0,0,0,1.78-1.55,5.87,5.87,0,0,1,3.14-2.08c.3.39.06.77,0,1.14-.52,2-1.2,4-1.56,6.09-.66,3.73-1.58,7.42-1.52,11.28,0,2.5-.84,4.91-1.42,7.34a25.59,25.59,0,0,0-.93,9.09,25.84,25.84,0,0,1,0,3"/></g></g></svg>