<svg xmlns="http://www.w3.org/2000/svg" viewBox="0 0 206.68 131.33"><defs><style>.cls-1{fill:#2c2a26;}</style></defs><title>Asset 32a4</title><g id="Layer_2" data-name="Layer 2"><g id="Layer_1-2" data-name="Layer 1"><path class="cls-1" d="M198.15,32.57c.78,2.82,3.75,3.72,5.07,6.65A15.73,15.73,0,0,1,189.9,36c-11.2-8.63-22.8-16.3-37-19.27-14.76-3.09-29.76-3-44.69-4a148.49,148.49,0,0,0-21.92-.2,83.92,83.92,0,0,0-21.25,5A102.51,102.51,0,0,0,44.21,28c-7.71,4.93-13.4,11.49-16.43,20.32S22.29,66,19.61,74.81c-3.23,10.66-5.45,21.65-9.31,32.05-3,8.13-5.75,16.33-8.06,24.47C.15,129.73,0,127.51,0,125.22c.15-6.25.27-12.49.47-18.73.08-2.47,1.9-4.42,2.19-6.92.17-1.54,1-3.18.44-4.6-1.44-3.68-.61-7.25.32-10.73C4.71,79.49,4.57,74.6,5.26,69.8c2.08-14.62,6.77-28,16.46-39.36A76.89,76.89,0,0,1,53.12,8.65c4.06-1.56,8.2-2.9,12.29-4.4C77.48-.19,90.07-.29,102.63.19c12.2.47,24.39,1.34,36.56,2.35,23.28,1.92,44.15,9.75,61.46,25.92a14.53,14.53,0,0,0,6,3.2C203.73,33.8,200.89,31.58,198.15,32.57ZM52.68,18c-.49.49-.34-.49-.39.21a.81.81,0,0,0,0,.29c.37,0,.45-.22.25-.58a.79.79,0,0,0,1.27-.15.48.48,0,0,0-.08-.45C53.17,17.09,52.84,17.4,52.68,18Zm123,1a4,4,0,0,0-2.05-2.26,80.8,80.8,0,0,0-29.24-9.19C129.38,5.63,114.17,5.74,99,5,85.44,4.24,72.73,7.37,60.54,13c-1.14.53-2.68.76-3.07,2.87L70,12c9.39-2.92,19-4.56,28.71-3.92,15.6,1,31.25.84,46.8,2.78a89.78,89.78,0,0,1,14.27,2.9C165,15.31,170.19,17.16,175.72,19Z"/></g></g></svg>