<svg xmlns="http://www.w3.org/2000/svg" viewBox="0 0 148.74 130.03"><defs><style>.cls-1{fill:#2c2a26;}</style></defs><title>Asset 33a6</title><g id="Layer_2" data-name="Layer 2"><g id="Layer_1-2" data-name="Layer 1"><path class="cls-1" d="M5.15,129.94c1.67-2.19,3.4-2.24,4.82-2.47,12.22-2,24.54-3.71,36.92-2.94,16.7,1,30.4-6.12,43.75-14.66a3.17,3.17,0,0,0,1.73-2.54c-1.5-1.17-2.57.14-3.6.81-6.48,4.22-13.63,7-20.73,9.87a46.46,46.46,0,0,1-19.89,3.66c-11.68-.53-23.31.26-34.95,1.12-4.13.3-8.29.23-13.2,1,2.78-3.82,6-4.46,9.65-5,8.23-1.17,16.57-1.36,24.81-2.7a29.89,29.89,0,0,1,9.44,0,30.51,30.51,0,0,0,13.82-.79C71.56,111.58,84,105.15,94.55,95.35a83.75,83.75,0,0,0,16.37-20.21c3.67-6.59,7.86-12.87,11.8-19.29a54.3,54.3,0,0,0,6.87-15.15,62.26,62.26,0,0,1,3.3-10.09c2.15-4.84,2.52-10.12,2.72-15.34a39.31,39.31,0,0,1,.95-7.76,10.34,10.34,0,0,1,5-6.34C143.9-.27,146-.39,148.74.85c-2.44,3.82-1.37,8.2-1.37,12.3,0,16.53-5.25,31.5-12.74,45.81a236.15,236.15,0,0,1-22.07,34.21c-11.11,14.46-25.72,24.15-42.69,30.52-7.69,2.89-15.46,5.68-23.81,4.55-10.27-1.38-20.33.62-30.47,1.23C12.34,129.66,9.11,130.25,5.15,129.94Zm97.7-32.47a1.38,1.38,0,0,0-1,1.12c-.22.37-.7.94-.6,1.07.59.76,1,0,1.49-.29l.81-1.18,1.26-1c.27-.36.64-.81.19-1.17s-.81,0-1,.46A1.44,1.44,0,0,0,102.85,97.47Zm-7.49,8.24c.49-.49,1.81-.74,1-1.67-.61-.73-1.41.15-2,.6a11.13,11.13,0,0,0-1.66,1c-.42.38-1.13.86-.49,1.57s1.23.15,1.73-.19A11.46,11.46,0,0,0,95.36,105.71Z"/></g></g></svg>