<svg xmlns="http://www.w3.org/2000/svg" viewBox="0 0 151.32 167"><defs><style>.cls-1{fill:#2c2a26;}</style></defs><title>Asset 34a7</title><g id="Layer_2" data-name="Layer 2"><g id="Layer_1-2" data-name="Layer 1"><path class="cls-1" d="M6.16,167c.42-4.34,1.23-7.94.62-11.92C2.9,157.43,4.68,162.62,1,165a6.46,6.46,0,0,1-.91-4.82c.6-4.84,1.11-9.69,1.78-14.53a22.43,22.43,0,0,1,2.3-7.39,34.81,34.81,0,0,0,2.1-6.43A171.52,171.52,0,0,1,18.89,99c2.17-4.13,3.54-8.69,5.21-13.08a69.35,69.35,0,0,1,6.39-13.14c2-3,4.08-6,4.94-9.7A12,12,0,0,1,38,58.54c4.79-6,9.62-11.95,14.57-17.81,2.89-3.43,3.12-4.88.36-8.66-4.59-6.27-9.14-12.48-11.11-20.26-.65-2.54-3.14-4.49-3.11-7.54,0-1.55-.72-3.52,1.12-4a4.33,4.33,0,0,1,4.76,1.29C46.5,4,49.05,5.9,51,8.36c4.88,6.09,9.76,12.18,14.52,18.91,7.56-6.61,14.3-13.85,25.07-16.47a13.3,13.3,0,0,1-5,4.22,59.46,59.46,0,0,0-15.57,13,14.3,14.3,0,0,0-1.61,2,2.16,2.16,0,0,0,.67,2.8c.79.7,1.59,0,2.23-.6,2.86-2.81,5.69-5.65,8.59-8.41,3.7-3.53,8.27-5.45,13.13-7.35-.09,2-1.46,2.31-2.4,2.93-6.28,4.19-11.61,9.43-16.92,14.74-2.16,2.17-2.18,3.82-.49,6.32,2.53,3.74,4.53,7.84,6.84,11.74a32.49,32.49,0,0,0,7.74,9.13c2.58,2,3.75,1.84,5.47-1a41.27,41.27,0,0,0,4.15-7.81c1.86-5.33,5.45-9.32,9.34-13.06,6.54-6.28,13.34-12.26,21.3-16.73,6.92-3.89,14.11-3.61,21.6-1.15l-5.54,2.59A23.33,23.33,0,0,0,151.32,26c-3.39,1.76-7.24,2.21-10.95,3a28.73,28.73,0,0,0-11.32,5.14c-6.47,4.74-12.68,9.78-17.82,16-3.13,3.77-4.84,8.41-7.12,12.69-2.7,5.08-5.42,10.19-10.92,12.9-4.12,2-8.26,4.37-12-.74-.68-.94-2-.54-2.9-.94-2-.9-4.3-1.74-4.91-4.23S70.4,66,69,64a64.1,64.1,0,0,1-7.49-14.88c-.9.36-1.49.42-1.76.74A161.17,161.17,0,0,0,40.06,78.71c-5.63,10.66-9.46,22.08-14.65,32.9-2.78,5.82-5,11.83-7.38,17.8a247.91,247.91,0,0,0-10.81,35.3A15.12,15.12,0,0,1,6.16,167Zm16.07-57.86c.32.42.3.56-.05.35,0,0,.06-.29.1-.44l.36-.18C22.5,109,22.36,109,22.23,109.14ZM7.86,149.33c1.27-.44,1-1.8,1.63-2.66.36-1.37,1.15-2.73.11-4.2-1.11.94-1.07,2.15-1.17,3.32A5.7,5.7,0,0,0,8,149.4c-1.41,1-2.16,2.16-.77,3.92A4.2,4.2,0,0,0,7.86,149.33Zm126.54-123A11.72,11.72,0,0,0,127.35,28,95.16,95.16,0,0,0,111,40.93a17.7,17.7,0,0,0-3.37,4.61c-4,8.15-7.85,16.38-14.83,22.57-.5.45-1,1-.38,1.74a1.68,1.68,0,0,0,1.92.42,7.32,7.32,0,0,0,3.53-3c1.5-2.35,3.22-4.54,4.28-7.17,3.59-9,9.82-15.83,17.11-22A173.73,173.73,0,0,1,134.4,26.31ZM32.18,85.57c2-1.34,2.35-3.14,3.19-4.62,5.41-9.48,9.68-19.65,17.29-27.79A70.5,70.5,0,0,0,57.89,46c.68-.93,1-2.08,0-2.79-1.24-.9-1.76.53-2.38,1.24C46.77,54.32,41,66,35.11,77.68,34,80,32.62,82.24,32.18,85.57Zm-7.92,20.28A46,46,0,0,0,29,93.46C26.94,97.41,25,101.41,24.26,105.85Zm6.3-16.37c.68-.71,1.61-1.26,1-2.48C30.92,87.72,30.19,88.35,30.56,89.48Z"/></g></g></svg>