<svg xmlns="http://www.w3.org/2000/svg" viewBox="0 0 48.87 66.53"><defs><style>.cls-1{fill:#2c2a26;}</style></defs><title>Asset 25b1</title><g id="Layer_2" data-name="Layer 2"><g id="Layer_1-2" data-name="Layer 1"><path class="cls-1" d="M22.79,13.06a26.54,26.54,0,0,0-14.3,5.59,41.11,41.11,0,0,0-6,5.06c-.5.58-1.32.38-1.95.08C-.34,23.36,0,22.47.33,22c4-6.59,6.59-14.11,13.3-18.93C17.32.42,21.25-.07,25.42,0c2.26,0,3.54,2.1,5.2,3.3C36.4,7.48,41.53,12.17,45.25,18.5c5.71,9.73,4.32,19.08-1.78,27.43A55.5,55.5,0,0,1,17.2,65.83C14,67,14,67,12.36,63.6c-.66-1.42-1.49-2.77-2-4.23-1.08-2.77-.68-3.63,2.34-4.15,1.93-.33,2.94-.78,2.26-3s.59-3.26,2.54-3.7c7.1-1.63,11.16-6.94,13.55-13,2.64-6.67,2.43-13.69-2.8-19.65C26.47,14,24.58,12.68,22.79,13.06Z"/></g></g></svg>