<svg xmlns="http://www.w3.org/2000/svg" viewBox="0 0 20.76 50.46"><defs><style>.cls-1{fill:#2c2a26;}</style></defs><title>Asset 26b2</title><g id="Layer_2" data-name="Layer 2"><g id="Layer_1-2" data-name="Layer 1"><path class="cls-1" d="M12,45.8C9.7,44.22,9.36,42.41,8,41.8c-3.75,2-1.72,5.22-1.73,8.66A22.89,22.89,0,0,1,1,44.09c-1.5-2.65-1.41-5.05.58-7.16S4.27,32.49,5,30c.83-2.82,1.5-5.66,3.13-8.24,1.74-2.78,1.2-6.07,1.18-9.17,0-1.67-1.14-2.51-2.81-2.3-1.19.14-2.36.47-3.58.73-.28-1.14.5-1.86,1-2.65.82-1.27,2.31-1.41,3.53-2,1.73-.89-.58-2.29.36-3.7C9.61,0,11.75-.81,14.43.93a14.21,14.21,0,0,1,6.13,14.48,63.36,63.36,0,0,1-7,21.18C12.08,39.19,10.7,41.84,12,45.8Z"/></g></g></svg>