<svg xmlns="http://www.w3.org/2000/svg" viewBox="0 0 35.56 91.03"><defs><style>.cls-1{fill:#2c2a26;}</style></defs><title>Asset 27b3</title><g id="Layer_2" data-name="Layer 2"><g id="Layer_1-2" data-name="Layer 1"><path class="cls-1" d="M17.92,88.61c-2.58-1-3.32-3.19-5.58-3.4C10.83,86.82,12.13,89,11,91c-2.85-2.11-5.8-4.09-6.93-7.56C2.62,79,1.53,74.47.34,70a8.85,8.85,0,0,1,1.84-8.24c2.45-3.15,4.72-6.35,7.82-9a9.79,9.79,0,0,0,2.84-4.89c1.68-6.55,3.27-13.14,4.45-19.79a18.51,18.51,0,0,0-1.16-9.25c-.57-1.61-1.22-2.73-3.27-2.58-3.22.23-4.24-2.57-5.68-4.64-.86-1.25-.19-2.19,1-3A8.93,8.93,0,0,0,11.27,4c1.6-4.65,7-5.12,10.72-2,6.3,5.27,9.57,12.22,12,19.63,1.24,3.74,1.34,7.83,1.49,11.83C36.11,49,31.32,62.5,20.36,73.66c-1.93,2-3.09,3.9-2.82,6.87C17.77,83.06,17.25,85.67,17.92,88.61Z"/></g></g></svg>