<svg xmlns="http://www.w3.org/2000/svg" viewBox="0 0 39.81 63.5"><defs><style>.cls-1{fill:#2c2a26;}</style></defs><title>Asset 28b4</title><g id="Layer_2" data-name="Layer 2"><g id="Layer_1-2" data-name="Layer 1"><path class="cls-1" d="M0,17.91C1.37,11.8,5.62,7.4,9.29,2.7,11.19.28,14.25.11,16.94,0c16.72-.6,26,15.8,21.89,28.68A60,60,0,0,1,15,60.25c-2,1.38-5,1.15-7,3-.65.6-1.63-.16-2.2-.88A17.3,17.3,0,0,1,3.1,57.94a3,3,0,0,1,.72-3.67c4.27-4.93,9.07-9.35,13.41-14.17,5.63-6.25,9-13.7,7.89-22.46-.59-4.79-1.58-5.67-6.3-5.84-5.75-.21-11.06,1.09-15.65,4.77-.79.63-1.41,1.58-2.59,1.58C.42,18.15.27,18,0,17.91ZM25.72,8.75a4,4,0,0,0,3.84,1.41,1,1,0,0,0,.15-.86,3.32,3.32,0,0,0-4-1.05S25.72,8.54,25.72,8.75Z"/></g></g></svg>