<svg xmlns="http://www.w3.org/2000/svg" viewBox="0 0 702.44 664.8"><defs><style>.cls-1{fill:#010101;}</style></defs><title>Asset 2blob_1</title><g id="Layer_2" data-name="Layer 2"><g id="Layer_1-2" data-name="Layer 1"><path class="cls-1" d="M664.26,242.06a2.11,2.11,0,0,0,.75.61c1.52,2.16,1.19,5.34,3.59,6.94,4.29,2.86,4.35,6.68,2.8,10.95-.88,2.44-1.49,4.77,1.52,6.25a4.73,4.73,0,0,0,3,2.57c3.45,3.74,5.48,8.56,9.21,12.11,3.49,3.32,4.72,3.27,6.82-1,1.1-2.22,2.72-2.95,4.84-2.44s1.9,2.45,1.78,4.13c-.11,1.48,0,3.08-1,4.29-2,2.35-.74,3.85,1.45,4.43,2.94.78,3.63,2.69,3.4,5.21-.25,2.7-1.37,4.64-4.5,5.06-2.48.33-4.15,2.3-5,4.43-2.82,6.73-11.5,7.75-14,14.68-.08.2-.65.18-.9.37-7.29,5.36-15.8,9.26-20.71,17.44a1.4,1.4,0,0,0-.73.33c-8.16,1.48-12.71,7.52-17.21,13.61a1.77,1.77,0,0,0-.83.54c-4.59,1-8.43,3-10.07,7.79l-.19.25a3.74,3.74,0,0,0-3.09,2.32l0-.06c-3.8.87-8.15.69-10,5.26-7.1,4.59-15.31,7.05-22.33,11.87a16.71,16.71,0,0,1-8.45,2.8,26.53,26.53,0,0,0-13.25,3.48c-3,1.76-10.34-3.63-10.92-7.87-.82-6-5.66-11.1-4-17.65a1.56,1.56,0,0,0-.49-1.36c-5.18-2.67-4.64-9.18-8.67-12.73a9.65,9.65,0,0,1-3.52-6.93,5.2,5.2,0,0,0-3.78-4.87c-3.2-.67-4.78-3.22-7.13-4.69-5.6-3.49-5.59-8.75-5.85-14a35.1,35.1,0,0,0-4.21-14.43c-3.48-6.94-5.47-14.89-3.44-23,.7-2.76.75-5.07-1.36-7.38a71.82,71.82,0,0,1-5.22-7.17c.11-1.61-.2-2.93-2.14-3.13h0a2.52,2.52,0,0,1,2.68-.31c4.78,1.85,6.64.38,6.59-4.68,0-2.38-1.32-3.92-2.64-5.66-2.81-3.7-7.59-5.61-9.47-10-2.57-6-7.24-10.1-12.15-14-.2-.58-.39-1.16-.58-1.74-1-4.79-4.4-6.16-8.71-6.33l-1-1a5.25,5.25,0,0,0-1.21-3.71A196.17,196.17,0,0,0,463.94,190c-3.75-3.79-8-6.93-12.14-10.3-3.87-3.17-8.16-6.31-4.94-12.43.91-1.75,0-2.95-1.84-3.24-4.5-.75-7.22-4-9.91-7.13-3.29-3.85-8.09-5.34-12.11-4.12a32.29,32.29,0,0,1-11.65,1.68l-2.07-1.22c-1.36-2.91,2-6.55-1.58-9.21a77,77,0,0,1-6.22-5.64c-2.25-2.09-4.21-3.2-4.91,1.18-.41,2.59-2.17,3.48-4.3,2.38-3.17-1.64-6.76-1.46-9.94-2.83a.56.56,0,0,0-.43-.31c-1.12-2-3-3.07-4.84-4.13-9.86-5.67-21.57-5.54-31.81-10l-1.9-.27c-2.6-2.16-5.47-1.08-8.28-.68l-4.48-2c-.4-2.26-3.3-2.84-3.51-5.22-.53-6-6.68-9.54-11.79-6.54-1.73,1-3.1,1-3.51-.73-.69-3-3-3.58-5.3-4.55-6.75-2.81-14.17-3.1-21-5.65-.71-.27-2.21-.27-2.34,0-2.33,5.38-4.29,1.19-6.33-.18a4.36,4.36,0,0,0-3.31-.81c-4.47.84-9-.18-13.41.32-5.2.59-10.94-.69-16,3.68,3.18,1.32,4.87,4.44,8.77,3.06,6.32-2.23,8.82-1.37,12.6,4.2,2.2,3.24,4.91,4.75,8.79,4l1.63.79c0,.49.17.61.6.43a.83.83,0,0,0,.46.42c.74,5.17,2.86,5.89,8,2.74l5.66.55.51.55c3.27.9,6.36,2.44,9.82,2.63.68,3,3.33,2.16,5.25,2.74l1.17,1.09c-.07,1.68,1.63,3.27-.26,5.08s-.22,3.86,1.41,4c4.66.5,7.67,3.6,11.31,5.85,2.84,1.77,5.78,4,9.57,3.61l.25.21c.22,3,1.09,5.22,4.8,4.26l4.56,2.15c1.19,1.86,2.66,1.81,4.29.62l2.17.08a7.83,7.83,0,0,0,4.91,1.72c3.34,3.71,5.59,8.61,11.07,10,.78.2,1.76.53,1.71,1.55a1.93,1.93,0,0,1-2.09,1.74c-3.81.18-7.63.47-11.44.31-2.08-.09-4.95-.55-5.33-2.94-.85-5.35-5.47-7.19-8.62-10.41-1.16-2.54-3-3.26-5.5-2l-4.47-.08a3.15,3.15,0,0,0-3.4-.6l-.2,0c-2.58-2.32-5.92-3.27-8.82-5l-.14-.15c-2.63-3.27-7.14-3.78-9.94-6.79l-.1-.15c-2-2.92-5.07-2.68-8.06-2.66l-2.15-1.14c-1.86-2.94-4.17-2.92-6.77-1-1.71-1.06-3.53-.66-5.33-.39-1.91-1.79-4.25-2.19-6.74-2.12l-.83-.67c-.19-1.27-1-1.63-2.15-1.4l-1.66-.85c-1.64-2.5-4.19-1.49-6.39-1.52-3.94-.06-6.36-1.75-6.74-5.78-.15-1.56.79-3.55-1.67-4-2.16-.43-3.32.8-4.21,2.67-1.31,2.75-3.67,5.23-6.64,4-7.07-3-14.94,3.34-21.61-2.23-.3-.24-1,0-1.47-.05-15.73-.3-30.5,3.44-44.59,10.27-10.42,5.06-20.3,12.52-33.06,8a3,3,0,0,0-2,.18c-7.86,3.13-10.53,11.07-15.49,16.89a2.67,2.67,0,0,0,0,2.36c2.15,4.06-.15,6.67-2.89,9.06-2,1.77-3.44,4.06-5.24,5.91-3.43,3.52-3.35,9.25-7.88,11.85-3.51,2-5,5.35-5.64,9-.5,2.86-1.11,5.85-2.83,7.91-7.12,8.48-7.37,19.38-10.14,29.21-2.59,9.16-2.86,19.07-3.3,28.68-.14,3.2-2.45,6.19-.85,9.47,0,1.21,0,2.42,0,3.63-1.93,8.06,0,15.78,2.11,23.49,0,.77.11,1.54.16,2.3-2.4,3.26-3.78,6.55-1,10.39a4.9,4.9,0,0,1,.49,3.36c-1.12,6.47.29,12.85.55,19.27.4,10.09,3.5,19.75,5.12,29.65,1.39,8.56,6.67,16.23,6.1,25.33-.07,1.22.76,2.49,1.17,3.73-1.31,6.31,1.56,11.8,4.31,16.86,2.91,5.36,4.31,11.42,8,16.38.9,1.19,1.31,3.14-.9,4.21-4.63,2.24-2.89,5.71-.77,8.15s4.3,5.12,7.46,6.49c-1.34,2.15-1.74,3.72.67,5.94a25.31,25.31,0,0,1,6,8.94c2.24,5.59,3.67,6.88,10.25,6.71.25.39.5.78.74,1.17-.32,3-2.94,5.72-.8,8.9l1.14,1.32c3.16,3,5.72,6.6,8.7,9.61,3.26,3.28,3.24,9.28,8.81,10.41l1.81,3.14c0,4.5,1.12,8.35,6.1,9.76,3.29,4.12,6.85,8.06,9.81,12.41,4.87,7.13,13,10.17,19,15.84,4.81,4.51,10.06,8.52,14.31,13.66a31.25,31.25,0,0,0,9.14,7.49c3.14,1.74,5.41,5,8.24,7.45A275,275,0,0,0,246.88,584a216.68,216.68,0,0,1,21.71,17.45c6.43,5.78,12.7,12.14,21.44,14.67a4.1,4.1,0,0,1,2.81,3.23c1.05,4,4,6.39,7.12,8.61,5.59,10.47,10.4,21.87,25.38,21.09.92,0,1.86.67,2.82.8,3.7.5,3.23,2.51,1.83,4.87-1.25,2.09-2.55,4.15-3.83,6.22l.09-.06c-1.68-.19-3.31-.25-4.2,1.61l-.3.23c-4.22.84-8.38,2.58-12.72,1.94-4.73-.69-10.19-.49-11.95-6.72-.43-1.51-1.43-3-3.23-2.41-4.52,1.36-6.7-1.63-8.12-4.77s-3.81-4.48-6.76-5.25a39.9,39.9,0,0,1-19.08-11.14c-5.72-6.22-12.63-7.33-19.8-8.69a27.35,27.35,0,0,1-6-1.94c-7.2-3.09-12.15-10.77-21.07-10.39-.49,0-1.21-.64-1.5-1.16-1.86-3.32-5-3.68-8.22-3.43a11.08,11.08,0,0,1-7-2c-4.11-2.64-6.4-7.54-11.52-9-.91-.26-1.58-2.09-2-3.33-1.88-6-5.65-7.8-11.71-5.13-2.71,1.19-4.68-.6-6.35-1.78s.84-2.33,1.31-3.57c.83-2.13,1.67-4.26,2.66-6.79-2.67-.07-5.18-.33-6.71-2.15-4.25-5-10.35-7.36-15.59-10.89-4.82-3.25-8.54-8-14.1-10.21-.92-.36-1.09-1.52-1.29-2.55-2.42-12.13-10.68-16.39-21.71-15.38a6.29,6.29,0,0,1-5.32-1.88c-2.53-2.3-3.78-5.48-5.75-7.88C94,521,90.14,514.62,82.62,513c-.6-.13-1.49-.54-1.62-1-1.2-4.15-4.86-4.59-8.16-5.63-1.07-.33-2.63-.31-2.69-1.77a3,3,0,0,1,2.55-2.76c3.86-.71,4.51-2.57,4.08-6.41-.32-2.9-.75-4.57-3.53-5.65a12.61,12.61,0,0,1-5.6-4.83c-2.2-3.24-1.43-5.44,2.4-5.95,3.19-.42,3.76-1.71,3.33-4.62-.74-5.12-6.4-11.95-11.63-12.77-4.91-.78-9-3.38-13.5-5.09-3-1.14-3.39-3.12-.56-5,2.6-1.77,3.47-5.15,6.59-6.55a1.75,1.75,0,0,0-.31-3.39c-4.56-1-5.13-3.77-4.43-7.75.26-1.5,0-4-1.72-4.29-1.91-.36-3.07,1.63-3.58,3.43-.35,1.25-1.49,2.79-2.06,1.67-1.92-3.8-6.9-5.21-7.64-9.43C34,422,33,419.86,30.26,418.42a3.1,3.1,0,0,1-1.81-3.29c.21-1.67,1.54-2,2.9-2.19s3.3-.42,3.29-2.35a3.8,3.8,0,0,0-3.47-3.73,7.69,7.69,0,0,1-6.35-4c-1.05-1.78-3.12-1.76-5-1.33-2.83.65-5.76-.45-6.36-2.66-1-3.49-3.61-5.27-5.52-7.8l-3-4.87c.12-4.43.21-8.86.39-13.29.08-2.12-.15-4.52,2.57-5.35,3.14-1,2.93-3.29,2.25-5.63a29.67,29.67,0,0,1-1.53-5.73C8,349.9,7.76,343.46,2.23,339a3.07,3.07,0,0,1-1.12-2.13c.51-7.92-1.81-15.75-.9-24,2.74,1,5.37,3.07,5.2,5-.39,4.63,8.34,6.48,3.34,12-.05.06.06.35.17.45a11,11,0,0,0,7,2.33c1.53.08,3.19-.53,3.59-2.14.56-2.22-1.17-3.65-2.49-5.13s-4-2.86-3.2-4.68c2-4.38-.27-6.79-3-9.39a5.89,5.89,0,0,1-1.48-4.63c.22-8-4.51-15.3-3.39-23.44a2.53,2.53,0,0,0-.39-1.44c-3.31-5.81-2.65-12.06-1-17.94s1.61-11-2.1-15.88l.42-2c1.81-1.33,1.72-3.39,1.17-5-3.61-10.68-.38-21.87-2.59-32.65a4.18,4.18,0,0,1,1.26-3.67c2.38-2.32,6-4,3.37-8.37-.11-.18.7-1,1.16-1.42,7.28-6.77,9.2-16.37,11.32-25.15,1.29-5.4,2.26-11.16,3.5-16.73.72-3.24,1.6-6.47.78-9.83a2.71,2.71,0,0,0,1.25-2.29c2.08-3,3.93-6.13,6.64-8.72a7.34,7.34,0,0,0,1.89-6.85c2.11-1.06,3.28-3,4.48-4.89,2.43-1.84,1.43-4.19,1-6.45l.15-.19c.57,0,.83-.23.77-.8l2.49-1.15c1.27,1,2.6,1.56,3.92.16.58-.62,1-1.87.21-2.16-4.42-1.58-2-4.35-1.37-6.83l.09,0a1.59,1.59,0,0,0,2-.82l2-.41c1.79-.07,2-1.16,1.72-2.62l.24-.28c3.13-1.29,6.21-2.73,9.41-3.85,2.36-.81,3.11-1.74,1.11-3.69.33-1,.66-2,1-3A4.72,4.72,0,0,0,65.33,84c.21-4.71,3.38-6,7.25-6.64,1.45-.23,3.61.33,4.18-1,2-4.88,7-7.67,8.74-12.6,2.55-7.23,9.4-3,13.85-5.32,2.38-1.24,1.64,2.55,2.84,3.67,1.47,1.38,2.93,2.8,5.14,2.63a1.62,1.62,0,0,0,1.5-2.15c-1-3.67,1.65-6.23,2.54-9.32s2.37-3.84,5.45-3c5.77,1.61,9.08-1.14,7.88-6.84-.6-2.86-.09-3.58,2.38-2.66,3.24,1.22,5.81.36,7.21-2.47,3.5-7,10.86-8.09,16.81-11.28,1.81-1,5.12-1.75,6.05-.06,2.89,5.27,7.71,4,12.11,4.86,11,2.11,20.92-.89,30.84-5.24,4.69-2.06,9.92-5.59,15-.07a4.15,4.15,0,0,0,3.28.67c6.95-1.2,14.2-.65,20.86-3.51,1.33-.57,2.54-1,3.38.66,2.38,4.74,5.88,3.75,9.55,1.85h2.4c2.53,1.38,5.26,1.24,6.09-1.54.74-2.43.2-5.48-3.58-5.81l-.84-1-.58-.54c-2.47-1-2.13-3.31-2.58-5.27-1.11-1.52-3-1.16-4.47-1.7-3-1.11-5.66-3.07-6.28-5.84-.76-3.38,4-1.14,4.93-3.4l11.2-.57c2.25,1.16,4.42,1.26,6.43-.54l2,.08,1.22.35,1.75.31c.24,3.54.89,7.11-4.44,7.7A4.13,4.13,0,0,0,262,13.25c.29,2.38,2.64,2.15,4.42,2.19,4.28.1,6.32,1.81,4.8,6.28-.89,2.62-.69,4.71,2.61,5.08,2.67.3,4.79-.28,4.18-3.73-.4-2.23,1.07-2.51,2.66-2.6,1.82-.11,3.66-.2,5.48-.16,2.34.07,4.1.54,2.48,3.57s.18,3.6,2.62,2.79c3.14-1,6.17-2.42,9.25-3.65l.05.07c.26,3.42,2.48,4,5.12,3.09a50.22,50.22,0,0,0,6.45-3.2l2.46-.07c4.93,3.54,9.71,7.34,16.46,6.25a6.61,6.61,0,0,1,5.28.9c5.27,4.08,10.66,3.67,16.13.43l2.44.28c5.87,4.08,14.24,3.76,20.67-.79l1.38.45c.81,1.59,1.85,2,3.23.62l10.33-.11c4,3.23,8.15.08,12.23.35a1.39,1.39,0,0,0,.62.58l.07.38.39,0,1.47.52c1.28.93,2.22,2.45,4.09,2.37h0c.17,2.91.75,6.52,3.9,6.52,4.39,0,6.84,2.86,10.13,4.55,3.47,1.78,4.46,4.15,2.5,7.61-.87,1.54-1.35,3.35-.19,4.69,2.9,3.35,6.07,6.47,9.13,9.67l2.48,2.41c2.44,3.28,5.39,1.43,8.22.81l1.05.62a19.82,19.82,0,0,0,6.25,9.51c2.31.88,4.62,1.74,6.91,2.63,10.86,4.23,20.73,10.63,31.77,14.47,4.53,6.4,12.4,7.06,18.57,10.63,1.38.8,4.49,1.72,5.2-.72.58-2-1.5-4.35-3.53-4.84-3.63-.88-6.53-3.12-9.91-4.39l-1.92-2.5c0-1.15-.39-1.35-1.29-.64l-2.28-.59c-2.37-5.28-7.06-7-12.24-7.89l-2.26-2.36c-.71-4.38-4.16-5.58-7.71-6.67l-.87-.53a20.16,20.16,0,0,0-10.16-7.54l-.34-.2c-4.5-2.59-3.2-6.32-1.58-9.75,1.39-2.93,4.11-1.28,6.12-.74s1.61,2,.31,3.33c-1.58,1.64-.94,3,.85,4,5.78,3.2,10.23,8.27,17,10.4,3.84,1.21,7.58,2.87,11.64,3.42,2.34.31,3.93,1.88,5.44,3.33,5.15,4.95,11.41,7.27,18.29,8.34,1.81.29,3.92,1,4.75-1.27.71-2-1.09-3-2.6-3.69-4.32-2-4.89-5.7-5.13-9.77.65-.06,1.08-.25,1.26-.11q9.54,7.3,19,14.65c1.35,1,2.79,2.3,1.5,4.14-1.51,2.14-3.48,1.6-5.21.19a5.32,5.32,0,0,0-6.89-.3,3.08,3.08,0,0,0-1.35,3.5c.79,3,3.67,2.07,5.56,3,4.31,2.15,11.2.73,12,8.25.31,3,2.46,5.18,4.21,7.65,3.67,5.21,10.17,8.78,9.8,16.65a4.17,4.17,0,0,0,5.68,4c4.92-1.69,8.54-1,11,3.8.28.53,1.08.77,1.56,1.22,4.85,4.5,10.43,8.36,13.53,14.45,1.71,3.38,4.15,4.49,7.7,3.63l4.13.3c.51,2.66,0,6.48,3.42,6.91,5.3.68,7,4.31,8.61,8.29,1.26,3.12,3.24,5.3,6.65,5.93l3.16,2.15c.89,4.49,3.1,7.13,8.14,5.78h0l.93,1.22a3.61,3.61,0,0,0,1.13,2.86,6.25,6.25,0,0,0,4.16,4.29.59.59,0,0,0,.4.4,3.12,3.12,0,0,0,3.2,2.44l0,0c.58,2.44,1.7,4.49,4.06,5.64l1.08,1.35c.63,8.38,8,13.65,10,21.39.13.5,1.73.61,2.65.9l-.09-.08C659.91,236.13,658,241.43,664.26,242.06ZM101.63,120.6l-.71-.72c.18-1.42-.8-1.66-1.83-1.59-.86,0-1.56.5-1.31,1.6L96,121.6c-2.69-.17-3.8,2.27-5.64,3.49a2.1,2.1,0,0,0-.56,2.7c.54,1.17,1.57,1.13,2.53.74s2-1,3.06-1.54c4.58,1.86,5.68,1,6.68-5.14.6,0,.84-.41.65-.92A.67.67,0,0,0,101.63,120.6Zm98.45-62.26c3.94,2.24,5.15-3,8.24-4,6.15-2,12.19-4.24,18.28-6.4,1.35-.47,3.2-.46,3-2.63-.22-2-1.67-2.74-3.46-3-9.24-1.23-18.34,1.36-27.55,1.07a2.41,2.41,0,0,0-2.56,2c-.78,4.27-3.3,4-6.69,3.18-2.42-.61-5.3-1.51-7.53.82-6,6.24-13.43,9.65-21.7,11.65-2.06.5-3.93,1.74-5.89,2.63-2.71,1.23-5.35,3.2-8.16,3.5-3.81.4-6.22,2.63-8.17,5.09-1.82,2.29-3.11,4.62-6.42,4.72a1.87,1.87,0,0,0-1.85,2,2.11,2.11,0,0,0,2.15,2.28,7.71,7.71,0,0,0,3.87-.57c9.07-4.87,19.88-4,29-9.71,4.38-2.73,10.24-3.66,14.44-7.59a6.77,6.77,0,0,1,4.08-1.65,27.66,27.66,0,0,0,10.51-2.83A9.86,9.86,0,0,1,200.08,58.34ZM48.9,141.56c2.84-.32,5.81-1.06,4.39-5.72a2.08,2.08,0,0,1,.83-2.65c4.73-2.36,5.73-7.62,7.77-11.51,3.89-7.42,10.18-13.4,12.6-21.63.28-.92,1.83-1.4,2.48-2.3,2.67-3.68,6.3-6.77,7.84-11.07.66-1.83.94-3.38,2.88-4.12.9-.35,2.13-.65,1.72-2-.33-1.08-1.53-1.11-2.51-1.29-5.37-1-12.15,4.28-13.65,10.69-.93,4-2.46,8.21-5.8,10.08-9.17,5.14-7.53,17.24-15.58,22.86-.1.07-.13.31-.13.47,0,5.59-4.13,9.53-6.11,14.31C43.93,141.83,45.7,141.42,48.9,141.56ZM411.14,57.09c1.08-.19,3.1.45,3.79-1.63a4.46,4.46,0,0,0-1.56-5.34c-1.61-1.19-3.28-2.43-3.95-4.37-1.76-5-4.18-5-8-1.74-2.91,2.53-11.3-.85-11.5-4.53-.13-2.41-1.26-3.18-3.14-3.73s-3.58-.33-4.74,1.56c-1,1.65-2.25,2.85-4.47,2.31-.93-.23-2.17-.41-2.47.89s1,1.93,1.8,2c4.43.15,7,3.2,10.1,5.71,2.12,1.74,4.7,3.71,7.53,3.55,3.67-.22,6.4,1.44,9.07,3.29A12.47,12.47,0,0,0,411.14,57.09Zm-256,59.51c7.35-1.93,13.13-7.66,19.62-12,2-1.36,0-4.61-2.9-4.43-3.75.24-7.35,1.43-9.8,4.33-2.3,2.71-4.31,5.33-8.23,5.88-2,.28-2.92,2.34-2.86,4.24C151,116.71,153.05,116.19,155.12,116.6ZM343,49.15a49.49,49.49,0,0,0,6.45-.07c1.49-.21,4,0,4-2s-2.32-2.64-4-3c-3.22-.68-6.95-.09-9.61-2.05-5.23-3.85-11.05-2.81-16.76-3-1.57,0-3,.62-3.27,2.43s1.09,2.33,2.33,2.79C328.86,46.75,335.69,48.88,343,49.15ZM115.07,103.68c-1.79-2.4-.64-4.49.82-6.7a2.25,2.25,0,0,0-.83-3.43c-1.14-.6-2.73-.57-3.15.49-1.71,4.29-5.53,5.9-9.14,7.93-2.09,1.18-1.85,3.41-1.41,5.38a2.49,2.49,0,0,0,3.1,1.86,50.09,50.09,0,0,0,7.72-1.7A4,4,0,0,0,115.07,103.68Zm11.67-39.42c.23-1.11,0-1.93-.75-2.38a3,3,0,0,0-3.3.2c-2.66,1.81-3.24,5.37-6,7.15-.56.36-.2,1.25.48,1.59a34.67,34.67,0,0,0,6.23,2.88c1.78.47,4.23-.12,3.5-2.63S125.17,66.43,126.74,64.26Zm310.45,57.85c-1.57,1.19-5.53-.8-5.56,2.69,0,2.49,2.24,4.84,5.37,4.91,2.73.06,4.47-1.38,4.47-4.22C441.47,123,439.92,122,437.19,122.11ZM81.23,142c2.13-.41,2.52-3.23,4.28-4.61,1.3-1,2.52-2.4,1.07-4.2-.7-.88-2.16-1.21-2.6-.43-1.58,2.79-6.46,2.66-6.15,6.93C77.94,141.19,79.23,141.78,81.23,142ZM532,288c-.47-2.93-1.88-5.24-5-5.94-2-.44-2.83,1-2.7,2.62.21,2.65.64,5.46,4.15,5.75C530,290.52,531.84,290.48,532,288ZM260.45,58.69c2.37-.08,6-2,5.92-3.23-.25-2.41-2.21-2.08-3.8-2-2.44.11-4.84.88-5.09,3.62C257.35,58.59,259.34,58.55,260.45,58.69ZM96.61,67.47a4.69,4.69,0,0,0-3.91,3.9c-.46,2.1.9,3,2.82,3.11s3.66-.66,3.88-2.9A3.54,3.54,0,0,0,96.61,67.47Z"/><path class="cls-1" d="M439,355.15c.16.29.24.7.48.86,10,6.89,14.78,18.31,23.43,26.43,3.82,3.58,6.89,6.31,12.46,7.47,4.79,1,6.85,7.19,7.77,12.31a19.74,19.74,0,0,0,2.23,6.47c5.82,10.4,10.89,21.27,17.41,31.21,3.69,5.65,6,12.3,11.19,17,.48.43,1.09,1,1.14,1.59.5,5.94,3.38,11,5.66,16.34l-.1.3.25.19.9.86a2.63,2.63,0,0,0,1.83,2.16,7.32,7.32,0,0,0,1.46,4,4.06,4.06,0,0,0,2,2.62c0,.48,0,1,0,1.44a7.19,7.19,0,0,0,3.53,6.12l.3.27c.6,5.06,3.38,9.27,5.37,13.79.84,1.89,3,3.72,1.24,5.88-1.94,2.36-4.27.5-6.44-.05-1.12-.28-2.3-.32-3.44-.54-5.49-1.08-8.9-6.66-14.86-6.91-.45,0-.92-2-1.21-3.08-1-3.6-3.06-5.39-6.94-4.73-4.32.74-6.67-1.1-7.09-5.5-.14-1.51-8.43-10.29-9.79-10.49a4.35,4.35,0,0,0-1.48.08c-3.91.85-7.07-1.16-9.47-3.54C469.4,470.39,459.9,466,452.31,459a7.16,7.16,0,0,0-4.08-1.63c-5.54-.33-9.22-4.14-12.59-7.5A255.17,255.17,0,0,1,417.53,429c-2.16-2.67-4.5-3.42-7.39-2.53-5.55,1.7-11.53.36-17,2.76-2.27,1-4.42-.54-6.13-2.37-2.6-2.77-5.44-5.32-8-8.1-5.39-5.83-13.55-6.74-19.7-11.24a6.66,6.66,0,0,0-6.23-.73c-4.65,1.58-9.36,3.85-13.6-1.16-.65-.76-2.52-.54-3.84-.66-1.68-.16-3.56-.2-4.62-1.56-4.39-5.58-10.87-7.24-17.08-9.51-5.4-2-8.74-7.12-7.53-11.2,1.63-5.53-1.74-9.66-7.2-7.71-8.21,2.93-16.79,1.46-25,3.35-3.32.77-4.71-1.8-6.06-4.13-1.26-2.17,0-3.52,1-5.6,2-4.31,6.89-7.33,6.24-12.91a3.69,3.69,0,0,1,1.48-3.05c1.74-1.6,1.93-3.62,2.21-5.85.87-6.84,1.81-13.85,6.07-19.53,8.31-11.06,17-21.81,25.43-32.82,1.42-1.88,2.55-3.26,5.13-3.08,1.92.12,3.61-.22,3-3.14-1.47-7.22-.12-9.43,7.22-11.18a26.94,26.94,0,0,0,11.35-6.4c1.91-1.68,2-5.37,4.66-7.18,7.33-5,11.53-13.65,20.12-17.18a5.13,5.13,0,0,0,1.21-.88c5.38-4.51,11.77-2.65,13.63,4.16.91,3.31,1.88,6.58,1.62,10.24-.2,2.83-.39,6.57,4.4,7,1.95.18,1.86,2.38,1.25,3.69-3.06,6.5,2.87,10.26,5,14.86s6.65,8,10.81,11.37c1.92,1.55,4.27,3.86,4,6.64-.51,5.68,2.81,9.25,6.55,12.19,8.33,6.55,13.69,15,18,24.48,1.22,2.65,1.77,6.35,5.73,6.95l.18.25c.64,2.23.34,4.93,3.07,6.11a.74.74,0,0,0,.43.54A1.13,1.13,0,0,0,439,355.15Z"/></g></g></svg>