<svg xmlns="http://www.w3.org/2000/svg" viewBox="0 0 847.67 876.17"><defs><style>.cls-1{fill:#010101;}</style></defs><title>Asset 3blob_2</title><g id="Layer_2" data-name="Layer 2"><g id="Layer_1-2" data-name="Layer 1"><path class="cls-1" d="M167.18,846.32c0-2.1-1.35-3.26-3-4.28-3.35-2.11-7.22-3.76-7.8-8.45,0-.42-.57-1.09-.89-1.11-6.4-.22-9.11-6.28-14-8.8-.89-.45-2.47-1.14-2.13-1.8,2.84-5.46-1.78-4.85-4.53-6.61-2.9-1.86-5.08-4.95-3.73-9.41,1.25-4.13-3.1-9.58-7.31-10.09-6.16-.76-12.13-6.28-14.24-11.94-2.41-6.46-6.49-11.87-13.23-14.55a40.5,40.5,0,0,1-5.15-2.92c-3.66-2.1-4.73-4.16-2.51-8.34,2.34-4.4-3-5.27-5-6.77-4.93-3.54-8.44-7.22-9.15-13.7-.36-3.24-.58-7.15-3.58-9.79-1.64-1.45-.69-3.41-.43-5.19.86-5.91,0-7-5.81-7.11-1.3,0-2.57-.27-2.94-1.41-1.42-4.4-4.8-6.74-8.42-9.19a12.07,12.07,0,0,1-5.25-8.2,4.64,4.64,0,0,0-2.4-3.62c-5.13-2.53-4.65-6.65-3.17-11.06.37-1.09,1.34-2.45,1-3.24-3.92-8.94-1.38-19.4-6.58-28a16.83,16.83,0,0,1-2.16-8.09c0-.49.23-1.16,0-1.47-4.2-5.42-.61-12.81-4.68-18.36a9.12,9.12,0,0,1-1.15-5.78c1.28-13.43-4-25.85-5.71-38.81l-.06-1.74c.73-1.4,1.15-3,.46-4.34-5.39-10.17-5.81-21.66-8.72-32.48-1.5-5.56-2.47-11.18-.81-17.15,1.09-3.9.08-8-1.49-12.07-1.34-3.51-4.6-7.59-2-11.56,2.43-3.77,1.81-7.19.72-10.89-1.9-6.44-5.12-12.55-3.87-19.7.35-2-.56-4.25-1.12-6.33C3.12,450.53-.47,439.18.35,427c.49-7.29-1.79-15.88,1.34-21.61C6,397.5,6.15,389.85,6.58,381.73c.37-7.2,3.26-14.34.56-21.62l.09-1.45c.8-2.17,2-4.29,2.32-6.53,2.09-14.12,4.92-28,12.45-40.42,1.06-1.75,1.2-3.75,1.72-5.66,2.91-10.61,2.68-22.17,9.57-31.6a20.5,20.5,0,0,0,4.28-14.34c-.14-1.55.77-3.19,1.19-4.78l1.19-1.5.18-1.55c0-.56-.07-1.12-.1-1.68,1.56-4.53,1.95-10.14,4.92-13.36,5.12-5.54,5.55-12.57,6.72-18.7,1.84-9.57,8-14.15,15.1-18.25,4.19-2.43,6-5.72,2.44-8.25-4.18-3-2.49-5-.51-8.07,1.82-2.84,6.26-3.57,6.08-8-.14-3.43,2.26-5.47,4.89-6.89a12.63,12.63,0,0,0,6-7.56c1.13-3.3,1.83-6.92,3.69-9.75C95,143.32,101,135.12,107,126.88a9.54,9.54,0,0,1,3.19-2.3c.88-.49,2.21-.85,2.16-1.84-.24-4.52,3.37-7.48,4.38-11.46L117,111c4.32-3.5,9.27-5.82,12-11.64,3.1-6.64,10.19-10.68,14.26-17,1.54-2.39,4.54-4.16,6-6.16,2.7-3.61,7.8-4.74,9.07-9.46a1.07,1.07,0,0,0,.44-.64c8.2-3.32,13.74-11.14,22.58-13.36,1.66-.42,1.63-1.83,2.16-3,1.24-2.76,3-6.44,5.83-6.13,3.63.4,4.48-2.18,6.6-3.18,5.11-2.43,8.71-7.08,13.54-9.08,5-2.08,9.73-6.49,16-4.94a2,2,0,0,0,1.62-.95c1.75-3.47,4.17-2.23,6.76-.52.3-4.41,1.69-6.95,6.31-5.45A3.43,3.43,0,0,0,243,19c3.35-2.88,8.33-2.12,11.55-5.41,1.16-1.19,3.14-.57,4.81-.54,3.11.07,7.24,1.11,9.17-.45,6.12-4.95,14.93-.3,20.38-6.42,5.42.84,10.47-.93,15.61-2.15a2.87,2.87,0,0,1,2.78.74c4.19,4.27,4.48.32,5.32-2.5l.39-.27c9.44,3.86,18.46-.18,27.64-1.41l3.6-.44c3.58,0,7.17.7,10.75-.12l6.22.34c1.16,2,2.39,2.05,3.7.14l3.23,0c2.25,3.76,3.77,9.06,9.87,4.61a1,1,0,0,1,1,0c4.69,3.62,11.1,1.28,15.89,4.67,2.75,2,4.62,1.24,5-2.28l1-1.08c2.26-.07,3.84,1.44,5.65,2.4l.18.16c.66.43,1.41,1.32,2,1.22a17.28,17.28,0,0,1,11.39,2.16,2.64,2.64,0,0,0,2.83-.25h2.13c8.13,3,16.15,5.89,25,7.06a106.48,106.48,0,0,1,25.28,6.91,23.31,23.31,0,0,0,10.73,1.37h0c2.77,3.31,6.42,4.67,10.62,4.81l1.87,1.32c-.26,1,.18,1.71,1.14,1.75.68,0,1.11-.62,1.11-1.39l4.79,1.22c-.05.54.2.77.73.7,2.84,3.95,7.71,3.68,11.57,4.55,4,.91,8,1.05,11.19,4.18.83.81,1.89.08,2.84,0l1.09.91.05.06c.18,1.11,1,1.57,1.91,2.07,6.54,3.69,14.09,4.8,20.75,8.18l.07.06c.46,1.24,1.57,1.58,2.66,2,10.9,4.46,19.91,11,24.76,22.23,1,2.3,2.81,4.46,5.31,5,4.84,1,9.14,3.68,14.32,3.88,6.46.25,11.11,5.39,11.64,11.69.59,6.9,9.8,12.82,16.17,10.14a8.12,8.12,0,0,1,6.6-.12c4.11,1.56,7.77,3.44,10.49,7.16a29.78,29.78,0,0,0,9.18,8.3,13.44,13.44,0,0,1,6.73,10.39c.38,4.5,5.21,6.3,4.87,10.67,0,.26.82.9,1.12.82,4.93-1.32,6.35,3.24,9.16,5.43,4,3.13,6.8,7.52,11.41,10.27,6.37,3.79,13.58,6.86,17.25,14.12.28.54,1.45.64,2.2.95l.34-.25-.33.26c1.61,5.52,4.95,10.33,7.87,15,2.06,3.32,5,9.29,11.55,6.63l1.41,1.5c4.49,5.88,8.4,11.88,11,19.09,2,5.52,4.39,12,12.27,13.63,2.05.43,6.33,4.3,6.38,7.76.07,5.2,2.84,9.13,4.55,13.52,2.84,7.3,10.17,12.33,10.74,20.91.08,1.21,1.53,1.32,2.3.37,3-3.64,3.8-.55,5.22,1.44,8.6,12,13.83,26,21.43,38.56,2,3.26,4.92,5.86,6.09,9.65,6,19.49,14.39,38.2,18.84,58.19a7.9,7.9,0,0,0,2.27,4.33c2.17,2,2.71,4.64,3.34,7.5.91,4.17,1.4,9.23,7.22,10.07,2.83.41,5,1.1,5.37,4.66.49,4.23-.28,8.6-4.08,9.72-5.37,1.57-7.93,5.67-11.25,9.16-1.41,1.49-4.34,1.81-4.19,4.54.23,4.19-2.81,6.25-5.43,8.43a230.66,230.66,0,0,1-26.57,19c-4,2.46-8.46,4.14-12.29,7-3.67,2.76-8.23,2.38-12.45,2.44-3.79.06-7.34-4.65-7.52-8.5-.11-2.26.08-4.88-2-6.46-4.81-3.67-6.91-9.61-11.54-13.42a4.58,4.58,0,0,1-1.66-4c.74-6.26.78-11.6-2.84-18-3.24-5.73-5.48-12.12-10.29-16.91-2.4-2.39-3.26-6.79-5.27-7.84-6.68-3.49-11.46-7.8-13.12-15.34-1-4.77-3.67-8.85-6-13.15-3.78-7-5.05-15.33-9.41-22.15-3.93-6.14-4.71-13.45-8.74-19.72-3.09-4.8-7.28-9.15-9.32-14.38a106.64,106.64,0,0,0-11.52-21.18c-2.06-3-5.73-5.05-6.52-8.63-2.53-11.5-11.52-19.62-15.45-30.44-1.43-4-5.7-6.82-8.36-10.41-1.83-2.48-2.14-5.88-5.07-7.81-4.53-3-9.27-5.9-9.45-12.37,0-1-1.45-1.8-1.9-2.83-1.61-3.65-7-3.93-7.66-8-.93-5.6-7.77-7.9-7.36-14.17.08-1.19-2.09-1.38-3.25-2-3.36-1.77-7-3.2-8.08-7.53a4.2,4.2,0,0,0-2.36-2.39c-3.92-1.48-6.51-4.45-9-7.52-9.37-11.31-20.05-21-33.61-27.09-2.74-1.24-4.62-2.83-4.91-6.17-.25-2.87-2-5.59-5.22-4.52-4.44,1.48-6.91-1.4-9.82-3.34-6.69-4.48-10.52-12.87-19.52-14.26-.72-.11-1.4-.89-2-1.48-6.19-6.37-15.15-8.53-21.77-14.26a3.48,3.48,0,0,0-2.37-.58c-3.43.35-6-1.42-8.67-3.17l-.17-.14c-.81-2-2.52-1.81-4.18-1.71a7.72,7.72,0,0,0-7.2-4.48c-7.48-.19-13.57-4.88-20.8-6a18.53,18.53,0,0,1-12.44-8.34c-.76-1.12-2.38-2.59-3.2-2-5.21,3.88-9.24,1.47-14.34-.84-3.52-1.58-8.35-1.6-12.52-2.23-7.33-1.11-14.8-1.46-22-3.46-5.55-1.53-11.26-.56-16.87-1.13-12-1.21-23.88-3.87-36-1.31a12,12,0,0,0-5.6,0,6.38,6.38,0,0,0-5.1-1.51c-9.66,1.27-19.4.63-29.16,1.88-14.81,1.9-29.17,4.63-43.3,9.63A109.27,109.27,0,0,0,230,88c-3.77,2.11-8.71,2.07-11.43,5.57-2.91,3.75-6.65,6.44-10.19,9.36-12.19,10-22.49,22-34.21,32.53a16.64,16.64,0,0,0-5.68,9.15l-1.15,1.23c-3.33,2.8-6.66,5.58-10,8.41-3.62,3.1-4.45,8.11-7.6,11.43a109.39,109.39,0,0,0-8.69,10.71c-11.91,16.25-19.21,35.08-28.22,52.94-1.63,3.22-3.28,6.9-2.65,10.89,0,.76-.09,1.53-.14,2.29-.06.32-.11.63-.17.95l-.81.91.11-.13c-.3.82-.59,1.64-.89,2.45-1.26.75-1.58,2.12-2.11,3.3-6.46,14.35-9.91,29.77-15.93,44.28-4.45,10.74-6.61,22.16-9.48,33.38-1.15,4.52-1.36,9.26-2.85,13.58-2.52,7.3-4.23,14.56-4.16,22.34.13,12.92-1.83,25.85.28,38.78.87,5.39,2.14,10.89,1.81,16.25a67.63,67.63,0,0,0,2,21.68c3,10.82,3.16,21.92,5,32.75S87,495,88.15,506.11c.82,7.7,4,14.89,4.38,22.88.22,4.73.43,9.9,1.73,14.61,3.1,11.32,6.74,22.49,10.06,33.74.64,2.15,1.29,4.13,3.38,5.26l.54,2c.15,4,2.77,7.29,3.51,11.22,1.82,9.76,6.07,18.56,11.57,26.79a2,2,0,0,0,.29.8c.18,4.06,2,7.36,4.63,10.35a1.72,1.72,0,0,0,.13.77c1.41,5.07,2.52,10.24,5.63,14.69s5.53,8.72,6.33,14.2c.61,4.18,4.8,4.53,8.32,4.79,2.55.19,3.64-.93,3-3.65a23.46,23.46,0,0,1-.29-9.83c.85-4.19,2.13-8.18-3.42-10.29-.9-.34-1.21-2.23-1.8-3.4l.33-1c2.84,2.09,5.76,3.65,9.46,2.06a3.16,3.16,0,0,0,1.87-4.46,3.1,3.1,0,0,0-4.5-1.78c-1.07.5-1.74,2.22-3.81.92a9.41,9.41,0,0,0,.45-7c-1.35-4.4-1.45-8.8,1.16-12.94a5.64,5.64,0,0,0,.81-5.24c-1.69-4-1.4-8.12-1.53-12.24,0-1.33.23-3-.93-3.72-3.14-1.93-2.44-4.71-2.12-7.49l.12-2.84c3.51-8.57,3.25-17.65,4-26.66.77-9.59-4.46-18.35-3.15-27.91a24.43,24.43,0,0,0,.38-8.48c2.12-3.46,4.77-1.62,7.32-.72-.74,5.59,3.63,8.68,5.8,12.91s4.64,2.29,5.51,1.15a28.56,28.56,0,0,0,4.67-9.46c1-3.43-1.29-6.21-3.47-8.81-3.64-4.33-6.77-8.87-3.9-14.93,1.83-3.52-.06-6.16-4.72-6.57l-.23-.24c.14-.59-.13-.88-.7-.95l-.75-3.1c.71-1.12.31-2-.66-2.68-.14-.74-.28-1.49-.43-2.24a2.41,2.41,0,0,0,.13-2.52,13.41,13.41,0,0,0,.05-7l-1.05-.84.06,0a1.82,1.82,0,0,0-1.37-1.58l-.08-.17c.11-1.81.17-3.64.35-5.45.37-3.61.81-7.06-4.14-8.13-1.63-.36-2-2.6-1.35-3.85,2.34-4.45.76-8.72-.08-13.07a8.76,8.76,0,0,1,1-6.23c3.79-6.77.58-13.8-1.59-19.55-3-7.86-4.37-8.49,2-14,3.81-3.27,3.78-6.77,1.08-9.94-5-5.9-4.35-12-2.5-18.76,1.3-4.75-1.2-9.83-2.35-13.9s-2.2-6.42.51-9.54c-1.32-1.26-3.06,1-3.74-.69s.77-2.73,2-3.59a9.14,9.14,0,0,1,2.63-1.4c2.81-.79,2.87-2.63,1.6-4.57s-2.39-4.1-5.09-4.37l-.79-.76c-.91-2.08.62-5.17-2.63-6.27l-.83-.88c1.19-2.36,0-4.08-1.47-5.81-2.45-2.94-3.16-6.11-2.68-10.1,1-8.62,1.13-17.37-1.05-25.84-.83-3.22-.73-4.68,2.55-6,4.21-1.7,7.87-4.27,6.88-9.85-.3-1.75.78-2.37,2.29-2.55,2.1-.26,4.06,0,5.23,2,1.27,2.17.68,4-1,5.85-1.17,1.26-3,2.67-1.59,4.7a4.77,4.77,0,0,0,4.44,1.77c2.09-.23,2.71-2.26,3.5-3.88,1.23-2.51,2.86-3.17,5.07-1.23,3.88,3.39,8.76,4.55,13.43,6.19l.26.25c.92,2.65,3.29,2.75,5.51,3.14.85.53,1.71,1,2.57,1.57,1.46,2.11,5.56.81,5.79,4.58.44,7.54,5.32,11.77,11.39,15.09.85.47,2,.88,2.41,1.63,3.46,6.2,8.94,10.66,13.48,15.92,1,1.14,2,2.23,2,3.88-.32,11.81,6.22,20.14,14,27.95,2.42,2.45,5,5,5.72,8.61,1.45,7.55,3.95,14.6,8.59,20.82,1.23,1.65,2.37,3.43-.72,4.68a1.33,1.33,0,0,0,0,2.39c5.14,3.33,7.46,8.11,6,13.81-.74,2.85-.5,5.58-.43,8.38.08,3.2,1.64,4.31,4.85,4,5.61-.63,6.75.47,6.68,6.21,0,2.59-.05,4.92,2.41,6.6a17.57,17.57,0,0,1,7.23,11.58c1.15,6.88,6.33,11.27,8.71,17.26l.91,2.19a11.09,11.09,0,0,0,1.4,6.7,117.37,117.37,0,0,1,6.51,14.88q11.88,32.64,24.52,65c2,5,3.2,10.71,7.73,14.47.16,1.29.33,2.57.49,3.86-.83,7.36,2.83,13.75,4.55,20.54.75,2.92,1.13,6.27,3.74,8.47.11.64.21,1.27.32,1.91.29,7.39,3.72,13.69,6.93,20.07l.66,1c-.09,2.61-.3,5.28,2.5,6.84l.15.36a1.69,1.69,0,0,0,1.08,2.07c.25.57.51,1.13.76,1.69,1.19,4.88-.62,10.42,3.23,14.72l.09.35c.29,2.8-.9,6.11,2.63,7.83l.89,1c.5,2.15-.15,4.73,2.26,6.19l.83.79c.31,2.55,1.4,4.67,4.27,4.4,2.7-.26,2.46-2.68,2.52-4.69.16-5.28.71-10.59.41-15.84-.49-8.39,1.62-12.51,9.41-16.09,1.16-.54,2.62-1.2,1.77-2.33-2.51-3.29-2-7.81-4-10.78-3.31-5-2.66-8.9.56-13.1,1.22-1.59,1.07-2.41-.74-3.46-2.84-1.65-5-9.42-3.28-12,1.15-1.71,2.89-3.7,4.69-4.1s1.43,2.55,2.37,3.82c2,2.75,3.61,5.57,2.47,9.21a2.36,2.36,0,0,0,1.23,2.57c4.15,2.49,5.06,6.78,6.12,11,.29,1.15.13,2.51,1.85,2.3s1.92-1.61,1.81-3c-.12-1.74-1.37-3.78.81-5s1.35-2.43.81-4.12c-2.16-6.66-8.51-12-6.22-20.09.22-.77-.48-1.47-1.17-2-4.21-3.55-3-9.84-6.82-13.64a1.43,1.43,0,0,1,.35-1.25c3.28-1.08,2.6-3.87,2.71-6.25.1-2,1-3.08,3-3.13v0c-.2,1,.37,1.5,1.09,2v0l.75,1.09.35,1.05c-.11.57.15.83.72.84l.93.44c.54,2.94-.37,5.41-1.86,8-2.77,4.79.29,10.38,5.72,10.35-.78-1.88-3.67-3.19-1.68-5.64,1.08-1.33,2.47-1.83,3.94-.78,2.46,1.76,4.86,2.65,6.75-.51s.5-5.57-2.21-7.18c-4.48-2.66-6.44-5.7-3.27-10.76.9-1.43.27-3.61-.41-5.34a59.42,59.42,0,0,1-3.25-30.36c.86-6.19,3.28-12,3.06-18.56-.11-3.1,3-6.22,7.49-4.54a2.26,2.26,0,0,0,.32.64,2.49,2.49,0,0,0,1.38,2.85l1.26,2.32c-.25,3.64-.24,7.12,4.65,7.63a2.85,2.85,0,0,1,2.32,1.69c1.33,2.92,3.48,4.69,6.95,4.61-5,9.15-2.25,17.4,7.21,22.46.09.81.17,1.63.26,2.44a1.33,1.33,0,0,0,1.2,1.32.57.57,0,0,0,.35.39c1.73,2.42,4.27,3.57,7,4.41l.26.19c1.47,2.71,3.5,2.61,5.8,1.18,2.4,2.7,2.48,5.47,1.69,9.09-1.39,6.47-4,13.19,2.24,19.25,4.65,4.54,7.32,10.39,6.21,17.3l.12,1.3a3.11,3.11,0,0,0,.68,2.65,8.1,8.1,0,0,0-.08,1.47c.84,6,6.43,9.41,8.33,15,.54,1.57,3.81,4,6.62,1.85s3.69-7.86,1.05-9.78-3.34-4.33-4-7.06l.3-3.44c2.45-2.66,6.1-4.53,5.87-8.94,1.25-4.92,5.94-6.73,9.39-9.13a13.58,13.58,0,0,0,6.33-11.54c.25-5.57,2-9.66,7.31-12.91,6.5-3.95,13.33-7.31,19.67-11.51,7.65-.51,9.55-8.37,15-11.71,4.65-2.34,10.18-3.17,13.36-8a4.36,4.36,0,0,1,2.91-1.8c6.78-.3,10.52-5.75,15.59-8.93,5.77-3.62,11.32-3.35,15.78,2.2,3,3.74,1.92,8.5-1.44,11.73-4,3.87-3.78,9.13-4.86,13.68-2.59,11-5.22,22.21-5.49,33.4q-.43,18.15-2.31,36.11c-1.14,10.9-3.16,21.7-4.68,32.56-2.22,15.79-6.42,31.15-9.94,46.66-.52,2.28-.92,4.71-2.77,6.29-2.28,2-1.72,4.51-2,6.93-2.72,2.91-2.92,6.69-3.5,10.33-.76,1.56-1.52,3.11-2.27,4.67-5.1,7.57-8.81,15.92-13.15,23.9-2.23,4.09-4.1,8.4-7.24,11.87-5.9,6.51-9.43,14.76-15.72,21a18.11,18.11,0,0,1-3.69,3.24c-5.67,3.08-9.13,8.41-13.63,12.68-4.78,4.54-9.17,10.46-14.74,13-9.24,4.24-14.84,12.68-23.48,17.2-9.55,5-18.69,11.2-30.27,10.29a6.31,6.31,0,0,0-3.8,1c-7.29,5.14-16.14,6.73-23.93,10.68-3.69,1.87-7.18.79-10.71.32-2.42-.31-4-.33-5.12,2.36-1,2.43-2.88,3.59-5.57,1.63-1.46-1.06-3.22-1.23-4.38.54-4.68,7.09-10.87,9.17-18.68,5.6-2.58-1.19-4.43.75-6.64,1.08-5.84.86-11.67,1.27-16.7,5.17-1.64,1.28-3.25,2.13-3.64,4.25-.95,5.28-4.25,7.2-9.34,6.64-3.08-.33-6-.48-7.28,3.37-.39,1.19-2,.86-3.08,1.18-10.83,3.13-21.69,4.2-32.79,1.24-5-1.34-10.09.8-15.21.88-4.95.07-9.13-2.33-13.9-2.52-1.66-.07-2.37-3.46-4.14-5-3.66-3.24-6.61-7.32-12-2.25-1.28,1.21-4.13.7-6.24,1.08-3.69.67-2.5-2.76-3.59-4.25a5.47,5.47,0,0,0-4.17-2.33c-5.28-.57-7.53-2.84-7.78-8-.08-1.75-.87-2.21-2.38-2.52-3.66-.74-6.91-2.06-8.53-5.94-.46-1.11-1.8-1.89-2.79-2.75s-2.21-1.65-3.62-.92-1.15,2.24-1.45,3.5c-.42,1.74,2,3.89,0,5s-3.87-1.22-5.73-2.19Zm7.19-398.59c6.22-3.31,5.4-9.49,4.46-13.27-1-3.94-2.14-7.33-1-11.32.52-1.73,0-3.83-1.92-4-3.85-.32-3.46-2.69-3.37-5.3.06-1.88.16-4.05-3-2.11-2.06,1.29-2.44-.39-2.59-2.11s1.57-3.29.61-5.43c-2.52,1.38-4.57,2.28-3.33,6.06,1.1,3.37-.27,6.3-4.27,7.64-3.4,1.14-3.77,4.33-3.52,7.45.13,1.59.95,3.11,2.85,2.72,3.13-.63,4.24-2.92,4.07-5.94-.1-1.67.58-2.49,2.32-2.42,1.55.07,2,.91,1.82,2.3a4.7,4.7,0,0,0,1.6,4.49c3.27,3,3.7,7.05,3.86,11C173.18,440.83,173.86,444,174.37,447.73Zm-8.65,8.61c.48,5.15-.24,10.76,4.47,14.63,1.3,1.07,2.69,2,3.51-.17.69-1.83,1.74-5,1-5.66-3.81-3.26-2.72-6.18-1.28-10.22,1.94-5.44-3.9-9.46-4.27-14.8-.12-1.75-1.24-3.88-3.44-3.57-2.54.36-1.52,2.83-1.82,4.5C162.92,446.31,164.3,451.32,165.72,456.34ZM155.45,585.47c.62,2.29,1.22,4.87,2.07,7.37a2.57,2.57,0,0,0,1.87,1.34c1,.07.94-1.08,1.28-1.8,2.47-5.2,1.35-10.4.21-15.64a2.25,2.25,0,0,0-1.89-2c-1.61-.35-2.09.78-2.29,2C156.23,579.52,155.89,582.33,155.45,585.47Zm84.89-30.42c-1.74,4.41-2.05,8.15.19,11.82.5.82,0,2.5,2.06,1.78,3.2-1.1,6.43-2,6.62-6.19.08-1.66,0-3.31-1.35-4.52a1,1,0,0,0-.91.11C243.3,561.2,241.93,557.94,240.34,555.05Zm-39,276.1a2.75,2.75,0,0,0-3.06,1.94c-.44,1.17-.36,2.45.77,3.09,2.85,1.59,4.57,4.18,6.39,6.71a2.45,2.45,0,0,0,2.47,1.31c1.4-.28,1.63-1.5,1.92-2.61C210.77,838.1,205.2,831.25,201.37,831.15Zm-25.82-339.9c2.74.19,4.39-.15,4.36-2.7,0-3.62-2.51-5.18-5.47-6.09-1.87-.58-2.44.9-2.12,2.29C172.92,487.3,171.46,491.24,175.55,491.25ZM159.33,364.36a32.29,32.29,0,0,0-.47-4.94c-.45-1.88-1.2-4.59-3.54-3.77s-4,3.56-2.56,6.11c1.16,2,2.34,3.83,2.56,6.22a2.14,2.14,0,0,0,2.4,2c1.51-.17,1.55-1.51,1.6-2.67C159.36,366.35,159.33,365.36,159.33,364.36Zm20,203.16c2.23-.67,4.21-2.67,3.77-3.79-1-2.69-4.56-2.53-6.83-4-1-.63-2,1.06-1.9,2.27C174.73,565,177.73,565.7,179.32,567.52Zm-21,57.83c-1.9-.09-3.31.44-3.12,2.69s1.06,4.4,3.54,4.64c2.31.21,2.76-1.93,3.07-3.73C162.31,626.23,160.51,625.59,158.36,625.35Zm75.78,219.26c-.67-1.83-1.49-4-3.78-4.51-1.47-.35-1.69,1.13-1.67,2.36,0,2.19.69,3.88,3.19,4.18C233.24,846.8,234.15,846.41,234.14,844.61Zm-77.65-459c0,3-.12,5.21,0,7.44a1.86,1.86,0,0,0,2.46,1.78,1.66,1.66,0,0,0,1-2.41C159.18,390.35,159.27,387.83,156.49,385.59Z"/></g></g></svg>