<svg xmlns="http://www.w3.org/2000/svg" viewBox="0 0 119.01 78"><defs><style>.cls-1{fill:#6983b5;}</style></defs><title>Asset 2</title><g id="Layer_2" data-name="Layer 2"><g id="Layer_1-2" data-name="Layer 1"><path class="cls-1" d="M3.14,76.55c0-7.19-.45-14.45,0-21.63.35-5.57,2.27-11,6.34-14.94a19.71,19.71,0,0,1,8-4.84,19.42,19.42,0,0,1,4.74-.59c1.89-.06,3.78-.29,5.66-.3a24.46,24.46,0,0,1,9.8,2.46c3.14,1.37,6.19,2.95,9.2,4.56,6.14,3.26,12.23,6.52,18.52,9.48,6.11,2.87,12.19,5.68,19,6,6,.32,11.75-1.16,16-5.67s6.39-10.31,7.54-16.22c1.22-6.31,1.35-12.77,2.5-19.08.94-5.12,2.69-10.81,7.83-13.1C120,2,118.47-.63,116.72.14c-4.63,2.06-7.12,6.69-8.42,11.37-1.47,5.31-1.75,10.89-2.37,16.34-.71,6.2-1.83,12.56-5.21,17.92A18,18,0,0,1,94.46,52a17.54,17.54,0,0,1-8.5,1.8c-7,0-13.29-3-19.51-5.88-6.43-3-12.64-6.41-18.92-9.72-5.88-3.11-12.41-6.86-19.23-7-1.72,0-3.43.22-5.16.26a34.44,34.44,0,0,0-5.17.42,20.61,20.61,0,0,0-8.78,4.34A24.2,24.2,0,0,0,.39,52.46,82.44,82.44,0,0,0,0,63.69C0,68,.13,72.26.14,76.55a1.5,1.5,0,0,0,3,0Z"/></g></g></svg>