<svg xmlns="http://www.w3.org/2000/svg" viewBox="0 0 47.95 41.69"><defs><style>.cls-1{fill:#2c2a26;}</style></defs><title>Asset 5c1</title><g id="Layer_2" data-name="Layer 2"><g id="Layer_1-2" data-name="Layer 1"><path class="cls-1" d="M6.81,17.16A22.08,22.08,0,0,1,.37,12.79c-.73-.65-.28-1.67.49-2.25a10.63,10.63,0,0,1,3-2,75.73,75.73,0,0,1,9.93-2.34A2.49,2.49,0,0,1,16.68,9.5C16,12,9.78,17.07,6.81,17.16Z"/><path class="cls-1" d="M4.73,36C3.16,35.91,2,35.22,2.1,33.5a2.58,2.58,0,0,1,2.62-2.69,2.57,2.57,0,0,1,2.64,2.67C7.47,35.21,6.31,35.89,4.73,36Z"/><path class="cls-1" d="M36.09,17.17a2,2,0,0,1-2.25-1.53A1.25,1.25,0,0,1,35.25,14a2,2,0,0,1,2.09,1.83C37.46,16.64,36.87,17,36.09,17.17Z"/><path class="cls-1" d="M39.33,1.82A1.39,1.39,0,0,1,40.38.14c1-.28,2.14-.25,2.33,1.11.11.75-.61,1.14-1.31,1.29A1.8,1.8,0,0,1,39.33,1.82Z"/><path class="cls-1" d="M45.74,28a1.62,1.62,0,0,1-1.93,1.22c-.82-.16-1-.85-.76-1.58a1.41,1.41,0,0,1,1.57-1.05A1.2,1.2,0,0,1,45.74,28Z"/><path class="cls-1" d="M20.89,41.69a1,1,0,0,1-1.07-.88,1.27,1.27,0,0,1,.83-1.61c.8-.24,1.3.24,1.35,1A1.31,1.31,0,0,1,20.89,41.69Z"/><path class="cls-1" d="M22.77,2.85A.79.79,0,0,1,22,1.79,2,2,0,0,1,22.89.63c.54-.28,1,.08,1,.7A1.46,1.46,0,0,1,22.77,2.85Z"/><path class="cls-1" d="M37.29,26.59c-.46,0-1-.15-1-.72s.54-.75,1-.68a1.06,1.06,0,0,1,.77.46C38.3,26.25,37.85,26.49,37.29,26.59Z"/><path class="cls-1" d="M47.57,36.62c0-.13-.16-.3-.12-.39s.24-.1.37-.15c0,.13.17.3.12.38S47.7,36.57,47.57,36.62Z"/></g></g></svg>