<svg xmlns="http://www.w3.org/2000/svg" viewBox="0 0 185.56 187.7"><defs><style>.cls-1{fill:#2c2a26;}</style></defs><title>Asset 3c2</title><g id="Layer_2" data-name="Layer 2"><g id="Layer_1-2" data-name="Layer 1"><path class="cls-1" d="M113.61,35.16c-2.76,1.43-4.48,2.4-5.48,4.29-3.6,6.78-9,12.26-13.45,18.41-1.61,2.21-3,4.22-3.22,7.37-.2,3.58-2,7.06-6.48,7.69a2.4,2.4,0,0,0-2,1.41c-2.5,5.42-6.1,10-9.95,14.53-1.9,2.25-2.88,5.18-5.93,6.49A2.65,2.65,0,0,0,65.71,98c.16,2.3-.2,4.06-3.12,4.33-.66.06-1.24,1.57-1.78,2.45a7.49,7.49,0,0,1-2.7,3.08c-3.11,1.74-5.52,3.92-4.66,8a2.83,2.83,0,0,1-1.31,2.69c-5.28,4.25-7.84,10.49-11.14,16.07-2.29,3.86-5,7.36-7.45,11.1-.66,1-1.59,1.94-1.71,3.15-.16,1.67-1.25,1.9-2.45,2.69a13.26,13.26,0,0,0-5.9,8.17c-.61,2.73-1.33,4.6-4.52,6-2.37,1-4.1,4.49-5.78,7-2.45,3.7-6.2,6.44-7.54,11.07-.48,1.64-3.24,2.62-4.9,3.86-1.75-1.48.1-2.3.17-3.34.6-9.61,6.6-16.47,12-23.6a13.39,13.39,0,0,0,2.82-4.94c.2-.81.61-2,1.23-2.22,6.81-2.85,7.94-9.72,11-15.22a23.5,23.5,0,0,1,1.72-2.61c.95-1.26,2.09-2.42,1.13-4.2-.37-.68-.31-1.64.47-1.67,4.13-.18,5-3.89,6-6.43A77.65,77.65,0,0,1,44,111.76a110.37,110.37,0,0,1,8.61-12.3,22.17,22.17,0,0,0,4.31-7.13c1-2.94,3.6-4.61,5.42-6.9C67.5,79,73.15,72.86,78,66.18c2.72-3.73,6.58-6,9.53-9.42C90.81,53,95,50,97.79,46s5.35-8,8.16-11.91a35.2,35.2,0,0,1,2.52-3.28,7.85,7.85,0,0,0,2.17-6.08c-.14-4.09,1.65-8.11,1-12.32-.18-1.21.87-1.79,1.56-2.56,2.08-2.33,4.09-4.72,6.16-7,3.16-3.54,3.14-3.46,7.47-1.15,8.56,4.57,13.6,12.26,18.36,20.27,1.06,1.79,1.08,5,4.65,4,2.32,5.36,10.11,5.9,10.9,12.89.43,3.87,4.5,5.85,6.85,8.72a84.68,84.68,0,0,1,12.55,20.31A73.82,73.82,0,0,1,185.56,87c-1.41,1.11-2.84-1-4.56.06-.68,1.86,1.49,3.69.75,5.74-3.25,1.67-5.89-.07-8.45-1.67s-4.68-2.25-7.13-.17c-.28,2.23,2.22,3.88,1.59,6.3-.37-.08-.62-.06-.68-.16-3-5.2-7.78-8.71-12.49-12.07a20.1,20.1,0,0,1-6.29-7.27c-2.25-4.22-5.1-8-6.51-12.78-1.72-5.91-6.07-10.51-11.67-13.42-5.05-2.63-9.51-5.84-12.59-10.71-1.15-1.83-2.31-1.81-3.66-.22A16.93,16.93,0,0,1,112,42.46c-.53.45-1.26.82-1.87.4a1.65,1.65,0,0,1-.25-2.34C110.84,39,112,37.51,113.61,35.16Z"/></g></g></svg>