<svg xmlns="http://www.w3.org/2000/svg" viewBox="0 0 40.66 107.8"><defs><style>.cls-1{fill:#2c2a26;}</style></defs><title>Asset 22d1</title><g id="Layer_2" data-name="Layer 2"><g id="Layer_1-2" data-name="Layer 1"><path class="cls-1" d="M25.84,31.53c2.44,9.08,5.9,17.83,8.62,26.8,1.68,5.56,3.47,11.22,3.66,17.25.17,5.14,1.37,10.25,2.11,15.38.1.68.44,1.47.23,2-1.84,4.9.65,9.66.13,14.69-1.11.48-2.2-.82-3.63-.51-4.73,1-7.21-.47-8.58-5.39S26.09,91.62,25,86.53a1.9,1.9,0,0,0-.45-2.25c-.27-4.18-1.69-8.13-2.42-12.22,2.1-.89,1.47-2.81,1.81-4.45.92-4.48-.49-8.91.13-13.43.72-5.29.52-10.58-1.84-15.72-1.79-3.9-2.7-8.2-3.94-12.35A1.54,1.54,0,0,1,19.21,24a1.94,1.94,0,0,1,2.27.85,6.71,6.71,0,0,1,.9,2.38A6.37,6.37,0,0,0,25.84,31.53Z"/><path class="cls-1" d="M25.84,31.53a6.37,6.37,0,0,1-3.46-4.3,6.71,6.71,0,0,0-.9-2.38A1.94,1.94,0,0,0,19.21,24a1.54,1.54,0,0,0-.94,2.11c1.24,4.15,2.15,8.45,3.94,12.35,2.36,5.14,2.56,10.43,1.84,15.72-.62,4.52.79,9-.13,13.43-.34,1.64.29,3.56-1.81,4.45-2.14-1.35-2.75-3.46-2.94-5.8a53.89,53.89,0,0,0-3.65-16.2c-1.52-3.69-2-7.73-3-11.58C11,32.07,8.21,26,7.5,19.34a10.32,10.32,0,0,0-2.25-5.2C2.91,11,1.89,7.28.22,3.85A1.6,1.6,0,0,1,.45,1.91c.58-.58,1.21-.36,1.85,0C5.76,4,5.77,4,8.1,0A96.88,96.88,0,0,1,14,8c4.11,6.85,8.43,13.6,11.45,21A10.36,10.36,0,0,1,25.84,31.53Z"/><path class="cls-1" d="M24.53,84.28A1.9,1.9,0,0,1,25,86.53C23.73,86,23.64,85.24,24.53,84.28Z"/></g></g></svg>