<svg xmlns="http://www.w3.org/2000/svg" viewBox="0 0 37.65 89.18"><defs><style>.cls-1{fill:#2c2a26;}</style></defs><title>Asset 23d2</title><g id="Layer_2" data-name="Layer 2"><g id="Layer_1-2" data-name="Layer 1"><path class="cls-1" d="M25.19,37.53a6.91,6.91,0,0,0,1.64,3.57c-.23,1.85.64,3.32,1.64,4.75,3.6,11.48,6.82,23.05,8.62,35a25,25,0,0,1,.56,3.61c0,2.7-1.79,4.22-4.48,4.62-4.85.73-8.71-2.1-13-3.28a3.22,3.22,0,0,0-2.23-2.22c-.91-3.06-.06-6,.53-9a2.1,2.1,0,0,0,.12-2.21l.24-3.07c1.49-3.66-.93-7.13-.66-10.57.49-6.1-1.66-11.48-3.34-17-.65-2.16-1.42-4.17-1.18-6.55A6.22,6.22,0,0,0,12,30c-1.81-2-3.18-4.62-.3-7.18,1.18-1.05.57-2.61.7-4,.16-1.61-1-3.23-.08-5.2,2.1,1.22,2.66,3.06,3,4.87a4.32,4.32,0,0,0,3.16,3.69C20,26.51,21.21,31,24.3,34.59A2.65,2.65,0,0,0,25.19,37.53Z"/><path class="cls-1" d="M19.07,22.18a4.32,4.32,0,0,1-3.17-3.69c-.37-1.81-.94-3.65-3-4.87-.93,2,.25,3.59.08,5.2-.13,1.35.48,2.91-.7,4-2.88,2.56-1.51,5.19.3,7.18a6.23,6.23,0,0,1,1.66,5.18c-.25,2.38.52,4.39,1.17,6.55,1.68,5.55,3.83,10.93,3.34,17-.27,3.44,2.15,6.91.66,10.57-3.16-5.66-3.05-12.07-4-18.22-.37-2.25-.47-4.49-1.92-6.39A10.72,10.72,0,0,1,12,40.79C9.14,30.57,6.19,20.38,3.31,10.16,2.56,7.51,0,5.63,0,2.86a2.41,2.41,0,0,1,2.61-.79C4.44,2.3,5-1.19,7,.43,8.34,1.48,9.2,3.1,10.24,4.48c3.59,4.75,6.09,10.14,9,15.29A1.91,1.91,0,0,1,19.07,22.18Z"/><path class="cls-1" d="M29,45.85c-1-1.43-1.87-2.9-1.64-4.75C29.75,42.06,29.5,43.92,29,45.85Z"/><path class="cls-1" d="M25.76,37.53a2.65,2.65,0,0,1-.88-2.94A2.16,2.16,0,0,1,25.76,37.53Z"/><path class="cls-1" d="M18.48,83.56a3.22,3.22,0,0,1,2.23,2.22A2.16,2.16,0,0,1,18.48,83.56Z"/><path class="cls-1" d="M19.13,72.36A2.1,2.1,0,0,1,19,74.57C17.79,73.76,17.92,73,19.13,72.36Z"/></g></g></svg>