<svg xmlns="http://www.w3.org/2000/svg" viewBox="0 0 65.76 89.28"><defs><style>.cls-1{fill:#2c2a26;}</style></defs><title>Asset 8d3</title><g id="Layer_2" data-name="Layer 2"><g id="Layer_1-2" data-name="Layer 1"><path class="cls-1" d="M10.53,4.49,26.47,26.42A132.64,132.64,0,0,0,36.89,43.21a2.76,2.76,0,0,0,1.67,2.21,12.65,12.65,0,0,0,3.7,6.7l2.06,3.54c3.31,5.83,6.4,11.8,10,17.45A29.38,29.38,0,0,0,65.76,84a5.73,5.73,0,0,1-3.65,1.76c-.65.14-1.78-.16-1.87.51-.59,4.19-4,3-6,2.62-4.61-.73-9.11-1.91-12.64-5.64C36.47,77.82,33.35,71.28,29.9,64.9c-.65-1.19-.66-2.76-2-3.51l-1-2.52c-5-12.51-9.63-25.22-17.64-36.26L7.54,19.38c-1-2-1.21-4.44-3.45-5.66C3.05,11.48,2,9.23,1,7A43.41,43.41,0,0,1,0,2C-.13.18,1.07-.44,2.71.31a3.33,3.33,0,0,1,2,2.77c.22,1.46-.16,3.1,1.09,4.26C8,7.26,9.24,5.87,10.53,4.49ZM60,87.24a.85.85,0,0,0,.77-1,1,1,0,0,0-1-.91,1,1,0,0,0-1.05.83C58.65,86.88,59.22,87.26,60,87.24Z"/></g></g></svg>