<svg xmlns="http://www.w3.org/2000/svg" viewBox="0 0 41.35 77.72"><defs><style>.cls-1{fill:#2c2a26;}</style></defs><title>Asset 24d4</title><g id="Layer_2" data-name="Layer 2"><g id="Layer_1-2" data-name="Layer 1"><path class="cls-1" d="M.92,9.77c2-.82,3.59-.22,4.9,1.77A26.36,26.36,0,0,1,2,2.64C1.85,1.61,1.81.45,3.11.07c1-.29,1.53.43,2.1,1.13A107.25,107.25,0,0,1,17.29,19.89c4.48,8.56,8.85,17.26,12,26.49C30.48,50,32.08,53.54,33,57.24a14,14,0,0,0,5.33,8.6,7.79,7.79,0,0,1,3.06,5.4L34.81,73c-2.19.57-4.31,1.16-5.52,3.4-1,1.88-2.49,1.57-3.95.5a9.81,9.81,0,0,1-4-5.3c-2.92-11-7.08-21.6-10-32.62C9.07,30.63,5.2,22.76,1.94,14.74a8.84,8.84,0,0,1-.89-5Z"/><path class="cls-1" d="M1.05,9.71C.08,9.38-.33,8.78.3,7.86a.8.8,0,0,1,1.29,0c.81,1,0,1.44-.67,1.92Z"/></g></g></svg>