<svg xmlns="http://www.w3.org/2000/svg" viewBox="0 0 65.77 73.35"><defs><style>.cls-1{fill:#2c2a26;}.cls-2{fill:#959188;}</style></defs><title>Asset 9d5</title><g id="Layer_2" data-name="Layer 2"><g id="Layer_1-2" data-name="Layer 1"><path class="cls-1" d="M16.52,20.37c-.19-4-3.56-5.84-6.1-8-1.33-1.1-2.87-1.73-3.32-3.59C6.81,7.64,5.82,7.26,4.8,7c-2.67-.8-3.39-2.1-1.08-4.18C2.72-1.77,5.05.39,6.59,1.42,15,7,23.42,12.47,29.48,20.77A5.4,5.4,0,0,0,30.42,22c9.36,6.8,14.91,16.75,21.4,25.92,4.52,6.38,9,12.83,13.41,19.26a1.8,1.8,0,0,1,.27,2.21c-1.83.68-3.82-.64-5.72-.47-1.67,1.83,1.09,2.77.55,4.36a3.55,3.55,0,0,1-1.42,0,8.74,8.74,0,0,1-3.31-2.48c-7.14-9.17-14.41-18.26-21.4-27.55-2.24-3-5.66-5-7.32-8.71,2.85-1.3,3.57,1.94,6,2.06-2.52-3.24-3.52-7.12-7.29-9.24-1.52-.86-2.43-2.9-3.46-4.5a5.21,5.21,0,0,0-5.73-2.59ZM38.14,38.15a2.69,2.69,0,0,0,0-.4,1,1,0,0,0-.14-.23c.1.21.19.43.29.63h-.12Zm19.09,25c-.38-1.21-.59-2.63-2.48-2.2.52,1.15,1,2.27,2.58,2.13-.15.39,0,.59.29.58,0,0,.05-.24,0-.29A1.71,1.71,0,0,0,57.23,63.19ZM47.9,50.57c.35,3.34,2.8,5.27,5,7.35a14.4,14.4,0,0,0-5.11-7.26,7.63,7.63,0,0,0-3.77-5C44.83,48,45.17,50.18,47.9,50.57Zm-6.8-9.12a1.37,1.37,0,0,0,.16.43c.36.34.61.28.64-.16,0-.1-.21-.25-.36-.31A1.15,1.15,0,0,0,41.1,41.45ZM59.27,66c.5-.1.52-.28,0-.47-.08,0-.24.12-.37.19Z"/><path class="cls-1" d="M13.24,20.29l-.49-.13c-1.66-.36-3.52-.53-3.31-2.93a.86.86,0,0,1,1.13-.72c1.75.68,3.39,1.51,2.58,3.91Z"/><path class="cls-1" d="M16.43,23.36c-2.33.28-3.1-1.05-3.19-3.08l-.09.14c1.11-1.08,2.24-.16,3.37-.05l-.12-.12c0,1.07,0,2.14,0,3.21Z"/><path class="cls-1" d="M25.11,30.59a.79.79,0,0,1-.86.74,2.29,2.29,0,0,1-2.14-1.84c-.24-.74.39-.9.85-.9A1.93,1.93,0,0,1,25.11,30.59Z"/><path class="cls-1" d="M16.35,23.46a2.38,2.38,0,0,1,.91-.3c.81.11,1.73.19,1.79,1.3a1,1,0,0,1-.5.75,1.41,1.41,0,0,1-2-.87,3.93,3.93,0,0,1-.12-1Z"/><path class="cls-1" d="M.81,3.21c-.47-.06-.9-.27-.79-.88a1,1,0,0,1,.54-.65.79.79,0,0,1,1.07.59C1.76,2.83,1.42,3.15.81,3.21Z"/><path class="cls-2" d="M41.1,41.45a1.15,1.15,0,0,1,.44,0c.15.06.36.21.36.31,0,.44-.28.5-.64.16A1.37,1.37,0,0,1,41.1,41.45Z"/><path class="cls-2" d="M38.25,38.16,38,37.52a1,1,0,0,1,.14.23,2.69,2.69,0,0,1,0,.4Z"/><path class="cls-2" d="M59.27,66l-.34-.28c.13-.07.29-.22.37-.19C59.79,65.75,59.77,65.93,59.27,66Z"/><path class="cls-2" d="M57.23,63.19a1.71,1.71,0,0,1,.4.22c0,.05,0,.29,0,.29-.34,0-.44-.19-.29-.59Z"/><path class="cls-2" d="M38.14,38.15h0Z"/></g></g></svg>