<svg xmlns="http://www.w3.org/2000/svg" viewBox="0 0 116.12 161.44"><defs><style>.cls-1{fill:#2c2a26;}</style></defs><title>Asset 11e1</title><g id="Layer_2" data-name="Layer 2"><g id="Layer_1-2" data-name="Layer 1"><path class="cls-1" d="M14.43,118.32c.19-.51.38-1,.56-1.54,3.12-3.15,6.5-11.61,6.35-15.89,0-.13-.23-.24-.36-.36,2.84-3.26,3.12-7.63,4.9-11.37,2.75-5.77,4.38-12.07,7-17.9,2.78-6.17,5.36-12.4,7.85-18.69,2.24-5.67,5-11.41,9.13-16.2,2-2.35,3.26-5.27,5.1-7.82,2.39-3.32,4.42-6.81,8-9.1A8,8,0,0,0,65,17.17c3-4.62,7.86-7.23,11.95-10.64,1.75-1.45,3.67-2.74,6.19-2a2.42,2.42,0,0,0,2.39-.67C90.3-.34,96.33.81,101.88,0a3.49,3.49,0,0,1,3.54,1.86c1.4,2.87,3.86,3.16,6.58,3.18,1.68,0,3.88-.33,4.1,2.1s-1.71,3-3.69,3.63C106.6,12.51,100.7,14,95.09,16.27,86.38,19.74,79.43,26,73.65,33.06c-3.81,4.66-8.2,8.82-11.41,14.11C56.35,56.86,51.36,67,46.07,77c-4.64,8.76-8.72,17.83-13.28,26.6-6.12,11.77-11.89,23.73-18.41,35.3-2.08-1.1-3.93-1.68-4.47,1.61a2.26,2.26,0,0,1-1.74,1.74l.09.09c.27-1,.55-2,.8-3C10.76,132.29,13.88,125.64,14.43,118.32Z"/><path class="cls-1" d="M8.17,142.23a2.26,2.26,0,0,0,1.74-1.74c.54-3.29,2.39-2.71,4.47-1.61-.85,4.71-3.24,8.9-4.65,13.43-.77,2.46-3,3.62-5.63,3.7,0-1.12-.1-2.24-.14-3.36a8.42,8.42,0,0,0,.7-.64c.06-.07,0-.26,0-.4-.2.38-.4.76-.59,1.15A2.85,2.85,0,0,0,4.11,156c0,2.25.07,4.76-2.67,5.45-1.29.32-2.17-3.31-.6-6.52,3.85-7.83,4.78-16.59,8.23-24.54a60.2,60.2,0,0,0,2.38-7.4c.54-1.86,1.14-3.63,3-4.64-.55,7.32-3.67,14-5.37,21-.25,1-.53,2-.79,3-1.12,1.24-2.43,2.41-1.64,4.78A5.19,5.19,0,0,0,8.17,142.23Z"/><path class="cls-1" d="M21,100.53c.13.12.36.23.36.36.15,4.28-3.23,12.74-6.35,15.89C15.48,110.8,16.6,105.06,21,100.53Z"/><path class="cls-1" d="M8.17,142.23a5.19,5.19,0,0,1-1.54,4.87c-.79-2.37.52-3.54,1.64-4.78Z"/><path class="cls-1" d="M4,152.75l.6-1.14c0,.14.08.33,0,.4-.21.24-.47.43-.7.65Z"/><path class="cls-1" d="M4.11,156a2.85,2.85,0,0,1-.06-3.21l-.09-.1c0,1.11.09,2.23.14,3.35Z"/></g></g></svg>