<svg xmlns="http://www.w3.org/2000/svg" viewBox="0 0 109.31 107.69"><defs><style>.cls-1{fill:#2c2a26;}</style></defs><title>Asset 12e2</title><g id="Layer_2" data-name="Layer 2"><g id="Layer_1-2" data-name="Layer 1"><path class="cls-1" d="M28.19,63.23a1.25,1.25,0,0,0,.5-.73c1.46-.65,1.68-2,1.93-3.36A207.29,207.29,0,0,1,51.44,33.46,103.89,103.89,0,0,1,85.89,8.74c3.21-1.4,6.5-2.82,10-3.07A16.72,16.72,0,0,0,107.05.75a2.21,2.21,0,0,1,2.26-.68c-3.47,5.22-7.44,9.56-13,12.3-4.37,2.16-8.7,4.42-13.07,6.59-5,2.48-8.93,6.49-13.61,9.47C62.45,33,56.81,39.61,51.18,45.79,46.22,51.23,40.42,56.24,36.9,63c.78-1.33.65-2.79-.57-3.48s-2.13.75-2.9,1.58c-.92,1-1.57,2.26-2.46,3.3C29,66.73,28.61,64.87,28.19,63.23Z"/><path class="cls-1" d="M28.19,63.23c.42,1.64.78,3.5,2.78,1.15.89-1,1.54-2.29,2.46-3.3.77-.83,1.59-2.32,2.9-1.58s1.35,2.15.57,3.48C33.51,67.77,30,72.45,26.57,77.21s-6.48,9.88-9.95,14.64C12.18,97.93,6,102.38.68,107.69L0,107.13c.8-4.81,4.27-8.27,6.45-12.37,2.34-4.41,5.64-8.33,8.63-12.38a30,30,0,0,0,2.56-4.51A67.87,67.87,0,0,1,28.19,63.23Z"/><path class="cls-1" d="M30.62,59.14c-.25,1.34-.47,2.71-1.93,3.36C28.64,61,28.87,59.62,30.62,59.14Z"/></g></g></svg>