<svg xmlns="http://www.w3.org/2000/svg" viewBox="0 0 86.36 50.63"><defs><style>.cls-1{fill:#2c2a26;}</style></defs><title>Asset 13e3</title><g id="Layer_2" data-name="Layer 2"><g id="Layer_1-2" data-name="Layer 1"><path class="cls-1" d="M11,36.68c2.61-3,5.44-5.83,7.79-9,4.27-5.8,10-10.07,15.3-14.7,8-7,17.38-12,28.4-12.88A28.6,28.6,0,0,1,73.82,1.63a46,46,0,0,1,12.54,6.5A24.13,24.13,0,0,1,74.83,9.5c-11.94-1.25-23,1.78-33.08,7.59C31.09,23.22,20.63,29.82,12,38.84A3.39,3.39,0,0,0,11,36.68Z"/><path class="cls-1" d="M11,36.68a3.39,3.39,0,0,1,1,2.16C8.27,43,5.28,47.91,0,50.63,2.69,45.22,6.05,40.33,11,36.68Z"/></g></g></svg>