<svg xmlns="http://www.w3.org/2000/svg" viewBox="0 0 116.7 101.82"><defs><style>.cls-1{fill:#2c2a26;}</style></defs><title>Asset 2e4</title><g id="Layer_2" data-name="Layer 2"><g id="Layer_1-2" data-name="Layer 1"><path class="cls-1" d="M81.05.91A89,89,0,0,1,95.74.76a9,9,0,0,0,5.34.79c5.21,1.33,10.37.57,15.62-.74C114.91,7.68,106,12.07,100.08,11.73c-3.5-.2-7,.29-10.44.31-8.23,0-14.6,4-20.62,9C65,24.36,61.44,28.24,57.1,31.39c-5,3.64-8,9.62-12.16,14.27-5.56,6.18-9.71,13.38-14.65,20-3.73,5-8.91,8.5-12.15,13.77-3.29-.19-3.29-.19-2-2.32,1.83-3,4-5.73,5.41-8.87C23.43,64,28.17,62,29.2,57.33c3.27-1.27,3.37-4.2,3.75-7,.16-1.28,1.15-2.08,2-2.95a17,17,0,0,0,2.66-3.08c2.08-3.35,1.57-8.39,6.39-10,.37-.13.34-1.28.59-1.92a24.18,24.18,0,0,1,5.72-9.2c1.94-1.79,4.87-3,4.59-6.45-.06-.85.85-1.4,1.54-2a6.33,6.33,0,0,0,2.39-4.46l.08-.1C60,9.91,61,9.64,61.34,8.39A1.07,1.07,0,0,0,62,7.72c2.4.71,3.67-.44,4.29-2.62l3.1-1.39Z"/><path class="cls-1" d="M58.85,10.25a6.33,6.33,0,0,1-2.39,4.46c-.69.57-1.6,1.12-1.54,2,.28,3.49-2.65,4.66-4.59,6.45a24.18,24.18,0,0,0-5.72,9.2c-.25.64-.22,1.79-.59,1.92-4.82,1.63-4.31,6.67-6.39,10A17,17,0,0,1,35,47.35c-.87.87-1.86,1.67-2,2.95-.38,2.83-.48,5.76-3.75,7-1,4.67-5.77,6.71-7.63,10.89-1.39,3.14-3.58,5.92-5.41,8.87-1.31,2.13-1.31,2.13,2,2.32C18,81.28,16.85,82.64,15.79,84c-4.27,5.51-8.6,11-12.91,16.46A2.57,2.57,0,0,1,0,101.75c2.47-7.39,5.38-14.39,9.87-20.58,3.69-5.08,6.75-10.57,10.32-15.65C28.32,54,34.57,41.34,42.06,29.45a6.24,6.24,0,0,0,.76-1.38c2.25-7.48,8.8-11.45,13.7-16.77A3.34,3.34,0,0,1,58.85,10.25Z"/><path class="cls-1" d="M81.05.91,69.42,3.71C72.88,1,76.61-.5,81.05.91Z"/><path class="cls-1" d="M66.32,5.1C65.7,7.28,64.43,8.43,62,7.72,62.64,5.5,64.45,5.25,66.32,5.1Z"/><path class="cls-1" d="M101.08,1.55A9,9,0,0,1,95.74.76C97.7-.18,99.58-.57,101.08,1.55Z"/></g></g></svg>