<svg xmlns="http://www.w3.org/2000/svg" viewBox="0 0 91.07 94.19"><defs><style>.cls-1{fill:#2c2a26;}</style></defs><title>Asset 14e5</title><g id="Layer_2" data-name="Layer 2"><g id="Layer_1-2" data-name="Layer 1"><path class="cls-1" d="M9.82,75.64c.22-.39.44-.77.65-1.17,2.1,0,2.65-1,2.12-2.92A55.44,55.44,0,0,1,19,60.81c3.34-.8,4.32-3.17,4.2-6.28a.4.4,0,0,0,.25-.52c2.45-.56,3.66-2.61,4.65-4.5a67.9,67.9,0,0,1,9.24-14,12.07,12.07,0,0,0,3.15-6.26c.11-.33.22-.67.34-1a4.42,4.42,0,0,0,4.37-2.08A44.18,44.18,0,0,0,50.32,15.7a25.27,25.27,0,0,0,5.2-5.38c1.46.1,2-.7,1.91-2l2.16-1.82C61,7,62.06,6.66,62.52,5.1,71.24-.61,80.93-.33,91.07.36,90.42,3,88.14,2.81,86.69,3.7c-1.23.76-1.49,1.31.1,2,1.36.56-.11,1.1-.24,1.14A21,21,0,0,1,82,8c-6.75.59-12.13,4-17.17,8.11-6.08,5-11.13,11-16.33,16.85-4.15,4.66-8.33,9.34-12.25,14.16-4.08,5-8.69,9.68-12.13,15.26-1.24,2-3.32,3.53-4.91,5.36C14.49,73.27,9.79,78.82,5.08,84.35l0,.05a4,4,0,0,0,1.36-2.56c1.42-.63,1.18-1.66.66-2.76l.23-.14,0-.27C9.09,78.4,10.09,77.54,9.82,75.64Z"/><path class="cls-1" d="M40.53,29.21a12.07,12.07,0,0,1-3.15,6.26,67.9,67.9,0,0,0-9.24,14c-1,1.89-2.2,3.94-4.65,4.5a4.52,4.52,0,0,1,.94-4.42c4.84-5.1,7.37-11.75,11.6-17.26C37.23,30.76,38.31,29.23,40.53,29.21Z"/><path class="cls-1" d="M50.32,15.7a44.18,44.18,0,0,1-5.08,10.43,4.42,4.42,0,0,1-4.37,2.08c0-.51-.25-1.12,0-1.53C42.93,22.12,45.69,18.1,50.32,15.7Z"/><path class="cls-1" d="M5.12,84.4l0-.05C4.94,88.12,1.87,90.2.33,94.19-.68,89.59.57,87.47,5.12,84.4Z"/><path class="cls-1" d="M23.24,54.53c.12,3.11-.86,5.48-4.2,6.28C18.74,57.32,19.5,56.19,23.24,54.53Z"/><path class="cls-1" d="M7.14,79.08c.52,1.1.76,2.13-.66,2.76-.8-.35-1.59-.76-1.35-1.8S6.27,79,7.14,79.08Z"/><path class="cls-1" d="M62.52,5.1C62.06,6.66,61,7,59.59,6.47,60.21,5.25,61.34,5.12,62.52,5.1Z"/><path class="cls-1" d="M9.82,75.64c.27,1.9-.73,2.76-2.47,3C6.51,76.3,7.74,75.62,9.82,75.64Z"/><path class="cls-1" d="M57.43,8.29c0,1.33-.45,2.13-1.91,2A2.1,2.1,0,0,1,57.43,8.29Z"/><path class="cls-1" d="M12.59,71.55c.53,1.87,0,3-2.12,2.92C10.14,72.75,10.8,71.74,12.59,71.55Z"/></g></g></svg>