<svg xmlns="http://www.w3.org/2000/svg" viewBox="0 0 119.21 58.55"><defs><style>.cls-1{fill:#2c2a26;}</style></defs><title>Asset 15e6</title><g id="Layer_2" data-name="Layer 2"><g id="Layer_1-2" data-name="Layer 1"><path class="cls-1" d="M119.21,5.65C117.06,8,113.92,6.89,112,8.59c.22,1.58,2.18,1.22,2.45,2.63-.22.2-.44.58-.68.59a82.2,82.2,0,0,1-9.91.25c-12-1-22.6,3.06-33.06,8-9.1,4.32-18.37,8.34-27.27,13.05A392.87,392.87,0,0,0,7.24,54.28c-2,1.35-4.17,2.47-7.24,4.27C4.5,52.68,9.58,49,14.37,45.27,22.42,39,31.11,33.47,39.44,27.52c3.24-2.31,6.3-4.87,9.35-7.43,1.74-1.47,3.42-2.93,5.76-3.4a6.31,6.31,0,0,0,3.32-2.38c4.43-5,10.05-7.94,16.26-10.11A69,69,0,0,1,86.51.63c11-1.73,21.42.27,31.65,4.08C118.45,4.82,118.66,5.15,119.21,5.65Z"/></g></g></svg>