<svg xmlns="http://www.w3.org/2000/svg" viewBox="0 0 162.76 28.05"><defs><style>.cls-1{fill:#2c2a26;}</style></defs><title>Asset 4e7</title><g id="Layer_2" data-name="Layer 2"><g id="Layer_1-2" data-name="Layer 1"><path class="cls-1" d="M0,22c4.48-.58,8.44-2.48,12.55-3.87a132.75,132.75,0,0,1,20.07-5.24c6.14-1.06,12-3.54,18.1-4.81C64.49,5.22,78.14,1.66,92.19.49c15-1.23,29.81-.28,44.21,4.44,5.28,1.73,10.84,2.49,16,4.69a4.38,4.38,0,0,0,3,.17c1.69-.68,2.62-.6,2.92,1.39a2,2,0,0,0,1.8,1.62c1.87.32,2.89,1.54,2.54,3.3s-1.65,4-3.19,4.22c-3.78.5-5.62,3.27-8,5.46C148,29,146,28.85,143.25,25.16a15,15,0,0,0-7.55-5.1c-16.12-5.71-32.94-6.75-49.75-8-1.83-.14-3.38.71-5.1.89C71.24,14,61.76,16,52.09,16.61c-5,.31-9.9,1.41-14.91,1.84a61.34,61.34,0,0,0-11,2.41c-3.67,1.05-7.47.56-11.13,2-2.28.86-5,.76-7.48,1.84C4.54,26,1.74,25.6,0,22Z"/></g></g></svg>