<svg xmlns="http://www.w3.org/2000/svg" viewBox="0 0 46.39 48.19"><defs><style>.cls-1{fill:#2c2a26;}</style></defs><title>Asset 6f1</title><g id="Layer_2" data-name="Layer 2"><g id="Layer_1-2" data-name="Layer 1"><path class="cls-1" d="M14.56,12.9C11.06,7.87,6.88,3.67.42,1.8,1.86-.4,3.67-.14,5.2.31,9.9,1.69,14.38,3.51,18,7.09,23.74,12.87,29.16,19,35,24.77c4.9,4.89,7.67,11.35,11.44,18.18-4.64-1.71-7.1-4.66-9.92-7.11l.1.1a7,7,0,0,0-2.19-3.27l.11.13c-5.28-8.07-12.91-13.8-20-20Z"/><path class="cls-1" d="M36.47,35.84c.23,2.52,1.63,4.47,3,6.48a15.25,15.25,0,0,1,2.84,5.87c-2.55-.37-3.66-2.2-5-3.6-3.9-4-6.57-9-10.78-12.68A259.24,259.24,0,0,1,7.18,13.74a14.75,14.75,0,0,0-5.27-3.29C.82,10-.61,9.62.28,7.9A2.24,2.24,0,0,1,3.36,6.73c2.29,1.14,5,1.35,6.88,3.38a9.75,9.75,0,0,0,4.32,2.79l-.1-.12c5.28,8.06,12.7,14,20,20l-.11-.13c0,1.59.43,2.87,2.19,3.27Z"/></g></g></svg>