<svg xmlns="http://www.w3.org/2000/svg" viewBox="0 0 46.64 37.61"><defs><style>.cls-1{fill:#2c2a26;}</style></defs><title>Asset 29f2</title><g id="Layer_2" data-name="Layer 2"><g id="Layer_1-2" data-name="Layer 1"><path class="cls-1" d="M46.64,32.74c-3.41.12-5.58-1.14-7.89-.3-.25,2.65,2.77,2.87,3.61,5.07-2.43.42-4.23-.52-6.12-1.74-4-2.59-7.17-6.11-10.28-9.59C20.52,20.11,13.68,16.11,6.8,12.09,5.9,11.56,5,11,4.15,10.42,3.08,9.7,2.78,8.83,4,8c2.41-1.72.44-2.44-.72-3.38s-4-1-3-3.41C1.08-1,3.23.45,4.87.51c3.08.12,5.69,1.5,8.27,3,7.91,4.54,15.28,9.75,21,17A78.45,78.45,0,0,0,46.64,32.74Z"/></g></g></svg>