<svg xmlns="http://www.w3.org/2000/svg" viewBox="0 0 53.14 51.98"><defs><style>.cls-1{fill:#2c2a26;}</style></defs><title>Asset 30f3</title><g id="Layer_2" data-name="Layer 2"><g id="Layer_1-2" data-name="Layer 1"><path class="cls-1" d="M45.36,46.22c.28,1.84,2,3.26,1.78,5.76-3.85-1.3-5.3-4.43-7.25-7.12C35.31,38.56,30.54,32.39,26,26.08,20,17.8,12,12.22,1.63,9,4.2,6.71,6.49,7.6,8.4,8.09c2.2.55,4.3,1.25,7.32.86C11.14,4.19,5,3.91,0,1.51.27-.4,1.48,0,2.44.06,19.53.51,31.83,8.54,39.78,23.57c2.93,5.54,6,11,9.08,16.48a25.64,25.64,0,0,0,4.28,6.09l-6.44-.89C45.63,44.71,44.8,44.49,45.36,46.22Z"/></g></g></svg>