<svg xmlns="http://www.w3.org/2000/svg" viewBox="0 0 69.04 46.61"><defs><style>.cls-1{fill:#2c2a26;}</style></defs><title>Asset 31f4</title><g id="Layer_2" data-name="Layer 2"><g id="Layer_1-2" data-name="Layer 1"><path class="cls-1" d="M23.55,15.8C17.18,9.35,9.93,4.38,0,2.3,3.36.44,5.86,1,8.41,2a76.49,76.49,0,0,1,15.83,9c1.8,1.3,3.35,3,5.63,3.59l1.19,1.18A2.09,2.09,0,0,0,33,17.88a1.64,1.64,0,0,0,.19.4s.28,0,.29,0c0-.32-.17-.42-.56-.31.14-1.42-1-1.71-1.92-2.14l-1.16-1.17c-.28-1.38-2.51-2.06-1.22-4.09.92-1.45-.8-2.12-1.6-2.83C24,5.14,20.89,2.67,17.65,0c2.12-.07,3.5,1,5,1.86a54.59,54.59,0,0,0,8.46,3.8c5.44,1.91,10,5.46,14.12,9.52A222.47,222.47,0,0,1,61.39,33.59c2,2.53,4.07,5.26,7.65,6.87-2.79.67-5.29.06-7.87.21,0,2.77,2,4.09,4,5.94-3.73-.33-5.88-1.85-7.42-4.68s-4.94-4.33-6.65-7.22a1.12,1.12,0,0,0-.86-.53c-3.91.75-7.11-2-11.11-2.71.29,4,4.08,4.7,5.13,7.36-4.81,1.65-5,1.66-7.62-2.49-6.53-10.37-15.55-18-26.08-24A49.42,49.42,0,0,0,4.16,9.84c2.55-1.26,4.4-.23,6.29.29,4.62,1.25,8.27,4.38,12.5,6.38.5.38,1,.7,1.66.31-.13.82.27,1.12,1,1.07A4.24,4.24,0,0,0,28.78,21c.27.42.55.85.83,1.26a.89.89,0,0,1,.2-.06l-.31.12c.12-.66.11-1.24-.79-1.25.27-2.33-1.49-2.68-3.11-3.17a1,1,0,0,0-1.06-1A1.17,1.17,0,0,0,23.55,15.8Zm14.64,6.31a1.76,1.76,0,0,0-1.55-1.68.9.9,0,0,0-.37.69,1.38,1.38,0,0,0,1.92,1c-.09.78.26,1.13,1,1.07,2.2,5.18,4.2,6.87,8.08,6.52-2.52-2.61-4.92-5-8.06-6.54A1.09,1.09,0,0,0,38.19,22.11Zm2.72-7.48.36-.34a2.61,2.61,0,0,0-.65-.32c-.08,0-.22.19-.33.29ZM51.34,26.31c.11-.13.32-.27.3-.36a3,3,0,0,0-.29-.67c-.11.11-.33.23-.32.32A3.84,3.84,0,0,0,51.34,26.31Z"/></g></g></svg>