<svg xmlns="http://www.w3.org/2000/svg" viewBox="0 0 45.47 55.95"><defs><style>.cls-1{fill:#2c2a26;}</style></defs><title>Asset 10g1</title><g id="Layer_2" data-name="Layer 2"><g id="Layer_1-2" data-name="Layer 1"><path class="cls-1" d="M24.1,15.33c-4.56,4-9.9,4.27-14.8,5.8-2.45.77-5.22-.1-5.77-2.58C3.06,16.38,1.81,14.81.87,13-.86,9.69,0,7.81,3.58,7.11A24.14,24.14,0,0,0,16,1.1,3.22,3.22,0,0,1,20.22.51c2.05,1,3.69,1.6,6.22.31,2.76-1.4,9.35,2.43,11.23,5.8a46.36,46.36,0,0,1,5.56,28.56c-.46,3.94-1.92,7.92,2,11.12.81.66-.47.83-.7,1.2-1,1.56-3.51,2.76-1.39,5.3.6.71-3.43,3.52-4.62,3.11a2.75,2.75,0,0,1-1.36-.73C34.12,50.9,29.35,48,28.52,42c-.73-5.3-2.22-10.49-2.18-15.93C26.37,22.78,25.38,19.59,24.1,15.33Z"/></g></g></svg>