<svg xmlns="http://www.w3.org/2000/svg" viewBox="0 0 39.74 64.14"><defs><style>.cls-1{fill:#2c2a26;}</style></defs><title>Asset 17g2</title><g id="Layer_2" data-name="Layer 2"><g id="Layer_1-2" data-name="Layer 1"><path class="cls-1" d="M13.3,13.82c-2.66,1.38-4,3.23-5.77,4.66-.9.75-1.63,2.12-3.06,1.29-1.67-1-1-2.31-.29-3.59.33-.6.6-1.23,1-2.09C4.3,14,3.62,14.06,3,14-.12,13.46-.62,12.58.65,9.85,2.27,6.34,4.91,3.6,7.63,1,8.29.31,9.34-.25,10,.12,13.7,2.26,18.28-.44,21.8,2.33s5.35,6.77,6.8,10.89c3,8.38,4.74,17.07,6.59,25.74A56.3,56.3,0,0,0,38.9,50.34c.91,2,1.34,4-.08,5.92C37.56,57.93,38,60,37.38,61.71c-1,2.68-1.81,3.08-4.2,1.49a20.6,20.6,0,0,1-8.73-12.49C21.81,40.28,18.58,30,16.33,19.48,15.91,17.55,14.42,15.86,13.3,13.82Z"/></g></g></svg>