<svg xmlns="http://www.w3.org/2000/svg" viewBox="0 0 41.75 86.26"><defs><style>.cls-1{fill:#2c2a26;}</style></defs><title>Asset 18g3</title><g id="Layer_2" data-name="Layer 2"><g id="Layer_1-2" data-name="Layer 1"><path class="cls-1" d="M13.08,15.14C9.84,16.59,8.56,18.49,8,21c-.22,1-.32,2.28-1.64,2.31a3.18,3.18,0,0,1-3.08-1.64A30.9,30.9,0,0,1,0,7.67,3.25,3.25,0,0,1,1.89,4.72C6.26,2.69,10.27-.4,15.51,0,19.32.36,23.16,0,27,.82a8.93,8.93,0,0,1,7,6.25c4.68,15.13,8.29,30.46,7.76,46.5a78.24,78.24,0,0,1-1.14,11.95c-.43,2.23-1.19,4.48.28,6.53,1.94,2.71-2.2,3.35-1.75,5.66.33,1.72,2.37,3.94-.83,5.23-.83.34-.5,1.2-.4,1.86s-.1,1.61-.92,1.44c-3.16-.67-6.77-.36-8.84-3.66A73.79,73.79,0,0,1,23,74.11a33.43,33.43,0,0,0-3.49-6.3c-2.62-3.5-2.66-7.88-2.23-11.84C18.71,42.23,15.86,29.06,13.08,15.14Z"/></g></g></svg>