<svg xmlns="http://www.w3.org/2000/svg" viewBox="0 0 75.74 56.49"><defs><style>.cls-1{fill:#2c2a26;}</style></defs><title>Asset 19g4</title><g id="Layer_2" data-name="Layer 2"><g id="Layer_1-2" data-name="Layer 1"><path class="cls-1" d="M43,17.78c-2.46,1.47-3.41,3.82-5.13,5.79-1-1.64-1.32-3.72-3.78-.89-8.57,9.87-17.52,19.4-26.43,29a24.84,24.84,0,0,0-3.06,4.84c-1.75-.74-.75-2.67-1.68-3.13C-2,51,.45,47.4,2,44.85,4,41.48,5.94,38,8.7,35c7.24-7.76,13.82-16.11,22.05-23,3.6-3,6.57-6.71,9.75-10.17,1.44-1.56,2.92-2.63,5-1.3,1.82,1.18,4.25-.38,5.88,1.45a1,1,0,0,0,.89.16c.86-.42.31-2.89,2.27-1.67a8.13,8.13,0,0,1,2.84,3.69c.73,1.58,1.4,3.2,2,4.84a155.89,155.89,0,0,1,8,29.71c.66,4.51,3.62,7.83,5.55,11.69.55,1.11,2,.47,2.9,1.49-1,1.94-2.67,2.29-4.67,2.14-3.7-.27-6.86-2.54-10.6-2.75-.95-.06-1.06-1.2-1.39-2a16.27,16.27,0,0,0-4.54-6.25c-6.33-5.39-8.43-12.88-10.21-20.53C44,21.07,44.29,19.41,43,17.78Z"/></g></g></svg>