<svg xmlns="http://www.w3.org/2000/svg" viewBox="0 0 42.78 42.86"><defs><style>.cls-1{fill:#2c2a26;}</style></defs><title>Asset 20g5</title><g id="Layer_2" data-name="Layer 2"><g id="Layer_1-2" data-name="Layer 1"><path class="cls-1" d="M42.78,3.82c-3.1,2.62-1.84,7-4.54,9.7-.77.78-1.26,2.19-2.34,3.07a9.85,9.85,0,0,0-2.81,3c-2.16,4.52-6,7.49-9.42,10.89-2.58,2.57-4.88,5.43-7.4,8.07a18.34,18.34,0,0,1-4,3.36c-3.29,1.89-5.89.79-6.63-2.8-.53-2.58-.89-4.94-3.44-6.6-1.68-1.09,2.1-2.44.4-4.27-1-1.08-2.71-1.89-2.64-3.69a1.33,1.33,0,0,1,1.91-1.15,51.55,51.55,0,0,1,6.85,2.44c1.94.95,3,.6,4.4-1,5.11-6.11,10.28-12.17,15-18.62a12,12,0,0,0,2-3C31.31-.12,32.52-.7,35.73.74,37.92,1.73,39.92,3.14,42.78,3.82Zm-31,33.23a.94.94,0,0,0,.55-1.17c-.22-.62-.67-1.12-1.42-.92-.18,0-.36.55-.33.81A1.27,1.27,0,0,0,11.78,37.05Z"/></g></g></svg>