<svg xmlns="http://www.w3.org/2000/svg" viewBox="0 0 123.24 104.82"><defs><style>.cls-1{fill:none;stroke:#d7d7d7;stroke-miterlimit:10;}</style></defs><title>Asset 3</title><g id="Layer_2" data-name="Layer 2"><g id="Layer_1-2" data-name="Layer 1"><path class="cls-1" d="M564.22,638.75c1.41-2.08,2.46-5.34,3-10.33,1.4-4.93-23.65-11.49-34.66-4.66-9,5.62-18.81-2-23.66-10.08s3.39-17.54,0-46.25S474.54,555.27,464.57,557c-3.41.59-6.83,3.23-9.84,7.69-5.78,8.57-10,23.84-9.68,44.11.51,30.8,9.39,25.78,24.94,37s39.84,8.41,39.84,8.41,29.05-12.6,37.57-12.72c6.26-.09,12.92,3.06,16.82-2.73" transform="translate(-444.53 -550.19)"/></g></g></svg>