<?xml version="1.0" encoding="UTF-8"?><svg id="Layer_2" xmlns="http://www.w3.org/2000/svg" viewBox="0 0 141.94 138.31"><defs><style>.cls-1{fill:#020202;}</style></defs><g id="Layer_1-2"><path class="cls-1" d="m17.13,128.24c.78-1.2-.22.33.24-.37.2-.31.41-.62.62-.93.37-.55.75-1.11,1.13-1.65.89-1.28,1.8-2.55,2.74-3.8,1.69-2.27,3.45-4.5,5.25-6.69,3.72-4.51,7.64-8.85,11.67-13.09.47-.49.93-.98,1.4-1.46.66-.69-1.07,1.1-.03.03.21-.22.42-.43.63-.65,1.05-1.08,2.1-2.14,3.15-3.21,2.1-2.12,4.23-4.23,6.35-6.34,4.43-4.38,8.84-8.76,13.15-13.26,8.22-8.59,16.11-17.49,24.23-26.18.94-1.01,1.89-2.01,2.83-3.02.53-.56,1.05-1.11,1.58-1.67.21-.22.42-.44.64-.66.21-.22.42-.44.64-.66-.54.56-.64.67-.32.34,2.09-2.14,4.18-4.27,6.31-6.37,4.23-4.15,8.71-8.02,12.98-12.12,5.08-4.89,9.85-10.1,14.49-15.42,1.25-1.43,2.32-2.95,3.42-4.49.6-.84,1.19-1.68,1.82-2.5.24-.32.49-.64.74-.95.11-.13.22-.26.33-.39.06-.07.12-.14.18-.2-1.78,1.97-3.87,3.59-6.26,4.86l-4.44,2.42-3.03,1.15c.29-.05.21-.04-.24.02-.84.12-.27,0-.1.06.24.08.48.1.71.2l-.58-.26c2.49,1.24,3.33,5.07,3.95,7.5.68,2.68,1.02,5.42,1.57,8.12.35,1.71,8.85-3.11,9.56-3.55,1.99-1.25,4.04-2.56,5.72-4.2.68-.66,1.98-1.66,1.76-2.73-.72-3.5-1.12-7.04-2.24-10.45-.53-1.61-1.2-3.48-2.5-4.64-.57-.51-1.32-.89-2.08-1-.62-.09-1.28.05-1.88.17-2.89.58-5.82,2.28-8.26,3.81-3.73,2.33-6.92,4.97-9.49,8.51-1.17,1.61-2.24,3.31-3.51,4.84-2.44,2.96-5.07,5.8-7.69,8.6-.62.67-1.24,1.35-1.89,2,1.17-1.16.05-.06-.16.15-.32.33-.64.65-.97.98-1.41,1.41-2.84,2.8-4.3,4.16-5.52,5.13-11.06,10.19-16.33,15.59-5.62,5.76-11.09,11.67-16.53,17.61-5.08,5.55-10.14,11.11-15.32,16.56-.63.67-1.27,1.34-1.91,2,1.15-1.18.04-.05-.16.16-.32.33-.64.66-.96.99-1.4,1.43-2.8,2.84-4.22,4.25-2.65,2.62-5.3,5.23-7.94,7.86C21.39,110.42,9.54,122.95.15,137.46c-.75,1.16,1.5.8,1.66.77,1.86-.36,3.95-1.46,5.57-2.36,3.48-1.93,7.53-4.2,9.75-7.63h0Z"/></g></svg>