<?xml version="1.0" encoding="UTF-8"?><svg id="Layer_2" xmlns="http://www.w3.org/2000/svg" viewBox="0 0 43.67 45.89"><defs><style>.cls-1{fill:#020202;}</style></defs><g id="Layer_1-2"><path class="cls-1" d="m17.14,37.76c-.02-.44,0-.88.04-1.31l-.29,2.38c.1-.75.29-1.47.56-2.18l-.83,2.12c.53-1.32,1.28-2.53,2.14-3.66l-1.34,1.75c3.32-4.25,7.84-7.5,12.2-10.6,3.92-2.79,8.2-5.36,11.6-8.79s3.03-9.9-.09-13.57c-2.89-3.4-8.4-5.73-12.11-1.99s-8.14,6.31-12.26,9.26c-5.1,3.66-9.92,7.52-13.5,12.73C1.15,26.97-.14,30.97.01,34.71c.11,2.63.9,5.22,2.55,7.32,1.36,1.72,3.71,3.51,5.97,3.79s4.56-.11,6.14-1.8,2.56-3.94,2.46-6.25h0Z"/></g></svg>