<?xml version="1.0" encoding="UTF-8"?><svg id="Layer_2" xmlns="http://www.w3.org/2000/svg" viewBox="0 0 38.89 89.32"><defs><style>.cls-1{fill:#020202;}</style></defs><g id="Layer_1-2"><path class="cls-1" d="m18.72.38c.02,5.19.63,10.37.56,15.57s-1.16,9.73-2.92,14.46-3.44,9.41-5.48,13.96-4.79,9-6.43,13.8C2.66,63.39,1.89,68.89,0,74.1c6.54,1.32,13.07,2.64,19.61,3.95.08-1.57.13-3.14.14-4.7,0-.68-2.57-1.42-2.69-1.46-2.21-.76-4.57-1.32-6.86-1.76-.76-.15-10.05-1.86-10.05-.73,0,1.57-.05,3.14-.14,4.7-.04.67,2.62,1.43,2.69,1.46,2.21.76,4.57,1.32,6.86,1.76s4.65.91,7.01,1.03c.56.03,2.8.39,3.05-.3,1.67-4.61,2.48-9.43,3.88-14.12,1.46-4.92,4.08-9.31,6.24-13.93s3.82-9.29,5.62-13.98,3.23-9.16,3.49-14.09c.3-5.87-.48-11.74-.5-17.61,0-.69-2.56-1.41-2.69-1.46-2.21-.76-4.57-1.32-6.86-1.76-.75-.15-10.06-1.85-10.05-.73h0Z"/></g></svg>