<?xml version="1.0" encoding="UTF-8"?><svg id="Layer_2" xmlns="http://www.w3.org/2000/svg" viewBox="0 0 148.79 177.42"><defs><style>.cls-1{fill:#020202;}</style></defs><g id="Layer_1-2"><path class="cls-1" d="m16.99,171.92c2.37-2.25,3.85-4.97,4.86-8.04.73-2.23,1.17-4.55,2.07-6.72l-.55,1.29c1.15-2.6,3.04-4.71,4.72-6.98,2.04-2.75,3.12-5.84,4.3-9.02,2.41-6.48,5.16-12.83,7.85-19.19l-.55,1.29c6.95-16.32,15.89-31.83,26.06-46.35,1.36-1.95,2.72-3.83,3.72-6.01,1.15-2.51,2.06-5.12,3.12-7.67l-.55,1.29c.55-1.28,1.14-2.54,1.86-3.74.32-.54.67-1.06,1.04-1.58.2-.29.42-.57.63-.85.95-1.24-.48.54-.05.04,1.82-2.12,3.78-4.12,5.67-6.18,3.92-4.27,7.59-8.75,11.58-12.96,2.06-2.17,4.28-4.19,6.28-6.41,2.19-2.44,4.15-5.08,6.14-7.69.39-.52.79-1.03,1.19-1.54.2-.25.55-.56.67-.85-.05.13-1.07,1.25-.29.37.95-1.08,1.91-2.14,2.97-3.12.5-.47,2.53-1.91.31-.32.47-.33.9-.73,1.35-1.09,1.15-.9,2.32-1.77,3.49-2.63,3.03-2.23,6.05-4.47,8.84-7.01,1.07-.97,2.01-2.06,3.02-3.1.15-.15.31-.3.46-.46.91-.97-1.71,1.36-.73.62-2.5,1.89-5.67,3.08-8.77,3.39-.69.12-1.38.11-2.07-.01.18.04.36.1.54.17l-1.31-.51c1.06.47,1.99,1.22,2.76,2.08l-.75-.86c2.9,3.54,3.27,8.71,4.55,12.95,1.61,5.31,5.23,10.74,9.54,14.2,1.21.97,3.88.67,5.18.47,2.43-.38,5.14-1.36,7.26-2.61,1.83-1.08,7.61-4.84,4.48-7.35-.94-.76-1.79-1.59-2.6-2.48l.75.86c-2.48-2.88-4.7-6.43-5.93-10.04-1.08-3.16-1.58-6.49-2.68-9.64-1.37-3.94-4.21-7.48-8.63-7.87-5.12-.45-10.56,1.81-14.6,4.83-1.99,1.49-3.51,3.36-5.28,5.07-.21.21-.44.4-.65.6-.65.63.85-.78.8-.67-.17.38-1.01.84-1.34,1.09-.91.72-1.84,1.42-2.77,2.12-1.82,1.35-3.66,2.66-5.44,4.06-4.41,3.44-8.05,7.22-11.45,11.66-.66.86-1.31,1.73-1.97,2.59-.35.46-.71.92-1.06,1.38-.18.23-.38.45-.54.68.19-.28.88-1.05.29-.35-1.58,1.85-3.32,3.51-5.03,5.24-3.36,3.4-6.56,6.96-9.7,10.56-3.31,3.79-6.88,7.37-10.08,11.25-1.91,2.31-3.66,4.62-4.92,7.35s-2.16,5.4-3.29,8.08l.55-1.29c-1.11,2.54-2.61,4.72-4.19,6.98s-3.08,4.47-4.57,6.74c-3.09,4.71-6.04,9.5-8.83,14.39-5.76,10.06-10.61,20.48-15.11,31.15-1.24,2.93-2.47,5.87-3.66,8.82s-2.28,6.19-3.51,9.24l.55-1.29c-1.56,3.56-4.47,6.19-6.38,9.54s-2.44,7.36-3.91,11l.55-1.29c-.28.65-.59,1.29-.98,1.89l-.2.3c-.42.57-.27.4.45-.5-.29.2-.54.57-.79.81-.83.79-2.13,2.5-1.57,3.8s2.67,1.56,3.82,1.53c4.65-.12,9.67-2.29,13.03-5.49h0Z"/></g></svg>