<?xml version="1.0" encoding="UTF-8"?><svg id="Layer_2" xmlns="http://www.w3.org/2000/svg" viewBox="0 0 139.72 155.86"><defs><style>.cls-1{fill:#020202;}</style></defs><g id="Layer_1-2"><path class="cls-1" d="m15.19,46.04c1.82-3.2,4.08-6.09,6.15-9.13.98-1.44,1.91-2.92,2.72-4.47.88-1.7,1.53-3.49,2.37-5.2l-.56,1.12c.94-1.78,2.22-3.03,3.94-4.06l-1.08.63c2.54-1.45,5.31-2.44,7.86-3.86,1.52-.85,2.92-1.77,4.25-2.88,1.25-1.04,2.46-2.12,3.84-2.97l-1.08.63c.54-.31,1.09-.56,1.68-.76l-12.58-8.05c.32.47.58,1.03.93,1.48-.66-1.29-.81-1.56-.44-.8l.16.36c.2.47.32.98.54,1.44-.83-1.77-.24-.8-.11-.13.35,1.71.42,3.46.43,5.2v-1.48c0,3.88-.31,7.86.57,11.67.32,1.37.74,2.71,1.15,4.05.13.42.26.83.39,1.25.06.2.62,1.99.26.8s.16.61.21.82c.11.43.21.86.29,1.29.2,1.04.3,2.08.31,3.15v-1.48c-.03,2.88-.46,5.73-.37,8.62.08,2.55.5,5.1.96,7.61s.97,5.02,1.32,7.55.42,5.12.8,7.66c.83,5.57,2.51,10.98,4.18,16.34.35,1.11.7,2.23,1.06,3.34.19.59.37,1.17.56,1.76.09.29.18.58.27.87.07.22.13.43.2.65l-.27-.9c.64,2.33,1.29,4.65,1.84,7.01,2.22,9.46,3.62,19.1,6.33,28.44,1.39,4.8,3.06,9.42,5.06,14,2.48,5.67,6.03,10.95,11.23,14.47,2.99,2.02,6.49,3.76,10.19,3.77,2.69,0,5.31-.44,7.69-1.71,4.61-2.45,7.7-6.16,9.56-11.03.55-1.44-.86-4.03-1.52-5.11-1.29-2.09-3.31-4.2-5.32-5.59-2.22-1.53-7.4-4.6-8.89-.71-.21.55-.44,1.08-.69,1.61l.56-1.12c-1.51,3-3.74,5.55-6.61,7.31l1.08-.63c-1.89,1.1-3.92,1.76-6.11,1.94l1.47-.1c-.71.03-1.39-.02-2.09-.07-1.26-.1,1.69.55.55.13-.84-.31-1.04-.73.87.44-.71-.44-1.51-1.11,1.08.72-1.2-.85,2.25,2,1.18.99s1.97,2.27,1.05,1.11c-1.19-1.5,1.32,2,.56.8-.43-.68-1.43-2.77-.07.06-.27-.57-.56-1.13-.82-1.71-.55-1.22-1.07-2.47-1.59-3.7-.69-1.62-1.31-3.27-1.88-4.94-.29-.84-.55-1.68-.82-2.52-.48-1.51.44,1.56.01.04-.16-.57-.32-1.14-.48-1.71-.94-3.44-1.71-6.91-2.44-10.4-1.48-7.1-2.73-14.25-4.65-21.25-1.09-3.95-2.38-7.84-3.6-11.75-.14-.45-.28-.9-.42-1.35-.49-1.58.44,1.52-.02-.08-.26-.91-.53-1.82-.77-2.73-.53-1.97-1.01-3.96-1.4-5.96-.79-4.14-.88-8.35-1.59-12.5s-1.79-8.51-1.89-12.85v1.48c0-2.31.35-4.61.38-6.92.03-2.49-.26-4.79-.95-7.18-.41-1.42-.86-2.83-1.3-4.24-.09-.28-.17-.56-.26-.83.31,1.04.36,1.2.15.48-.1-.43-.22-.85-.32-1.28-.45-2.04-.54-4.13-.55-6.22v1.48c0-3.06.21-6.15-.19-9.19-.52-3.87-2.14-7.64-4.33-10.85-1.71-2.51-3.77-4.61-6.35-6.24-1.67-1.05-4.15-2.5-6.23-1.81-3.67,1.21-6.09,4.4-9.31,6.34l1.08-.63c-3.19,1.85-6.7,3.06-9.84,5.03-3.31,2.08-4.25,5.67-5.87,8.99l.56-1.12c-2.49,4.82-6.19,8.89-8.87,13.6-.84,1.48-.67,2.74-.03,4.33.84,2.11,2.6,4.29,4.27,5.79s3.78,3.2,6.07,3.86c1.11.32,3.56,1,4.32-.33h0Z"/><path class="cls-1" d="m81.46,148.98c11.55-9.02,16.08-23.29,22.31-35.96l-.75,1.52c2.71-5.5,5.56-10.96,7.95-16.61,1.08-2.54,1.98-5.08,2.62-7.77s1.18-5.28,2.33-7.75l-.75,1.52c2.52-5.07,6.98-8.82,9.81-13.71,1.71-2.96,3.09-6.12,4.3-9.31,1.09-2.87,2.03-5.83,3.36-8.6l-.75,1.52c2.24-4.54,5.02-8.92,4.88-14.19-.07-2.51-.6-4.8-1.75-7.05-1.01-1.97-2.74-4.38-4.71-5.53-1.38-.81-3.35-1.74-4.91-.78s-2.07,2.65-2.23,4.44c-.44,4.9.49,9.75,1.58,14.5.48,2.08.95,4.17,1.23,6.29.07.53.09,1.07.17,1.59-.08-1.54-.1-1.87-.06-1,0,.27.01.54.01.81,0,1.09-.09,2.18-.25,3.26l.31-1.92c-.39,2.33-1.21,4.48-2.24,6.59l.75-1.52c-2.99,5.93-6.86,11.27-8.31,17.86-.6,2.69-1.14,5.37-2.04,7.98-.97,2.78-2.17,5.47-3.47,8.11l.75-1.52c-2.64,5.31-5.61,11-9.8,15.27-2.22,2.26-4.74,4.22-6.85,6.59-2.48,2.8-3.51,6.15-5.11,9.44l.75-1.52c-.74,1.42-1.73,2.55-2.94,3.59l1.18-1.01c-1.52,1.27-3.13,2.42-4.62,3.72-1.64,1.43-2.51,2.97-3.46,4.94l13.28,10.84.26-1.74c.32-2.15-.81-5.22-1.75-7.05-1.01-1.97-2.74-4.38-4.71-5.53-1.38-.81-3.35-1.74-4.91-.78-1.64,1.01-1.96,2.64-2.23,4.44l-.26,1.74c-.31,2.1.78,5.28,1.75,7.05s2.21,3.5,3.85,4.84c1.1.89,2.74,2.02,4.26,1.84,1.87-.21,2.64-1.25,3.43-2.89l.16-.34-.75,1.52c.68-1.26,1.6-2.27,2.68-3.2l-1.18,1.01c2.03-1.68,4.32-3.12,6.05-5.13,1.97-2.27,2.7-5.3,3.97-7.96l-.75,1.52c1.73-3.38,4.76-5.84,7.5-8.37s4.75-5.14,6.67-8.17c2.26-3.57,4.24-7.31,6.08-11.12,1.53-3.17,2.94-6.44,3.89-9.83,1.16-4.15,1.65-8.37,3.54-12.29l-.75,1.52c1.9-3.77,4.19-7.32,6.05-11.11s2.9-8.07,2.79-12.38-.89-8.31-1.84-12.46c-.4-1.76-.78-3.52-1.03-5.3-.06-.4-.1-.79-.15-1.19-.22-2.16.02,1.66,0,.21-.01-.95,0-1.89.09-2.83l-13.59-8.92c.02.67-.03,1.32-.12,1.99l.31-1.92c-.33,1.77-1.01,3.41-1.8,5.02l.75-1.52c-1.62,3.26-3.26,6.44-4.53,9.85-1.18,3.17-2.31,6.35-3.77,9.4l.75-1.52c-3.47,7.03-9.98,12.03-12.61,19.53-1.24,3.54-1.68,7.3-3.03,10.8-1.5,3.88-3.27,7.64-5.1,11.37l.75-1.52c-2.06,4.19-4.19,8.34-6.16,12.58-1.53,3.3-2.85,6.69-4.45,9.96l.75-1.52c-3.24,6.56-7.18,13.26-12.74,18.12l1.18-1.01c-.34.29-.68.57-1.03.84-1.53,1.19-2.12,2.46-2.23,4.44-.13,2.29.67,5.06,1.75,7.05s2.62,4.31,4.71,5.53c1.27.74,3.51,1.87,4.91.78h0Z"/></g></svg>