<?xml version="1.0" encoding="UTF-8"?><svg id="Layer_2" xmlns="http://www.w3.org/2000/svg" viewBox="0 0 127.43 110.31"><defs><style>.cls-1{fill:#020202;}</style></defs><g id="Layer_1-2"><path class="cls-1" d="m13.26,107.56c.1-.7.24-1.4.4-2.09l-.35,1.43c.91-3.54,2.71-6.67,5.05-9.45l-.8.95c4.85-5.64,11.29-9.61,17.11-14.14,8.17-6.36,16.31-12.78,24.52-19.08s16.42-11.9,24.17-18.41c3.69-3.11,7.29-6.34,10.98-9.45,1.85-1.56,3.73-3.1,5.66-4.57,1.29-.99,2.65-1.89,3.86-2.96,2.53-2.24,4.84-4.73,7.32-7.02,2.25-2.08,4.78-4.51,7.76-5.45l-1.19.35c.51-.14,1.01-.22,1.54-.18l-10.26-10.84c.16.57.32,1.14.48,1.72s.61,2.75.04.1c.26,1.19.56,2.36.82,3.55.53,2.41.99,4.82,1.43,7.25.87,4.8,1.63,9.61,2.48,14.41.42,2.35,1.47,4.65,2.76,6.64,1.2,1.84,3.01,4.08,4.96,5.21,1.11.65,3.02,1.72,4.25.72s1.31-2.74,1.05-4.18c-1.85-10.45-3.38-20.95-6.29-31.19-.81-2.83-2.66-5.48-4.67-7.58-1.55-1.61-3.28-3.06-5.59-3.27-3.1-.27-6.24,2.29-8.44,4.16-2.8,2.37-5.34,5.03-7.99,7.56-3.05,2.92-6.62,5.25-9.86,7.95-4.23,3.52-8.31,7.23-12.54,10.76-4.44,3.71-9.15,7.04-13.79,10.5s-9.42,7.11-14.08,10.73c-8.73,6.76-17.32,13.72-26.21,20.26-3.8,2.79-7.61,5.65-10.75,9.19-3.76,4.24-6.21,8.77-7.05,14.44-.28,1.91.75,4.5,1.54,6.13,1.06,2.19,2.72,4.62,4.59,6.21,1.2,1.02,3.04,2.65,4.75,2.39,1.54-.23,2.12-1.22,2.34-2.73h0Z"/></g></svg>