<?xml version="1.0" encoding="UTF-8"?><svg id="Layer_2" xmlns="http://www.w3.org/2000/svg" viewBox="0 0 99.73 474.71"><defs><style>.cls-1{fill:#020202;}</style></defs><g id="Layer_1-2"><path class="cls-1" d="m45.11,467.12l-.66,1.74c6.24.36,12.47.71,18.71,1.07-.68-.72-.15-.16-.05.02-.17-.29-.37-.56-.54-.86-.37-.64-.67-1.31-.96-1.99-.63-1.52-1.11-3.11-1.55-4.69-.86-3.08-1.47-6.23-2.53-9.25-3.03-8.6-6.33-17.16-8.85-25.93-1.28-4.45-1.99-9.02-2.8-13.57s-1.94-8.83-3.03-13.24c-1.16-4.64-2.22-9.3-3.08-14s-1.08-9.27-2.01-13.82c-.87-4.27-2.19-8.05-2.15-12.47s-.47-9.02-1.15-13.6c-1.42-9.52-3.51-18.89-5.12-28.37s-2.43-18.43-3.53-27.66c-.56-4.7-1.17-9.39-1.92-14.06s-1.63-9.15-1.71-13.87.25-9.04.27-13.57c.02-4.68-.69-9.22-1.53-13.82-1.42-7.77-1.71-15.32,1.02-22.85,2.39-6.61,6.82-12.35,12.41-16.59,2.82-2.14,6.21-3.7,9.6-4.93,1.55-.57,2.63-.86,4.59-1.26.43-.09,2.7-.46,1.21-.26,1.14-.15,2.29-.23,3.43-.29.53-.03,1.06-.05,1.59-.06.25,0,1.96,0,.86-.02-.87,0,1.33.03,1.68.04,2,.04,3.99.09,5.99.1,4.85.01,9.65-.13,14.43-1.03,7.84-1.48,14.87-5.35,18.08-12.91,1.37-3.23,1.96-6.75,2.44-10.21.54-3.91,1.21-7.85,1.4-11.79.45-9.51-1.59-18.88-3.41-28.16-3.68-18.75-4.86-37.92-9.61-56.47-2.31-9-4.94-18-5.68-27.3-.67-8.38,1.79-17.25-.97-25.37-1.18-3.47-2.56-6.19-1.87-9.95.25-1.39-1.51-2.66-2.44-3.23-1.93-1.2-4.57-1.96-6.79-2.29-2.35-.34-4.83-.55-7.16,0-1.23.28-3.08.81-3.34,2.28-.71,3.87.44,7.31,1.79,10.89,1.44,3.82,1.49,7.47,1.24,11.51-.27,4.48-.53,8.87-.15,13.36.41,4.81,1.27,9.58,2.31,14.29,2.07,9.39,4.86,18.58,6.58,28.05s2.81,18.85,4.21,28.27c1.39,9.36,3.63,18.58,4.89,27.95,1.17,8.72.42,17.06-.85,25.71-.99,6.7-2.75,13.28-9.41,16.29-1.68.76-1.77.79-3.93,1.22-.46.09-.92.17-1.38.25.31-.05,1.56-.15,0,0-1.07.1-2.13.18-3.2.23-.67.03-1.84.27-2.5.06,1.34.4,1.09,0,.28,0-.47,0-.95-.01-1.42-.02-1.99-.03-3.98-.1-5.97-.11-9.58-.07-18.92,1.17-27.65,5.35-6.68,3.19-12.58,8.21-16.6,14.45C2.63,206.48.13,213.57,0,220.92c-.08,4.59.81,9.11,1.63,13.61s1.16,8.85,1.06,13.4-.4,9.34-.16,14,1.33,9.25,2.03,13.88c1.41,9.37,2.29,18.82,3.48,28.22s3.11,18.53,4.81,27.8c.86,4.7,1.58,9.42,2.27,14.14.32,2.2.71,4.4.78,6.62.08,2.42-.13,4.84.02,7.26.26,4.35,2.03,8.33,2.61,12.6.64,4.76,1.21,9.49,2.12,14.22,1.78,9.28,4.53,18.32,6.17,27.63s4.35,17.75,7.32,26.54c1.39,4.09,3.05,8.11,4.36,12.23.99,3.13,1.62,6.36,2.56,9.51s2.15,6.05,4.42,8.48c2.38,2.54,7.55,3.51,10.85,3.62,2.45.08,6.8.23,7.86-2.56l.66-1.74c.48-1.26-1.75-2.8-2.44-3.23-1.93-1.2-4.57-1.96-6.79-2.29-2.82-.41-9.16-1.27-10.51,2.27h0Z"/></g></svg>