<?xml version="1.0" encoding="UTF-8"?><svg id="Layer_2" xmlns="http://www.w3.org/2000/svg" viewBox="0 0 96.06 166.93"><defs><style>.cls-1{fill:#020202;}</style></defs><g id="Layer_1-2"><path class="cls-1" d="m3.18,118.5C-.21,127.09-.08,135.99.05,145.06c.1,6.46-.56,14.08,5.67,18.09,4.2,2.71,8.91,3.87,13.9,3.77,5.65-.11,10.99-2.28,15.93-4.82,3.16-1.62,6.08-3.65,9.19-5.38.38-.21.75-.41,1.13-.61.35-.18,1.09-.55-.52.25-2.53,1.26,1.4-.69,1.54-.77.96-.48,1.91-.96,2.85-1.46,1.83-.97,3.65-1.98,5.44-3.02,3.72-2.16,7.35-4.47,10.9-6.9,3.96-2.71,8.31-5.37,11.31-9.21,4.61-5.89,5.66-13.41,6.56-20.61,2.13-17.13,7.52-33.73,9.25-50.93.9-8.98.52-18.02.28-27.02-.12-4.47-.25-8.9.25-13.35.48-4.2,1.31-8.34,1.83-12.53.27-2.14.45-4.28.5-6.44.1-4.46-6-4.55-9.06-3.75-2.47.64-5.02,1.69-6.93,3.42-1.35,1.23-2.95,2.87-3,4.83-.19,8.01-2.43,15.79-2.69,23.79s.5,16.72.39,25.07c-.23,16.94-4.58,33.39-7.86,49.91-.75,3.76-1.44,7.52-1.91,11.33-.43,3.41-.84,6.84-1.71,10.17l.43-1.62c-.58,2.12-1.35,4.17-2.5,6.05l1.02-1.64c-.4.63-.83,1.23-1.31,1.8-.1.12-.23.23-.32.36-.4.55,1.06-1.03.99-1-.32.14-.69.62-.97.85-.75.59-1.53,1.13-2.3,1.69-1.21.88,2.11-1.49.42-.3-.42.29-.84.59-1.26.88-3.54,2.44-7.17,4.74-10.88,6.92-1.79,1.05-3.61,2.07-5.44,3.05-.89.47-1.78.93-2.67,1.38-.96.49,1.73-.86,1.45-.72-.9.45-1.81.89-2.71,1.35-.38.19-.76.39-1.14.6-3.12,1.7-6.07,3.68-9.18,5.38-.35.19-1.11.56.54-.26,1.77-.88.63-.31.2-.12s-.88.39-1.34.56c-.17.07-.34.13-.51.19-.11.04-.23.08-.34.12-.79.27-.22.09,1.69-.54-.4.1-.8.22-1.21.31-1.78.39,2.45-.27.66-.09-.38.04-2.2.05-.52.09s-.16-.04-.56-.09c-.58-.08-1.15-.2-1.71-.33l1.88.46c-1.53-.42-3.02-.99-4.39-1.79l1.44.86c-1.07-.66-2-1.45-2.77-2.45l.89,1.24c-.98-1.37-1.5-2.92-1.77-4.56l.23,1.51c-.29-1.97-.23-3.94-.23-5.92,0-2.68-.09-5.37-.11-8.05-.05-5.2.15-10.41,1.47-15.47l-.43,1.62c.37-1.35.81-2.67,1.32-3.97.61-1.53.59-3.18-.69-4.38s-3.83-1.52-5.52-1.37c-2.55.23-5.18.99-7.35,2.38-1.78,1.14-3.76,2.6-4.57,4.63h0Z"/></g></svg>