<?xml version="1.0" encoding="UTF-8"?><svg id="Layer_2" xmlns="http://www.w3.org/2000/svg" viewBox="0 0 157.66 145.11"><defs><style>.cls-1{fill:#020202;}</style></defs><g id="Layer_1-2"><path class="cls-1" d="m0,61.79c-.03,8.26,2.46,16.14,4.35,24.1l-.47-1.99c1.2,5.12,2.5,10.25,4.18,15.24,1.4,4.16,4,7.76,6.18,11.53l-1.08-1.89c3.98,7.12,3.94,15.78,7.93,22.93,1.62,2.9,3.35,5.37,5.91,7.57,2.72,2.35,6.3,4.26,9.79,5.12,6.93,1.7,13.8.3,19.55-3.91,4.46-3.27,7.96-7.66,11.89-11.52l-1.47,1.43c2.42-2.36,4.93-4.62,7.34-6.99,1.98-1.94,3.98-3.98,5.4-6.39,1.58-2.68,2.7-5.54,3.58-8.51.76-2.58,1.47-5.16,2.64-7.59l-.9,1.8c3.28-6.46,8.23-12.1,12.72-17.74,2.18-2.74,4.35-5.51,6.34-8.39,2.1-3.03,3.96-6.19,6.18-9.14s4.56-5.68,6.91-8.47,4.26-5.57,5.93-8.72,3.17-6.42,5.07-9.45,4.07-5.49,6.32-8.06c2.64-3.01,5.11-6.04,7.23-9.44,1.97-3.17,3.94-6.35,6.61-8.98l-1.47,1.43c.79-.75,1.62-1.44,2.51-2.07-5.17-.99-10.33-1.97-15.5-2.96,1.7,1.91,3.45,3.79,4.73,6.02l-1.08-1.89c.42.78.75,1.55.98,2.41l-.47-1.99c.1.47.16.92.18,1.39.09,2.13,1.6,4.25,3.16,5.57,1.86,1.57,4.74,2.78,7.18,2.88,4.25.19,9.51-1.76,9.28-6.85-.24-5.46-3.99-9.82-7.44-13.7-2.07-2.33-4.4-3.75-7.49-4.33-2.74-.51-5.66-.3-8.01,1.37-7.09,5.06-10.33,13.2-15.85,19.65-2.68,3.13-5.54,6.13-7.82,9.59s-3.96,7.3-5.95,10.94c-4.12,7.55-10.65,13.43-15.37,20.59-2.34,3.55-4.65,7.06-7.26,10.43-2.62,3.38-5.34,6.67-7.94,10.06-3.16,4.12-6.2,8.41-8.34,13.16-1.82,4.04-2.43,8.5-4.39,12.48l.9-1.8c-1.51,2.93-3.8,5.32-6.14,7.61l1.47-1.43c-2.76,2.68-5.64,5.23-8.33,7.99-1.82,1.86-3.57,3.8-5.43,5.63l1.47-1.43c-1.91,1.85-3.94,3.59-6.29,4.87l1.92-1.01c-1.01.52-2.05.94-3.16,1.22l2.27-.55c-.7.15-1.39.25-2.11.27l2.5-.05c-.74,0-1.46-.06-2.18-.19l2.63.49c-.66-.15-1.3-.34-1.94-.59l2.48,1c-.82-.35-1.58-.76-2.33-1.24l2.08,1.39c-.81-.55-1.55-1.17-2.23-1.87l1.62,1.69c-.88-.94-1.62-1.98-2.27-3.09l1.08,1.89c-2.49-4.4-3.52-9.43-4.8-14.27-.6-2.26-1.23-4.53-2.16-6.68-1.33-3.09-3.31-5.87-5-8.77l1.08,1.89c-1.42-2.5-2.3-5.14-3.12-7.89-.96-3.19-1.87-6.4-2.64-9.64l.47,1.99c-.86-3.69-1.82-7.36-2.7-11.05l.47,1.99c-1.04-4.45-1.77-8.92-1.75-13.5,0-2.07-1.68-4.32-3.16-5.57-1.86-1.57-4.74-2.78-7.18-2.88C4.83,54.74.02,56.71,0,61.79H0Z"/></g></svg>