<?xml version="1.0" encoding="UTF-8"?><svg id="Layer_2" xmlns="http://www.w3.org/2000/svg" viewBox="0 0 35.81 48.86"><defs><style>.cls-1{fill:#020202;}</style></defs><g id="Layer_1-2"><path class="cls-1" d="m18.06,45.54c2.33-2.71,4.06-5.93,5.46-9.21,1.1-2.57,2.08-5.21,3.56-7.6l-1.21,1.92c2.19-3.45,4.8-6.59,6.92-10.1,2.47-4.08,3.43-8.54,2.87-13.28-.26-2.17-2.32-4.42-4.05-5.52C29.53.44,26.46-.3,24.02.12s-4.85,1.32-6.34,3.27-1.96,3.95-1.67,6.41c.03.23.05.46.07.7l-.12-2.28c.05,1.15-.07,2.25-.34,3.36l.59-2.21c-.5,1.8-1.34,3.44-2.32,5.02l1.21-1.92c-2.34,3.68-5.19,6.98-7.33,10.79-2.08,3.73-3.2,7.91-5.46,11.55l1.21-1.92c-.54.82-1.11,1.6-1.75,2.34-3.23,3.74-1.75,9.52,2.38,11.93,4.34,2.53,10.46,2.38,13.92-1.64h0Z"/></g></svg>