<?xml version="1.0" encoding="UTF-8"?><svg id="Layer_2" xmlns="http://www.w3.org/2000/svg" viewBox="0 0 38.08 120.69"><defs><style>.cls-1{fill:#020202;}</style></defs><g id="Layer_1-2"><path class="cls-1" d="m8.55,1.4C3.03,6.05.76,13.88.16,20.81c-.36,4.13-.07,8.31.65,12.39.74,4.19,1.97,8.32,2.35,12.56l-.09-1.17c.3,4.06.01,8.16.8,12.17.73,3.77,1.79,7.49,2.68,11.22,1.54,6.53,3.27,13.17,4.07,19.85.88,7.33.9,14.94,3.18,22.03.61,1.89,1.49,3.82,2.83,5.31,1.73,1.91,4.12,3.16,6.51,4.03,3.43,1.25,7.26,1.83,10.89,1.27,1.13-.17,3.24-.81,3.53-2.22l.51-2.46c.3-1.46-1.18-2.81-2.18-3.56-1.82-1.36-4.41-2.34-6.6-2.81s-4.84-.92-7.16-.42c-1.26.27-3.21.7-3.53,2.22l-.51,2.46,3.53-2.22c2.14-.33,4.97.02,7.38.73.24.07,3.88,1.57,3.07,1.15,3.02,1.58,1.94,1.27,1.41.82-.08-.07,1.48,1.54.99.87-.07-.09-.16-.17-.24-.26-.2-.24-.37-.49-.54-.75l.75,1.21c-1.38-2.28-1.96-5.04-2.46-7.63-.62-3.21-1-6.46-1.33-9.7-.25-2.52-.43-5.05-.71-7.57-.54-4.85-1.72-9.69-2.79-14.45-.72-3.23-1.49-6.44-2.26-9.66s-1.79-6.63-2.1-10.04l.09,1.17c-.17-2.27-.13-4.55-.24-6.83-.12-2.53-.45-4.98-.95-7.46-.81-4.05-1.83-8.04-2.18-12.17l.09,1.17c-.52-6.97.53-14.57,4.11-20.67l-.6,1c1.02-1.67,2.23-3.18,3.73-4.44,1.13-.95.49-2.47-.24-3.38-1.22-1.5-3.62-2.64-5.38-3.24C18.79.53,16.16-.09,13.6.01c-1.75.07-3.65.22-5.05,1.39h0Z"/></g></svg>