<?xml version="1.0" encoding="UTF-8"?><svg id="Layer_2" xmlns="http://www.w3.org/2000/svg" viewBox="0 0 27.14 139.8"><defs><style>.cls-1{fill:#020202;}</style></defs><g id="Layer_1-2"><path class="cls-1" d="m12.93.93c-1.82,1.12-3.23,2.96-4.48,4.65s-2.23,3.46-3.15,5.29c-1.89,3.8-3.65,7.95-4.51,12.12-1.24,6.01-.25,12.42-.38,18.51S-.06,53.19,0,59.04c.04,3.23.14,6.51.7,9.69.62,3.48,1.57,6.87,2.27,10.33l-.44-2.23c.59,3.07.63,6.1.5,9.22l.08-2.05c-.18,4.1-.57,8.3-.02,12.39.52,3.84,1.7,7.53,2.47,11.31l-.44-2.23c.71,3.71.52,7.49,1.04,11.23.64,4.53,1.68,9.02,3.18,13.34.82,2.38,2.27,4.85,4.23,6.48,1.84,1.53,3.7,2.41,6.06,2.84l2.14.39c1.74.32,3.77-.87,4.61-2.33.98-1.7.86-4.26.26-6.04-.82-2.44-2.23-4.82-4.23-6.48-1.84-1.53-3.7-2.41-6.06-2.84l-2.14-.39c3.43,3.11,6.86,6.21,10.29,9.32-.92-2.65-1.67-5.36-2.23-8.11l.44,2.23c-.39-1.99-.69-3.99-.84-6.02s-.1-4.05-.36-6.06c-.53-4.13-1.78-8.11-2.6-12.18l.44,2.23c-.55-2.94-.52-5.93-.4-8.9l-.08,2.05c.17-4.01.58-8.11.02-12.11-.54-3.85-1.65-7.57-2.44-11.37l.44,2.23c-1.3-6.66-.93-13.65-.7-20.39.12-3.42.25-6.85.28-10.27s-.29-6.81-.16-10.21l-.08,2.05c.13-2.57.68-4.97,1.53-7.39l-.62,1.76c1.61-4.54,3.67-9.22,6.77-12.96l-1.16,1.36c.73-.85,1.53-1.64,2.48-2.23,1.57-.97,1.97-3.56,1.86-5.17-.16-2.32-1.38-4.99-2.84-6.76-2.68-3.22-7.22-6.37-11.34-3.82h0Z"/></g></svg>