<?xml version="1.0" encoding="UTF-8"?><svg id="Layer_2" xmlns="http://www.w3.org/2000/svg" viewBox="0 0 54.84 179.38"><defs><style>.cls-1{fill:#020202;}</style></defs><g id="Layer_1-2"><path class="cls-1" d="m22.38,21c.86-1.14,1.84-2.19,2.84-3.22.65-.67,1.36-1.29,1.99-1.97-.3.33-1.97,1.85-.75.72.34-.32.68-.63,1.03-.94,1.1-.99,2.24-1.91,3.4-2.83.98-.77-2.37,1.44-1.06.73,1.96-1.06-2.31.88-.91.38s-2.81.76-.99.29c-2.3.61-2.01.07-.96.17l-1.95-.28c.4.06.76.16,1.13.32l-1.57-.74c.6.29,1.1.67,1.56,1.15l-1.09-1.2c1.11,1.25,1.75,2.78,2.23,4.36l-.46-1.55c.97,3.38,1.84,6.81,2.68,10.23.79,3.19,1.37,6.25,1.25,9.55s-.61,6.46-.79,9.71.25,6.55.76,9.83c1.08,7.01,2.54,13.95,3.58,20.97.98,6.62,1.13,13.22,1.53,19.88.42,6.98,1.04,14.02.34,21l.18-1.73c-.19,1.79-.48,3.56-.92,5.3l10.86-8.59c-.81.21-3.74.4-.81.31-.73.02-1.46.07-2.2.06-1.78-.02-3.55-.19-5.32-.28-4.39-.24-8.92.12-13.05,1.75-4.57,1.8-8.39,4.75-11.76,8.28-1.84,1.93-3.42,4.08-5.14,6.1s-3.51,4.17-4.64,6.66-2.06,5.18-2.53,7.99c-.91,5.44-.94,10.98-.67,16.47s.83,10.48.84,15.73c0,1.74,1.65,3.03,3.13,3.48,1.98.61,4.68.17,6.54-.57,3.95-1.56,8.67-4.93,8.67-9.66v-4.57c0-1.73-1.65-3.03-3.13-3.48-1.98-.61-4.68-.17-6.54.57-3.95,1.56-8.67,4.93-8.67,9.66v4.57l18.34-6.75c-.02-9.37-1.64-18.7-.68-28.07l-.18,1.73c.31-2.84.86-5.67,1.98-8.32l-.77,1.81c.26-.6.54-1.18.87-1.74.47-.83,1.79-2.18-.26.23.85-.99,1.71-1.98,2.53-3,.96-1.18,1.91-2.38,2.9-3.53.53-.61,1.07-1.2,1.63-1.77,1.33-1.35-1.8,1.57-.6.57.28-.23.54-.46.82-.68.76-.59,1.75-.88-1.07.68.3-.17.59-.35.89-.52,1.36-.79-2.59,1.07-1.19.57,1.32-.47-2.56.57-.57.15.43-.09,1.07-.31,1.51-.24l-1.35.11c.29-.02.58-.03.87-.04.88-.02,1.76,0,2.64.04,4.42.21,8.85.66,13.21-.44,2.5-.63,5-1.56,7-3.27,1.65-1.41,3.31-3.14,3.86-5.31,2.37-9.46,1.25-19.45.7-29.06-.29-5.03-.35-10.05-.96-15.07-.64-5.31-1.61-10.56-2.56-15.82s-2.17-10.48-2.34-15.74c-.15-4.91.96-9.77.86-14.68s-1.88-10.05-3.16-14.87-2.47-9.96-7.71-11.94c-3.32-1.26-7.41-.53-10.6.76s-6.22,3.26-8.91,5.54c-3.59,3.04-7.31,6.34-10.16,10.1-1.13,1.49-2.46,3.33-2.26,5.35.17,1.7,1.49,3.07,3.13,3.48,2.14.54,4.52.23,6.54-.57,2.33-.92,4.88-2.29,6.41-4.31h0Z"/></g></svg>