<svg xmlns="http://www.w3.org/2000/svg" viewBox="0 0 237.37 340.86"><defs><style>.cls-1{fill:#fff;}</style></defs><title>Asset 2</title><g id="Layer_2" data-name="Layer 2"><g id="Layer_1-2" data-name="Layer 1"><path class="cls-1" d="M25.1,328.35q0-10,0-20a145.31,145.31,0,0,1,1-19.9l-.44,3.32a260.24,260.24,0,0,1,7.15-34c1.48-5.36,2.91-10.75,4.62-16,1.76-5.46,3.9-10.8,6.13-16.08l-1.26,3c5.5-13,12-25.42,18.52-37.88a325.77,325.77,0,0,1,21-33.82q6.45-9.26,13.34-18.2l-2,2.53c9.57-12.39,19.83-24.17,30.43-35.68s21.52-22.78,33.09-33.33c6.58-6,13.37-11.76,20.4-17.21l-2.53,1.95c7.66-5.9,15.66-11.34,23.76-16.61,7.95-5.17,15.95-10.32,24.7-14l-3,1.26c2.88-1.22,5.79-2.37,8.65-3.62l-3,1.26a9.89,9.89,0,0,1,2.43-.74c2.89-.44,6.07-3.34,7.47-5.74a12.76,12.76,0,0,0,1.26-9.63,12.61,12.61,0,0,0-5.74-7.47l-3-1.26a12.47,12.47,0,0,0-6.64,0c-2.23.34-4.32,1.51-6.36,2.4l3-1.26a169.12,169.12,0,0,0-19.77,9.35c-5.68,3.31-11.19,6.94-16.68,10.57A345.65,345.65,0,0,0,148.64,46.2c-19.37,16.43-37,35-53.75,54A472.61,472.61,0,0,0,48,163c-7,11.19-13.07,23-18.9,34.78C22.87,210.38,17,223.41,12.77,236.85A317.7,317.7,0,0,0,3.1,275.4,179.54,179.54,0,0,0,.16,298.26C-.16,305,.1,311.73.1,318.45v9.9c0,6.54,5.75,12.8,12.5,12.5s12.5-5.49,12.5-12.5Z"/></g></g></svg>