<svg xmlns="http://www.w3.org/2000/svg" viewBox="0 0 288.14 356.39"><defs><style>.cls-1{fill:#fff;}.cls-2{fill:#231f20;}</style></defs><title>Asset 1</title><g id="Layer_2" data-name="Layer 2"><g id="Layer_1-2" data-name="Layer 1"><path class="cls-1" d="M20.08,346.38c0-11.48-.66-23.14.83-34.56l-.36,2.66a227.71,227.71,0,0,1,6.11-29.36,231,231,0,0,1,9.45-28.43l-1,2.39Q39.86,247.83,45.49,237c3.77-7.26,7.46-14.59,11.72-21.58q6.09-10,12.79-19.63,3.44-4.93,7-9.76,1.65-2.24,3.34-4.44l.75-1c-1.55,2.06-.79,1-.43.56q1.13-1.46,2.28-2.91c9.7-12.26,20.18-23.88,31-35.21a370.36,370.36,0,0,1,34.14-32.14c.87-.72,1.76-1.43,2.64-2.13l1.22-1,.49-.38c.83-.65.65-.51-.55.41a12,12,0,0,0,2.54-1.92l2.81-2.06c3.68-2.66,7.43-5.22,11.22-7.73,7.46-4.93,15-10.17,23.22-13.79l-2.39,1c2.69-1.13,5.52-2.06,8.11-3.43A11.69,11.69,0,0,0,202,75.55c1.71-3,1.51-5.87,1-9.12l.36,2.66a15.31,15.31,0,0,1,.16-3.51l-.36,2.66a31.36,31.36,0,0,1,2.18-8l-1,2.39c1.72-3.92,3.17-7.94,4.83-11.89l-1,2.39a206,206,0,0,1,10.44-21.89c.9-1.57,1.85-3.1,2.88-4.59l.85-1.2c1-1.31-.28.24-.53.67a14.66,14.66,0,0,1,1.87-2.22c1.2-1.31,2.56-2.39,3.82-3.62-2,2-1.22.93-.5.42.39-.28.79-.54,1.19-.8.82-.51,1.66-1,2.53-1.4,4.69-2.32,6.37-9.35,3.58-13.68-3.09-4.8-8.65-6.08-13.68-3.58C211.33,5.84,204.76,14.61,200,23.54a247,247,0,0,0-13.47,30.31l1-2.39a43.23,43.23,0,0,0-3.29,9.12,55.74,55.74,0,0,0-.81,5.59,23.48,23.48,0,0,0,.34,6.07l-.36-2.66v.48l.36-2.66-.11.45,1-2.39-.26.35L188,62.22a15.19,15.19,0,0,1-2.42,1.21l2.39-1a125.94,125.94,0,0,0-16.9,8.29c-4.86,2.93-9.61,6.05-14.33,9.21a293.3,293.3,0,0,0-28.52,21.6c-16.75,14.4-32,30.58-46.58,47.19a410.78,410.78,0,0,0-40.58,54.76c-6,9.75-11.29,20-16.32,30.33-5.33,10.93-10.4,22.2-13.93,33.86a283.61,283.61,0,0,0-8.3,33.6A148.88,148.88,0,0,0,.12,320.41c-.25,5.76,0,11.54,0,17.3v8.67c0,5.23,4.6,10.25,10,10a10.17,10.17,0,0,0,10-10Z"/><path class="cls-2" d="M194.42,71.42c.11-1.6,3.73-4,4.61-4.75,4.81-4.42,9.56-8.88,14.7-12.93A206.7,206.7,0,0,1,237.22,38.3a233.66,233.66,0,0,1,24.17-12.58"/><path class="cls-1" d="M204.06,74.08a1.24,1.24,0,0,1,.09-.38l-1,2.39a4.19,4.19,0,0,1,.48-.82l-1.57,2a16.86,16.86,0,0,1,2.86-2.61l-2,1.57c6.49-5,12.17-11,18.65-16l-2,1.56a212,212,0,0,1,22.75-14.86,236.59,236.59,0,0,1,24.16-12.59c2.15-.94,4-3.82,4.6-6a10,10,0,0,0-7-12.31l-2.66-.35a9.94,9.94,0,0,0-5.05,1.36,250.63,250.63,0,0,0-26.79,14.13,193.76,193.76,0,0,0-26.41,18.33c-2.18,1.85-4.32,3.77-6.43,5.7-1.83,1.66-3.57,3.47-5.52,5l2-1.57a51.27,51.27,0,0,0-4.53,3.65c-1.65,1.62-3.54,4.09-3.9,6.46-.42,2.76-.46,5.2,1,7.71a10,10,0,0,0,13.69,3.58c2-1.31,4.21-3.46,4.59-6Z"/><path class="cls-2" d="M195.78,71.42h82.35"/><path class="cls-1" d="M195.78,81.42h82.35c5.23,0,10.24-4.6,10-10a10.18,10.18,0,0,0-10-10H195.78c-5.23,0-10.25,4.6-10,10a10.17,10.17,0,0,0,10,10Z"/></g></g></svg>