<svg xmlns="http://www.w3.org/2000/svg" viewBox="0 0 81.76 67.62"><defs><style>.cls-1{fill:#fff;}</style></defs><title>Asset 1</title><g id="Layer_2" data-name="Layer 2"><g id="Layer_1-2" data-name="Layer 1"><path class="cls-1" d="M3,66.17a8.6,8.6,0,0,1,.77-4.77c.74-1.47,1.52-2.94,2.31-4.39a49.7,49.7,0,0,1,5.65-8.29A147,147,0,0,1,25.7,34.52,172.44,172.44,0,0,1,58.84,11.39c6.91-3.79,14-7.23,21.83-8.48,1.9-.3,1.1-3.19-.8-2.89C72.78,1.15,66.09,4,59.82,7.44a207.68,207.68,0,0,0-18.36,11A159.93,159.93,0,0,0,10.23,45.91a55,55,0,0,0-6.7,9.59c-.92,1.69-1.9,3.4-2.67,5.17A11,11,0,0,0,0,66.17c.12,1.92,3.12,1.94,3,0Z"/></g></g></svg>