<svg xmlns="http://www.w3.org/2000/svg" viewBox="0 0 395.93 427.65"><defs><style>.cls-1{fill:#fff;}</style></defs><title>Asset 1</title><g id="Layer_2" data-name="Layer 2"><g id="Layer_1-2" data-name="Layer 1"><path class="cls-1" d="M54.84,424.91c-1.62-4-2.92-7.93-5.38-11.53-2.57-3.76-5.44-7.29-7.91-11.13s-5.51-7.68-8.2-11.54-5.51-8.07-8.13-12.2a235.61,235.61,0,0,1-13.45-24q-3-6.3-5.58-12.83A48.72,48.72,0,0,1,4,335.78c-.48-2,.57-4.46,1.27-6.36,3.26-8.77,9.47-16.37,15-23.76q8.57-11.4,17.41-22.6Q55,261.22,73.47,240.34q18.63-21,38.45-41a46.79,46.79,0,0,0,4.37-4.65c1.26-1.68,2.14-3.6,3.4-5.27a48.77,48.77,0,0,1,5-5l5.08-5Q140,169.18,150.11,158.8c26.6-27.16,52.9-54.68,81.61-79.66C246.59,66.2,262.29,54.3,278.15,42.6c15.39-11.35,31.12-22.28,47.55-32.09,4-2.4,8.08-4.72,12.17-7l-2.82-1.62a15,15,0,0,0-.14,2.65c0,.12-.13.41-.09.47.28-.4.76-.36,1.45.13,1.15.57,1.61.56,1.39,0,.21-.31.13-1.35.59-1.9l-3.2-1.32c.71,11,0,22.06-.61,33.09-.3,5.46-.56,10.93-.58,16.41s.5,10.81,1,16.25c.45,5.28.83,10.57,1.74,15.79S338.4,94,339.16,99.33q2.23,15.7,4.53,31.4c6.05,40.86,12.87,81.7,23.6,121.63a533.15,533.15,0,0,0,22.23,66c.92,2.2,4.55,1.23,3.62-1-15.76-38-26.29-77.84-34.18-118.13-4-20.23-7.29-40.57-10.37-61Q346.24,122.67,344,107q-1.12-7.87-2.24-15.75c-.78-5.47-2-10.82-2.56-16.33-.58-5.89-1.31-11.86-1.51-17.77s0-12,.27-18c.61-12.39,1.63-24.78.83-37.19-.09-1.48-2.07-2.66-3.2-1.33-1.37,1.62-2.71,5-.86,6.85A2.12,2.12,0,0,0,338,7c.9-1.37.77-3.53.78-5.06A1.89,1.89,0,0,0,336,.29a498.89,498.89,0,0,0-48.92,31.23c-16,11.39-31.9,23.09-47,35.62C210.35,91.81,183.33,119.4,156.4,147Q146.22,157.45,136,167.83q-5,5-10,10c-3.29,3.26-7.25,6.36-9.86,10.2a52.76,52.76,0,0,1-3.34,5.11c-1.57,1.83-3.43,3.46-5.12,5.18q-5,5.09-10,10.25-9.76,10.17-19.25,20.63-19.06,21-36.87,43.13-8.84,10.93-17.37,22.1C18.36,302,12.34,309.53,7.25,317.6a55.5,55.5,0,0,0-5.91,11.84c-.58,1.73-1.54,4.18-1.3,6C.3,337.62,1.54,340,2.31,342a194.06,194.06,0,0,0,11.55,24.71c9.24,16.76,20.73,32,31.72,47.63a29.15,29.15,0,0,1,3.26,5.44c.86,2,1.57,4.09,2.39,6.12.89,2.21,4.52,1.24,3.61-1Z"/><path class="cls-1" d="M54.17,427.38a12.74,12.74,0,0,1,1.15-.62l.67-.3c-.18.07-.14.06,0,0l.32-.13a23.38,23.38,0,0,1,3-.91c.5-.12,1-.23,1.49-.32.23-.05.46-.09.7-.12l.34-.06c-.37.06,0,0,.1,0a17.2,17.2,0,0,1,2.78-.12l-1-3.49-.66.31c.31-.14-.34.13-.4.16-.41.15-.83.29-1.25.42-.89.27-1.79.49-2.7.69-1.82.4-3.66.7-5.48,1.11a1.88,1.88,0,0,0-1.31,2.3,1.92,1.92,0,0,0,2.31,1.31c3.84-.86,7.81-1.29,11.38-3.06a1.9,1.9,0,0,0,.87-2.12A2,2,0,0,0,64.68,421a23,23,0,0,0-6.4.76,22.15,22.15,0,0,0-6,2.34,1.88,1.88,0,0,0-.67,2.56,1.91,1.91,0,0,0,2.56.68Z"/><path class="cls-1" d="M393.61,316.69c-22.23,6.19-44.3,12.95-66.26,20.06s-44,14.65-65.91,22.26-44,15.32-66,22.79-44.4,14.78-66.79,21.58c-22.16,6.74-44.47,13-67,18.55-2.81.69-5.62,1.38-8.44,2.05-2.34.56-1.35,4.18,1,3.61,22.53-5.38,44.88-11.48,67.08-18.09,22.41-6.67,44.66-13.86,66.83-21.3s44.07-15.06,66.07-22.71,43.86-15.2,65.91-22.44,44-14.08,66.15-20.4l8.34-2.34c2.32-.65,1.33-4.27-1-3.62Z"/></g></g></svg>